<?xml version="1.0" encoding="utf-8"?>
<!-- Generator: Adobe Illustrator 25.0.0, SVG Export Plug-In . SVG Version: 6.00 Build 0)  -->
<svg version="1.1" id="Layer_1" xmlns="http://www.w3.org/2000/svg" xmlns:xlink="http://www.w3.org/1999/xlink" x="0px" y="0px"
	 viewBox="0 0 215.4 244" style="enable-background:new 0 0 215.4 244;" xml:space="preserve">
<style type="text/css">
	.st0{fill:#BD1622;}
	.st1{fill:#E20613;}
	.st2{fill:#EACE76;}
	.st3{fill:#C9961A;}
	.st4{fill:#F7E6A4;}
</style>
<g>
	<g>
		<rect x="62.3" y="113.9" class="st0" width="90.7" height="9.1"/>
		<rect x="62.3" y="81.6" class="st0" width="90.7" height="9.1"/>
		<rect x="62.3" y="90.7" class="st1" width="90.7" height="23.2"/>
		<polygon class="st0" points="55.8,88.1 62.2,81.6 196.5,214.6 183.7,214.7 		"/>
		<polygon class="st0" points="167.4,244 33,111 39.4,104.6 167.3,231.1 		"/>
		<polygon class="st1" points="183.7,214.7 167.3,214.7 167.3,231.1 39.4,104.6 55.8,88.1 		"/>
		<polygon class="st0" points="159.6,88.1 153.2,81.6 18.8,214.6 31.7,214.7 		"/>
		<polygon class="st0" points="48,244 182.4,111 176,104.6 48,231.1 		"/>
		<polygon class="st1" points="31.7,214.7 48.1,214.7 48,231.1 176,104.6 159.6,88.1 		"/>
		<path class="st2" d="M117.3,122H97.8V79.9c0-5.4,4.4-9.7,9.7-9.7c5.4,0,9.7,4.4,9.7,9.7V122z M102.3,117.5h10.5V79.9
			c0-2.9-2.4-5.2-5.2-5.2c-2.9,0-5.2,2.4-5.2,5.2V117.5z"/>
		<path class="st3" d="M107.8,210.4c-0.1,0-0.1,0-0.2,0c-0.7-0.1-1.2-0.7-1.1-1.4c1.7-14.3,14.9-18.1,21.6-18.1
			c32.4,0,58.7-26.3,58.7-58.7c0-14.4-5.8-29.1-16-40.2c-0.5-0.5-0.4-1.3,0.1-1.8c0.5-0.5,1.3-0.4,1.8,0.1
			c10.6,11.6,16.7,26.9,16.7,42c0,33.8-27.5,61.3-61.3,61.3c-0.2,0-17.2,0.2-19.1,15.9C109,209.9,108.5,210.4,107.8,210.4z"/>
		<path class="st2" d="M171,91.4c-5.1,2.5-19.2-11.9-15.3-29.7C175.6,71.7,176.1,88.8,171,91.4z"/>
		<path class="st3" d="M169.7,89.1c0,0-3.5-2.8-5.7-7.4c-2.2-4.5-2.4-9-2.4-9s3.5,2.8,5.7,7.4C169.5,84.6,169.7,89.1,169.7,89.1z"/>
		<path class="st2" d="M180.4,101.2c-5.5-1.6-6-21.8,9-32.1C197.2,89.9,185.9,102.8,180.4,101.2z"/>
		<path class="st3" d="M181,98.6c0,0-0.6-4.4,0.8-9.3s4.3-8.2,4.3-8.2s0.6,4.4-0.8,9.3C183.9,95.2,181,98.6,181,98.6z"/>
		<path class="st2" d="M188.2,122.8c-4.7-3.3,1.4-22.6,18.9-27.5C207.8,117.6,192.9,126.1,188.2,122.8z"/>
		<path class="st3" d="M189.6,120.6c0,0,0.9-4.4,3.8-8.5c2.9-4.1,6.8-6.4,6.8-6.4s-0.9,4.4-3.8,8.5S189.6,120.6,189.6,120.6z"/>
		<path class="st2" d="M188.5,144.2c-3.3-4.6,8.6-20.9,26.8-19.8C208.7,145.6,191.8,148.8,188.5,144.2z"/>
		<path class="st3" d="M190.6,142.5c0,0,2.3-3.9,6.3-6.8c4.1-2.9,8.5-3.8,8.5-3.8s-2.3,3.9-6.3,6.8
			C194.9,141.6,190.6,142.5,190.6,142.5z"/>
		<path class="st2" d="M180.7,163.9c-1.6-5.5,15-16.9,31.8-10C199.3,171.8,182.3,169.4,180.7,163.9z"/>
		<path class="st3" d="M183.2,163c0,0,3.4-2.9,8.2-4.4c4.8-1.4,9.3-0.9,9.3-0.9s-3.4,2.9-8.2,4.4C187.6,163.6,183.2,163,183.2,163z"
			/>
		<path class="st2" d="M166.6,180.3c0.2-5.7,19.7-11.1,33.4,0.9C181.6,193.9,166.3,186,166.6,180.3z"/>
		<path class="st3" d="M169.2,180.3c0,0,4.2-1.7,9.2-1.4c5,0.2,9,2.2,9,2.2s-4.2,1.7-9.2,1.4C173.2,182.3,169.2,180.3,169.2,180.3z"
			/>
		<path class="st2" d="M150.3,188.5c2.1-5.3,22.2-4.1,31.2,11.7C160.1,206.2,148.2,193.8,150.3,188.5z"/>
		<path class="st3" d="M152.8,189.3c0,0,4.5-0.2,9.2,1.6c4.7,1.8,7.8,5,7.8,5s-4.5,0.2-9.2-1.6C155.9,192.5,152.8,189.3,152.8,189.3
			z"/>
		<path class="st2" d="M128.8,193.6c3.7-4.4,22.4,3.3,25.7,21.2C132.3,213.5,125.1,197.9,128.8,193.6z"/>
		<path class="st3" d="M130.9,195.2c0,0,4.3,1.3,8.1,4.5c3.8,3.3,5.8,7.3,5.8,7.3s-4.3-1.3-8.1-4.5
			C132.9,199.2,130.9,195.2,130.9,195.2z"/>
		<path class="st4" d="M177.8,100.6c-0.8,4.5-17,6.7-26.6-4.5C167.3,88.1,178.7,96.1,177.8,100.6z"/>
		<path class="st3" d="M175.7,100.3c0,0-3.5,0.9-7.5,0.1c-4-0.7-7-2.8-7-2.8s3.5-0.9,7.5-0.1C172.7,98.3,175.7,100.3,175.7,100.3z"
			/>
		<path class="st4" d="M186.1,120c-2.2,4-18.3,0.9-23.8-12.8C180.2,104.7,188.4,115.9,186.1,120z"/>
		<path class="st3" d="M184.2,119c0,0-3.6-0.3-7.2-2.3c-3.6-2-5.7-4.9-5.7-4.9s3.6,0.3,7.2,2.3C182,116.1,184.2,119,184.2,119z"/>
		<path class="st4" d="M186.8,140.2c-3.4,3.1-17.6-5-18.4-19.7C186.1,123.9,190.2,137.1,186.8,140.2z"/>
		<path class="st3" d="M185.3,138.7c0,0-3.3-1.5-6.1-4.5c-2.7-3-3.9-6.5-3.9-6.5s3.3,1.5,6.1,4.5
			C184.2,135.3,185.3,138.7,185.3,138.7z"/>
		<path class="st4" d="M180.5,160.3c-4.2,1.8-15.1-10.4-11.1-24.6C185,144.5,184.7,158.4,180.5,160.3z"/>
		<path class="st3" d="M179.5,158.3c0,0-2.7-2.4-4.3-6.2c-1.6-3.7-1.6-7.4-1.6-7.4s2.7,2.4,4.3,6.2
			C179.5,154.7,179.5,158.3,179.5,158.3z"/>
		<path class="st4" d="M167.8,175.9c-4.6,0.4-10.9-14.7-2.7-26.9C177.1,162.5,172.4,175.5,167.8,175.9z"/>
		<path class="st3" d="M167.5,173.8c0,0-1.7-3.2-2.1-7.2c-0.3-4.1,0.8-7.5,0.8-7.5s1.7,3.2,2.1,7.2
			C168.7,170.4,167.5,173.8,167.5,173.8z"/>
		<path class="st4" d="M149.7,186.6c-4.5-1.1-5.7-17.4,6.1-26.3C162.9,176.9,154.2,187.7,149.7,186.6z"/>
		<path class="st3" d="M150.1,184.5c0,0-0.6-3.6,0.3-7.5c1-4,3.2-6.8,3.2-6.8s0.6,3.6-0.3,7.5C152.3,181.7,150.1,184.5,150.1,184.5z
			"/>
		<path class="st4" d="M129.1,190.7c-3.9-2.5,0.2-18.3,14.2-23C144.7,185.8,133,193.2,129.1,190.7z"/>
		<path class="st3" d="M130.1,188.9c0,0,0.5-3.6,2.7-7c2.2-3.4,5.2-5.4,5.2-5.4s-0.5,3.6-2.7,7C133.2,186.9,130.1,188.9,130.1,188.9
			z"/>
		<path class="st3" d="M180.5,103.9c-1-0.9-2.5-0.7-3.4,0.2c-0.9,1-0.7,2.5,0.2,3.4c1,0.9,2.5,0.7,3.4-0.2
			C181.6,106.3,181.5,104.8,180.5,103.9z"/>
		<path class="st3" d="M192.1,126.5c-1-0.9-2.5-0.7-3.4,0.2c-0.9,1-0.7,2.5,0.2,3.4c1,0.9,2.5,0.7,3.4-0.2
			C193.2,128.9,193.1,127.4,192.1,126.5z"/>
		<circle class="st3" cx="185.3" cy="106.8" r="2.4"/>
		<path class="st3" d="M186.7,123.1c-1-0.9-2.5-0.7-3.4,0.2c-0.9,1-0.7,2.5,0.2,3.4c1,0.9,2.5,0.7,3.4-0.2
			C187.8,125.5,187.7,124,186.7,123.1z"/>
		<path class="st3" d="M189,149.8c-1-0.9-2.5-0.7-3.4,0.2c-0.9,1-0.7,2.5,0.2,3.4c1,0.9,2.5,0.7,3.4-0.2
			C190.1,152.1,190,150.6,189,149.8z"/>
		<ellipse transform="matrix(0.8683 -0.4961 0.4961 0.8683 -48.219 110.4265)" class="st3" cx="183.8" cy="146" rx="2.4" ry="2.4"/>
		<path class="st3" d="M178.2,161.3c-1-0.9-2.5-0.7-3.4,0.2c-0.9,1-0.7,2.5,0.2,3.4c1,0.9,2.5,0.7,3.4-0.2
			C179.3,163.7,179.2,162.2,178.2,161.3z"/>
		<circle class="st3" cx="177.7" cy="169.8" r="2.4"/>
		
			<ellipse transform="matrix(0.5822 -0.8131 0.8131 0.5822 -77.1215 206.4643)" class="st3" cx="162.3" cy="178.3" rx="2.4" ry="2.4"/>
		<path class="st3" d="M165.1,181.6c-1-0.9-2.5-0.7-3.4,0.2c-0.9,1-0.7,2.5,0.2,3.4c1,0.9,2.5,0.7,3.4-0.2
			C166.2,184,166.1,182.4,165.1,181.6z"/>
		<path class="st3" d="M144.9,185.6c-1-0.9-2.5-0.7-3.4,0.2c-0.9,1-0.7,2.5,0.2,3.4c1,0.9,2.5,0.7,3.4-0.2
			C146.1,187.9,145.9,186.4,144.9,185.6z"/>
		<path class="st3" d="M146.4,190.6c-1-0.9-2.5-0.7-3.4,0.2c-0.9,1-0.7,2.5,0.2,3.4c1,0.9,2.5,0.7,3.4-0.2
			C147.5,193,147.4,191.5,146.4,190.6z"/>
		<path class="st3" d="M107.5,210.4c-0.6,0-1.2-0.5-1.3-1.1c-1.9-15.7-18.9-15.9-19.1-15.9c-33.8,0-61.3-27.5-61.3-61.3
			c0-15.1,6.1-30.4,16.7-42c0.5-0.5,1.3-0.6,1.8-0.1c0.5,0.5,0.6,1.3,0.1,1.8c-10.2,11.1-16,25.8-16,40.2
			c0,32.4,26.3,58.7,58.7,58.7c6.7,0,19.9,3.8,21.6,18.1c0.1,0.7-0.4,1.3-1.1,1.4C107.6,210.4,107.6,210.4,107.5,210.4z"/>
		<path class="st2" d="M44.4,91.4c5.1,2.5,19.2-11.9,15.3-29.7C39.7,71.7,39.2,88.8,44.4,91.4z"/>
		<path class="st3" d="M45.7,89.1c0,0,3.5-2.8,5.7-7.4c2.2-4.5,2.4-9,2.4-9s-3.5,2.8-5.7,7.4C45.9,84.6,45.7,89.1,45.7,89.1z"/>
		<path class="st2" d="M34.9,101.2c5.5-1.6,6-21.8-9-32.1C18.1,89.9,29.4,102.8,34.9,101.2z"/>
		<path class="st3" d="M34.3,98.6c0,0,0.6-4.4-0.8-9.3c-1.4-4.8-4.3-8.2-4.3-8.2s-0.6,4.4,0.8,9.3S34.3,98.6,34.3,98.6z"/>
		<path class="st2" d="M27.1,122.8c4.7-3.3-1.4-22.6-18.9-27.5C7.6,117.6,22.5,126.1,27.1,122.8z"/>
		<path class="st3" d="M25.7,120.6c0,0-0.9-4.4-3.8-8.5c-2.9-4.1-6.8-6.4-6.8-6.4s0.9,4.4,3.8,8.5C21.9,118.3,25.7,120.6,25.7,120.6
			z"/>
		<path class="st2" d="M26.8,144.2c3.3-4.6-8.6-20.9-26.8-19.8C6.7,145.6,23.5,148.8,26.8,144.2z"/>
		<path class="st3" d="M24.8,142.5c0,0-2.3-3.9-6.3-6.8c-4.1-2.9-8.5-3.8-8.5-3.8s2.3,3.9,6.3,6.8C20.4,141.6,24.8,142.5,24.8,142.5
			z"/>
		<path class="st2" d="M34.7,163.9c1.6-5.5-15-16.9-31.8-10C16.1,171.8,33,169.4,34.7,163.9z"/>
		<path class="st3" d="M32.2,163c0,0-3.4-2.9-8.2-4.4c-4.8-1.4-9.3-0.9-9.3-0.9s3.4,2.9,8.2,4.4C27.8,163.6,32.2,163,32.2,163z"/>
		<path class="st2" d="M48.8,180.3c-0.2-5.7-19.7-11.1-33.4,0.9C33.8,193.9,49,186,48.8,180.3z"/>
		<path class="st3" d="M46.1,180.3c0,0-4.2-1.7-9.2-1.4s-9,2.2-9,2.2s4.2,1.7,9.2,1.4C42.1,182.3,46.1,180.3,46.1,180.3z"/>
		<path class="st2" d="M65.1,188.5c-2.1-5.3-22.2-4.1-31.2,11.7C55.3,206.2,67.1,193.8,65.1,188.5z"/>
		<path class="st3" d="M62.5,189.3c0,0-4.5-0.2-9.2,1.6c-4.7,1.8-7.8,5-7.8,5s4.5,0.2,9.2-1.6C59.4,192.5,62.5,189.3,62.5,189.3z"/>
		<path class="st2" d="M86.5,193.6c-3.7-4.4-22.4,3.3-25.7,21.2C83,213.5,90.2,197.9,86.5,193.6z"/>
		<path class="st3" d="M84.4,195.2c0,0-4.3,1.3-8.1,4.5c-3.8,3.3-5.8,7.3-5.8,7.3s4.3-1.3,8.1-4.5C82.5,199.2,84.4,195.2,84.4,195.2
			z"/>
		<path class="st4" d="M37.5,100.6c0.8,4.5,17,6.7,26.6-4.5C48,88.1,36.7,96.1,37.5,100.6z"/>
		<path class="st3" d="M39.7,100.3c0,0,3.5,0.9,7.5,0.1c4-0.7,7-2.8,7-2.8s-3.5-0.9-7.5-0.1C42.6,98.3,39.7,100.3,39.7,100.3z"/>
		<path class="st4" d="M29.2,120c2.2,4,18.3,0.9,23.8-12.8C35.2,104.7,27,115.9,29.2,120z"/>
		<path class="st3" d="M31.2,119c0,0,3.6-0.3,7.2-2.3c3.6-2,5.7-4.9,5.7-4.9s-3.6,0.3-7.2,2.3C33.3,116.1,31.2,119,31.2,119z"/>
		<path class="st4" d="M28.5,140.2c3.4,3.1,17.6-5,18.4-19.7C29.3,123.9,25.1,137.1,28.5,140.2z"/>
		<path class="st3" d="M30.1,138.7c0,0,3.3-1.5,6.1-4.5c2.7-3,3.9-6.5,3.9-6.5s-3.3,1.5-6.1,4.5C31.2,135.3,30.1,138.7,30.1,138.7z"
			/>
		<path class="st4" d="M34.9,160.3c4.2,1.8,15.1-10.4,11.1-24.6C30.3,144.5,30.7,158.4,34.9,160.3z"/>
		<path class="st3" d="M35.9,158.3c0,0,2.7-2.4,4.3-6.2c1.6-3.7,1.6-7.4,1.6-7.4s-2.7,2.4-4.3,6.2S35.9,158.3,35.9,158.3z"/>
		<path class="st4" d="M47.6,175.9c4.6,0.4,10.9-14.7,2.7-26.9C38.2,162.5,43,175.5,47.6,175.9z"/>
		<path class="st3" d="M47.9,173.8c0,0,1.7-3.2,2.1-7.2c0.3-4.1-0.8-7.5-0.8-7.5s-1.7,3.2-2.1,7.2C46.7,170.4,47.9,173.8,47.9,173.8
			z"/>
		<path class="st4" d="M65.7,186.6c4.5-1.1,5.7-17.4-6.1-26.3C52.5,176.9,61.2,187.7,65.7,186.6z"/>
		<path class="st3" d="M65.3,184.5c0,0,0.6-3.6-0.3-7.5c-1-4-3.2-6.8-3.2-6.8s-0.6,3.6,0.3,7.5C63,181.7,65.3,184.5,65.3,184.5z"/>
		<path class="st4" d="M86.3,190.7c3.9-2.5-0.2-18.3-14.2-23C70.7,185.8,82.4,193.2,86.3,190.7z"/>
		<path class="st3" d="M85.2,188.9c0,0-0.5-3.6-2.7-7c-2.2-3.4-5.2-5.4-5.2-5.4s0.5,3.6,2.7,7C82.2,186.9,85.2,188.9,85.2,188.9z"/>
		
			<ellipse transform="matrix(7.369829e-02 -0.9973 0.9973 7.369829e-02 -71.7209 134.2288)" class="st3" cx="36.4" cy="105.7" rx="2.4" ry="2.4"/>
		
			<ellipse transform="matrix(0.6109 -0.7917 0.7917 0.6109 -91.9281 69.5415)" class="st3" cx="24.8" cy="128.3" rx="2.4" ry="2.4"/>
		
			<ellipse transform="matrix(0.5446 -0.8387 0.8387 0.5446 -75.9104 73.8749)" class="st3" cx="30.1" cy="106.8" rx="2.4" ry="2.4"/>
		<path class="st3" d="M28.7,123.1c1-0.9,2.5-0.7,3.4,0.2c0.9,1,0.7,2.5-0.2,3.4c-1,0.9-2.5,0.7-3.4-0.2
			C27.6,125.5,27.7,124,28.7,123.1z"/>
		<path class="st3" d="M26.4,149.8c1-0.9,2.5-0.7,3.4,0.2c0.9,1,0.7,2.5-0.2,3.4c-1,0.9-2.5,0.7-3.4-0.2
			C25.3,152.1,25.4,150.6,26.4,149.8z"/>
		<ellipse transform="matrix(0.9764 -0.2159 0.2159 0.9764 -30.7871 10.2508)" class="st3" cx="31.5" cy="146" rx="2.4" ry="2.4"/>
		<path class="st3" d="M37.2,161.3c1-0.9,2.5-0.7,3.4,0.2c0.9,1,0.7,2.5-0.2,3.4c-1,0.9-2.5,0.7-3.4-0.2
			C36.1,163.7,36.2,162.2,37.2,161.3z"/>
		<path class="st3" d="M36.1,168c1-0.9,2.5-0.7,3.4,0.2c0.9,1,0.7,2.5-0.2,3.4c-1,0.9-2.5,0.7-3.4-0.2C35,170.3,35.1,168.8,36.1,168
			z"/>
		<ellipse transform="matrix(0.8131 -0.5822 0.5822 0.8131 -93.8747 64.1978)" class="st3" cx="53" cy="178.3" rx="2.4" ry="2.4"/>
		
			<ellipse transform="matrix(0.6516 -0.7586 0.7586 0.6516 -121.0714 103.1742)" class="st3" cx="51.8" cy="183.4" rx="2.4" ry="2.4"/>
		<path class="st3" d="M70.4,185.6c1-0.9,2.5-0.7,3.4,0.2c0.9,1,0.7,2.5-0.2,3.4c-1,0.9-2.5,0.7-3.4-0.2
			C69.3,187.9,69.4,186.4,70.4,185.6z"/>
		<path class="st3" d="M69,190.6c1-0.9,2.5-0.7,3.4,0.2c0.9,1,0.7,2.5-0.2,3.4c-1,0.9-2.5,0.7-3.4-0.2C67.9,193,68,191.5,69,190.6z"
			/>
		<path class="st2" d="M139.1,68.5H76.3c-6.2,0-11.2-5-11.2-11.2c0-6.2,5-11.2,11.2-11.2h62.8c6.2,0,11.2,5,11.2,11.2
			C150.2,63.5,145.2,68.5,139.1,68.5z M76.3,50.6c-3.7,0-6.7,3-6.7,6.7c0,3.7,3,6.7,6.7,6.7h62.8c3.7,0,6.7-3,6.7-6.7
			c0-3.7-3-6.7-6.7-6.7H76.3z"/>
		<rect x="77.3" class="st3" width="63.9" height="53.5"/>
		<rect x="86.3" class="st2" width="45.8" height="53.5"/>
		<path class="st2" d="M47.3,66.1L45.8,52c0,0-15.9,1.4-16.2,1.2c8.4-11.9,19.3-22,32-29.3c0.3,0.5,0.6,1,1,1.6
			c2.8,4.6,5.8,9,8.6,13.6c0.7,1.1,1.4,2.3,2.1,3.4C62.9,48.3,54,56.4,47.3,66.1z"/>
		<polygon class="st3" points="60.9,55.1 73.2,42.5 61.6,23.9 50.5,37.6 		"/>
		<path class="st2" d="M168,66.1l1.5-14.1c0,0,15.9,1.4,16.2,1.2c-8.4-11.9-19.3-22-32-29.3c-0.3,0.5-0.6,1-1,1.6
			c-2.8,4.6-5.8,9-8.6,13.6c-0.7,1.1-1.4,2.3-2.1,3.4C152.5,48.3,161.3,56.4,168,66.1z"/>
		<polygon class="st3" points="154.4,55.1 142.1,42.5 153.8,23.9 164.9,37.6 		"/>
		<path class="st4" d="M164.9,37.6c-16.2-11.3-35.9-17.9-57.1-17.9c0,0-0.1,0-0.1,0c0,0-0.1,0-0.1,0c-21.2,0-40.9,6.6-57.1,17.9
			c3.2,5.8,10.4,17.4,10.5,17.5c13-9.4,28.9-14.9,46.1-15v0c0.2,0,0.4,0,0.6,0c0.2,0,0.4,0,0.6,0v0c17.2,0.1,33.1,5.7,46.1,15
			C154.5,54.9,161.7,43.4,164.9,37.6z"/>
		<rect x="104.1" y="59.7" class="st3" width="6.8" height="18"/>
		<circle class="st2" cx="107.6" cy="125.9" r="44.8"/>
		<circle class="st3" cx="107.6" cy="125.9" r="42.2"/>
		
			<ellipse transform="matrix(0.2298 -0.9732 0.9732 0.2298 -39.6304 201.6331)" class="st2" cx="107.6" cy="125.9" rx="33.9" ry="33.9"/>
		<circle class="st2" cx="107.6" cy="87.9" r="3.8"/>
		
			<ellipse transform="matrix(0.2298 -0.9732 0.9732 0.2298 -76.8791 231.1123)" class="st2" cx="107.6" cy="164.1" rx="3.8" ry="3.8"/>
		
			<ellipse transform="matrix(0.2298 -0.9732 0.9732 0.2298 -10.3957 238.8532)" class="st2" cx="145.7" cy="126" rx="3.8" ry="3.8"/>
		<ellipse transform="matrix(0.2298 -0.9732 0.9732 0.2298 -69.1382 164.629)" class="st2" cx="69.4" cy="126" rx="3.8" ry="3.8"/>
		<circle class="st2" cx="134.5" cy="99" r="3.8"/>
		<circle class="st2" cx="80.6" cy="153" r="3.8"/>
		<circle class="st2" cx="134.5" cy="153" r="3.8"/>
		<circle class="st2" cx="80.6" cy="99" r="3.8"/>
		
			<ellipse transform="matrix(0.6528 -0.7575 0.7575 0.6528 -26.3353 124.2575)" class="st2" cx="122.4" cy="90.9" rx="3.8" ry="3.8"/>
		
			<ellipse transform="matrix(0.6528 -0.7575 0.7575 0.6528 -89.8558 126.2052)" class="st2" cx="92.8" cy="161.1" rx="3.8" ry="3.8"/>
		<circle class="st2" cx="142.7" cy="140.8" r="3.8"/>
		<circle class="st2" cx="72.4" cy="111.2" r="3.8"/>
		<path class="st2" d="M144.3,115.1c-1.9,0.8-4.2-0.1-4.9-2.1c-0.8-1.9,0.1-4.2,2.1-4.9s4.2,0.1,4.9,2.1
			C147.2,112.1,146.3,114.4,144.3,115.1z"/>
		
			<ellipse transform="matrix(0.3016 -0.9534 0.9534 0.3016 -83.3652 166.9183)" class="st2" cx="72.2" cy="140.4" rx="3.8" ry="3.8"/>
		<path class="st2" d="M118.4,162.7c-0.8-1.9,0.1-4.2,2.1-4.9c1.9-0.8,4.2,0.1,4.9,2.1c0.8,1.9-0.1,4.2-2.1,4.9
			C121.4,165.6,119.2,164.7,118.4,162.7z"/>
		
			<ellipse transform="matrix(3.200966e-02 -0.9995 0.9995 3.200966e-02 -0.4039 180.9272)" class="st2" cx="93.2" cy="90.7" rx="3.8" ry="3.8"/>
		<g>
			<path class="st3" d="M85.2,118c0,0,1.5,0.4,3.3,0.1c1.7-0.3,3-1.2,3-1.2s-1.5-0.4-3.3-0.1C86.5,117.1,85.2,118,85.2,118z"/>
		</g>
		<g>
			<path class="st3" d="M87.4,115.8c0,0,1.6,0.1,3.2-0.5c1.7-0.6,2.8-1.7,2.8-1.7s-1.6-0.1-3.2,0.5
				C88.5,114.7,87.4,115.8,87.4,115.8z"/>
		</g>
		<g>
			<path class="st3" d="M82.6,124.7c0,0,1.6-0.1,3.1-1c1.5-0.9,2.5-2.1,2.5-2.1s-1.6,0.1-3.1,1C83.6,123.4,82.6,124.7,82.6,124.7z"
				/>
		</g>
		<g>
			<path class="st3" d="M83.5,121c0,0,1.5,0.3,3.3-0.1c1.7-0.4,3-1.3,3-1.3s-1.5-0.3-3.3,0.1C84.8,120.1,83.5,121,83.5,121z"/>
		</g>
		<g>
			<path class="st3" d="M82.5,131.1c0,0,1.4-0.6,2.6-1.9c1.2-1.3,1.7-2.8,1.7-2.8s-1.4,0.6-2.6,1.9C83,129.6,82.5,131.1,82.5,131.1z
				"/>
		</g>
		<g>
			<path class="st3" d="M82.2,128c0,0,1.5-0.4,2.9-1.4s2.2-2.4,2.2-2.4s-1.5,0.4-2.9,1.4S82.2,128,82.2,128z"/>
		</g>
		<g>
			<path class="st3" d="M84.5,137.3c0,0,1.2-1.1,1.9-2.7c0.7-1.6,0.7-3.2,0.7-3.2s-1.2,1.1-1.9,2.7S84.5,137.3,84.5,137.3z"/>
		</g>
		<g>
			<path class="st3" d="M83.2,134.6c0,0,1.3-0.9,2.3-2.3c1-1.5,1.2-3,1.2-3s-1.3,0.9-2.3,2.3C83.4,133,83.2,134.6,83.2,134.6z"/>
		</g>
		<g>
			<path class="st3" d="M88.6,141.4c0,0,0.8-1.4,0.9-3.1c0.1-1.8-0.4-3.2-0.4-3.2s-0.8,1.4-0.9,3.1C88,139.9,88.6,141.4,88.6,141.4z
				"/>
		</g>
		<g>
			<path class="st3" d="M86.4,139.5c0,0,1-1.2,1.4-2.9c0.4-1.7,0.2-3.3,0.2-3.3s-1,1.2-1.4,2.9S86.4,139.5,86.4,139.5z"/>
		</g>
		<g>
			<path class="st3" d="M94.3,144.3c0,0,0.3-1.5-0.1-3.3c-0.4-1.7-1.4-3-1.4-3s-0.3,1.5,0.1,3.3C93.3,143,94.3,144.3,94.3,144.3z"/>
		</g>
		<g>
			<path class="st3" d="M91.3,143.1c0,0,0.5-1.5,0.4-3.2c-0.1-1.8-0.8-3.2-0.8-3.2s-0.5,1.5-0.4,3.2
				C90.6,141.7,91.3,143.1,91.3,143.1z"/>
		</g>
		<g>
			<path class="st3" d="M100.7,146.1c0,0-0.2-1.6-1.2-3c-1-1.5-2.3-2.4-2.3-2.4s0.2,1.6,1.2,3C99.4,145.3,100.7,146.1,100.7,146.1z"
				/>
		</g>
		<g>
			<path class="st3" d="M97.2,145.6c0,0,0-1.6-0.6-3.2c-0.7-1.6-1.8-2.7-1.8-2.7s0,1.6,0.6,3.2C96.1,144.5,97.2,145.6,97.2,145.6z"
				/>
		</g>
		<g>
			<path class="st3" d="M88.6,114.4c4.6-1.4,5.2-5.8,7.3-7.2C93.5,107.8,88.8,109,88.6,114.4z"/>
		</g>
		<g>
			<path class="st3" d="M85.3,118.2c0,0,0.3-1.9-0.4-4c-0.6-2.1-1.9-3.6-1.9-3.6s-0.3,1.9,0.4,4C84,116.7,85.3,118.2,85.3,118.2z"/>
		</g>
		<g>
			<path class="st3" d="M82.6,124.7c0,0-0.4-1.9-1.6-3.7c-1.3-1.8-2.9-2.8-2.9-2.8s0.4,1.9,1.6,3.7
				C80.9,123.7,82.6,124.7,82.6,124.7z"/>
		</g>
		<g>
			<path class="st3" d="M82.6,131.2c0,0-1-1.7-2.8-3c-1.8-1.3-3.7-1.7-3.7-1.7s1,1.7,2.8,3C80.7,130.8,82.6,131.2,82.6,131.2z"/>
		</g>
		<g>
			<path class="st3" d="M84.2,136c0,0-1.5-1.3-3.6-1.9s-4-0.4-4-0.4s1.5,1.3,3.6,1.9C82.3,136.3,84.2,136,84.2,136z"/>
		</g>
		<g>
			<path class="st3" d="M88.2,141.2c0,0-1.8-0.7-4-0.6c-2.2,0.1-3.9,1-3.9,1s1.8,0.7,4,0.6C86.5,142.1,88.2,141.2,88.2,141.2z"/>
		</g>
		<g>
			<path class="st3" d="M93.2,144.3c0,0-1.9-0.1-4,0.7c-2,0.8-3.4,2.2-3.4,2.2s1.9,0.1,4-0.7C91.9,145.7,93.2,144.3,93.2,144.3z"/>
		</g>
		<g>
			<path class="st3" d="M99.4,146.1c0,0-0.9,0-2.5,1.4c-1.7,1.4-2.5,3.2-2.5,3.2s1.9-0.5,3.5-2C99.6,147.3,99.4,146.1,99.4,146.1z"
				/>
		</g>
		<g>
			<path class="st3" d="M87.1,115.7c0,0,0.7-1.8,0.6-4c-0.1-2.2-1-3.9-1-3.9s-0.7,1.8-0.6,4C86.2,114,87.1,115.7,87.1,115.7z"/>
		</g>
		<g>
			<path class="st3" d="M83.6,121.7c0,0,0.2-1.9-0.5-4c-0.7-2.1-2-3.5-2-3.5s-0.2,1.9,0.5,4S83.6,121.7,83.6,121.7z"/>
		</g>
		<g>
			<path class="st3" d="M82.5,128.1c0,0-0.7-1.8-2.2-3.4c-1.5-1.6-3.3-2.3-3.3-2.3s0.7,1.8,2.2,3.4
				C80.7,127.4,82.5,128.1,82.5,128.1z"/>
		</g>
		<g>
			<path class="st3" d="M83,133.5c0,0-1.2-1.5-3.2-2.4c-2-1-3.9-1-3.9-1s1.2,1.5,3.2,2.4C81,133.5,83,133.5,83,133.5z"/>
		</g>
		<g>
			<path class="st3" d="M85.7,138.9c0,0-1.7-1-3.8-1.3c-2.2-0.3-4,0.3-4,0.3s1.7,1,3.8,1.3C83.9,139.5,85.7,138.9,85.7,138.9z"/>
		</g>
		<g>
			<path class="st3" d="M90.3,143.1c0,0-1.9-0.4-4,0c-2.1,0.4-3.7,1.6-3.7,1.6s1.9,0.4,4,0C88.7,144.2,90.3,143.1,90.3,143.1z"/>
		</g>
		<g>
			<path class="st3" d="M96.9,145.5c0,0-1.9,0.2-3.8,1.3c-1.9,1.1-3,2.7-3,2.7s1.9-0.2,3.8-1.3C95.7,147,96.9,145.5,96.9,145.5z"/>
		</g>
		<path class="st3" d="M99.7,145.2c-9.8-0.7-18.6-9.8-16.7-19.5c1.2-5.9,4.2-10.9,9-13.7c-5.6,1.8-9.5,8.1-10.1,14.7
			c-1,10.1,7.8,19,17.9,20c0.8,0.1,2.9,0.7,3.7,2.9C105.8,148.1,105.2,145.6,99.7,145.2z"/>
		<g>
			<path class="st3" d="M129.3,118c0,0-1.5,0.4-3.3,0.1c-1.7-0.3-3-1.2-3-1.2s1.5-0.4,3.3-0.1S129.3,118,129.3,118z"/>
		</g>
		<g>
			<path class="st3" d="M127.1,115.8c0,0-1.6,0.1-3.2-0.5c-1.7-0.6-2.8-1.7-2.8-1.7s1.6-0.1,3.2,0.5
				C126,114.7,127.1,115.8,127.1,115.8z"/>
		</g>
		<g>
			<path class="st3" d="M131.8,124.7c0,0-1.6-0.1-3.1-1c-1.5-0.9-2.5-2.1-2.5-2.1s1.6,0.1,3.1,1
				C130.9,123.4,131.8,124.7,131.8,124.7z"/>
		</g>
		<g>
			<path class="st3" d="M131,121c0,0-1.5,0.3-3.3-0.1c-1.7-0.4-3-1.3-3-1.3s1.5-0.3,3.3,0.1C129.7,120.1,131,121,131,121z"/>
		</g>
		<g>
			<path class="st3" d="M132,131.1c0,0-1.4-0.6-2.6-1.9c-1.2-1.3-1.7-2.8-1.7-2.8s1.4,0.6,2.6,1.9S132,131.1,132,131.1z"/>
		</g>
		<g>
			<path class="st3" d="M132.3,128c0,0-1.5-0.4-2.9-1.4c-1.4-1.1-2.2-2.4-2.2-2.4s1.5,0.4,2.9,1.4C131.5,126.6,132.3,128,132.3,128z
				"/>
		</g>
		<g>
			<path class="st3" d="M130,137.3c0,0-1.2-1.1-1.9-2.7c-0.7-1.6-0.7-3.2-0.7-3.2s1.2,1.1,1.9,2.7S130,137.3,130,137.3z"/>
		</g>
		<g>
			<path class="st3" d="M131.3,134.6c0,0-1.3-0.9-2.3-2.3c-1-1.5-1.2-3-1.2-3s1.3,0.9,2.3,2.3C131,133,131.3,134.6,131.3,134.6z"/>
		</g>
		<g>
			<path class="st3" d="M125.9,141.4c0,0-0.8-1.4-0.9-3.1c-0.1-1.8,0.4-3.2,0.4-3.2s0.8,1.4,0.9,3.1
				C126.4,139.9,125.9,141.4,125.9,141.4z"/>
		</g>
		<g>
			<path class="st3" d="M128,139.5c0,0-1-1.2-1.4-2.9c-0.4-1.7-0.2-3.3-0.2-3.3s1,1.2,1.4,2.9S128,139.5,128,139.5z"/>
		</g>
		<g>
			<path class="st3" d="M120.2,144.3c0,0-0.3-1.5,0.1-3.3c0.4-1.7,1.4-3,1.4-3s0.3,1.5-0.1,3.3C121.2,143,120.2,144.3,120.2,144.3z"
				/>
		</g>
		<g>
			<path class="st3" d="M123.2,143.1c0,0-0.5-1.5-0.4-3.2c0.1-1.8,0.8-3.2,0.8-3.2s0.5,1.5,0.4,3.2
				C123.9,141.7,123.2,143.1,123.2,143.1z"/>
		</g>
		<g>
			<path class="st3" d="M113.8,146.1c0,0,0.2-1.6,1.2-3c1-1.5,2.3-2.4,2.3-2.4s-0.2,1.6-1.2,3C115.1,145.3,113.8,146.1,113.8,146.1z
				"/>
		</g>
		<g>
			<path class="st3" d="M117.3,145.6c0,0,0-1.6,0.6-3.2c0.7-1.6,1.8-2.7,1.8-2.7s0,1.6-0.6,3.2C118.4,144.5,117.3,145.6,117.3,145.6
				z"/>
		</g>
		<g>
			<path class="st3" d="M125.9,114.4c-4.6-1.4-5.2-5.8-7.3-7.2C121,107.8,125.7,109,125.9,114.4z"/>
		</g>
		<g>
			<path class="st3" d="M129.2,118.2c0,0-0.3-1.9,0.4-4c0.6-2.1,1.9-3.6,1.9-3.6s0.3,1.9-0.4,4C130.5,116.7,129.2,118.2,129.2,118.2
				z"/>
		</g>
		<g>
			<path class="st3" d="M131.9,124.7c0,0,0.4-1.9,1.6-3.7s2.9-2.8,2.9-2.8s-0.4,1.9-1.6,3.7C133.6,123.7,131.9,124.7,131.9,124.7z"
				/>
		</g>
		<g>
			<path class="st3" d="M131.9,131.2c0,0,1-1.7,2.8-3c1.8-1.3,3.7-1.7,3.7-1.7s-1,1.7-2.8,3C133.8,130.8,131.9,131.2,131.9,131.2z"
				/>
		</g>
		<g>
			<path class="st3" d="M130.2,136c0,0,1.5-1.3,3.6-1.9c2.1-0.6,4-0.4,4-0.4s-1.5,1.3-3.6,1.9C132.2,136.3,130.2,136,130.2,136z"/>
		</g>
		<g>
			<path class="st3" d="M126.3,141.2c0,0,1.8-0.7,4-0.6c2.2,0.1,3.9,1,3.9,1s-1.8,0.7-4,0.6C128,142.1,126.3,141.2,126.3,141.2z"/>
		</g>
		<g>
			<path class="st3" d="M121.2,144.3c0,0,1.9-0.1,4,0.7c2,0.8,3.4,2.2,3.4,2.2s-1.9,0.1-4-0.7C122.6,145.7,121.2,144.3,121.2,144.3z
				"/>
		</g>
		<g>
			<path class="st3" d="M115,146.1c0,0,0.9,0,2.5,1.4c1.7,1.4,2.5,3.2,2.5,3.2s-1.9-0.5-3.5-2C114.9,147.3,115,146.1,115,146.1z"/>
		</g>
		<g>
			<path class="st3" d="M127.4,115.7c0,0-0.7-1.8-0.6-4c0.1-2.2,1-3.9,1-3.9s0.7,1.8,0.6,4C128.3,114,127.4,115.7,127.4,115.7z"/>
		</g>
		<g>
			<path class="st3" d="M130.9,121.7c0,0-0.2-1.9,0.5-4c0.7-2.1,2-3.5,2-3.5s0.2,1.9-0.5,4C132.2,120.3,130.9,121.7,130.9,121.7z"/>
		</g>
		<g>
			<path class="st3" d="M132,128.1c0,0,0.7-1.8,2.2-3.4c1.5-1.6,3.3-2.3,3.3-2.3s-0.7,1.8-2.2,3.4C133.8,127.4,132,128.1,132,128.1z
				"/>
		</g>
		<g>
			<path class="st3" d="M131.5,133.5c0,0,1.2-1.5,3.2-2.4c2-1,3.9-1,3.9-1s-1.2,1.5-3.2,2.4C133.5,133.5,131.5,133.5,131.5,133.5z"
				/>
		</g>
		<g>
			<path class="st3" d="M128.8,138.9c0,0,1.7-1,3.8-1.3c2.2-0.3,4,0.3,4,0.3s-1.7,1-3.8,1.3C130.6,139.5,128.8,138.9,128.8,138.9z"
				/>
		</g>
		<g>
			<path class="st3" d="M124.2,143.1c0,0,1.9-0.4,4,0c2.1,0.4,3.7,1.6,3.7,1.6s-1.9,0.4-4,0C125.8,144.2,124.2,143.1,124.2,143.1z"
				/>
		</g>
		<g>
			<path class="st3" d="M117.6,145.5c0,0,1.9,0.2,3.8,1.3c1.9,1.1,3,2.7,3,2.7s-1.9-0.2-3.8-1.3C118.8,147,117.6,145.5,117.6,145.5z
				"/>
		</g>
		<path class="st3" d="M114.8,145.2c9.8-0.7,18.6-9.8,16.7-19.5c-1.2-5.9-4.2-10.9-9-13.7c5.6,1.8,9.5,8.1,10.1,14.7
			c1,10.1-7.8,19-17.9,20c-0.8,0.1-2.9,0.7-3.7,2.9C108.7,148.1,109.3,145.6,114.8,145.2z"/>
	</g>
	<path class="st3" d="M108.6,108.8l3.7,7.5c0.2,0.3,0.5,0.5,0.8,0.6l8.3,1.2c0.9,0.1,1.2,1.2,0.6,1.8l-6,5.9
		c-0.3,0.2-0.4,0.6-0.3,0.9l1.4,8.2c0.2,0.9-0.8,1.5-1.6,1.1l-7.4-3.9c-0.3-0.2-0.7-0.2-1,0l-7.4,3.9c-0.8,0.4-1.7-0.3-1.6-1.1
		l1.4-8.2c0.1-0.3-0.1-0.7-0.3-0.9l-6-5.9c-0.6-0.6-0.3-1.7,0.6-1.8l8.3-1.2c0.3-0.1,0.7-0.3,0.8-0.6l3.7-7.5
		C107.1,108,108.2,108,108.6,108.8z"/>
</g>
</svg>
