<?xml version="1.0" encoding="utf-8"?>
<!-- Generator: Adobe Illustrator 22.0.1, SVG Export Plug-In . SVG Version: 6.00 Build 0)  -->
<svg version="1.1" id="Layer_1" xmlns="http://www.w3.org/2000/svg" xmlns:xlink="http://www.w3.org/1999/xlink" x="0px" y="0px"
	 viewBox="0 0 100 100" style="enable-background:new 0 0 100 100;" xml:space="preserve">
<style type="text/css">
	.st0{fill:#FFFFFF;}
	.st1{fill:#E0077D;}
</style>
<g>
	<g>
		<g>
			<circle class="st0" cx="50" cy="50" r="50"/>
		</g>
	</g>
	<g>
		<path class="st1" d="M43.6,63.6l4.3,1.1c4,1,7.5,1.4,11,1c1.2-0.1,5.3-0.7,9.8-3.1c2.8-1.5,5.1-3.3,5-3.4c0-0.1-0.9,0.6-2.4,1.1
			c-1.4,0.5-2.6,0.5-4.2,0.5c-1.2,0-2.5-0.1-4.2-0.3c-4.6-0.6-7.5-1.3-14.6-3.7c-8.2-2.8-10.1-3.3-13.8-4.1c-2.9-0.6-9-1.7-16,0
			c-2.4,0.6-5.9,1.8-9.9,4.4c0.6-0.1,1.4-0.3,2.5-0.4c6.5-0.8,11.3,0.1,12.4,0.3c0.7,0.1,2.9,0.8,5,1.4l3.8,1.1
			C36.2,60.8,39.9,62.2,43.6,63.6z"/>
		<path class="st1" d="M61.1,54.2l4.3,1.1c4,1,7.5,1.4,11,1c1.2-0.1,5.3-0.7,9.8-3.1c2.8-1.5,5.1-3.3,5-3.4c0-0.1-0.9,0.6-2.4,1.1
			c-1.4,0.5-2.6,0.5-4.2,0.5c-1.2,0-2.5-0.1-4.2-0.3c-4.6-0.6-7.5-1.3-14.6-3.7C57.6,44.6,55.7,44,52,43.3c-2.9-0.6-9-1.7-16,0
			c-2.4,0.6-5.9,1.8-9.9,4.4c0.6-0.1,1.4-0.3,2.5-0.4c6.5-0.8,11.3,0.1,12.4,0.3c0.7,0.1,2.9,0.8,5,1.4l3.8,1.1
			C53.6,51.4,57.3,52.8,61.1,54.2z"/>
		<circle class="st1" cx="83.1" cy="42.4" r="8.2"/>
	</g>
</g>
</svg>
