<?xml version="1.0" encoding="utf-8"?>
<!-- Generator: Adobe Illustrator 22.0.1, SVG Export Plug-In . SVG Version: 6.00 Build 0)  -->
<svg version="1.1" id="Layer_1" xmlns="http://www.w3.org/2000/svg" xmlns:xlink="http://www.w3.org/1999/xlink" x="0px" y="0px"
	 viewBox="0 0 399.5 95.9" style="enable-background:new 0 0 399.5 95.9;" xml:space="preserve">
<style type="text/css">
	.st0{fill:#E0077D;}
	.st1{fill:#FFFFFF;}
	.st2{font-family:'NunitoSans-Black';}
	.st3{font-size:60.9406px;}
</style>
<g>
	<path class="st0" d="M118.7,79.7c-3,2.9-6.9,4.4-11.9,4.4c-5,0-8.9-1.5-11.9-4.4c-3-2.9-4.5-6.7-4.5-11.3c0-4.6,1.5-8.3,4.5-11.2
		c3-2.9,7-4.4,11.9-4.4c5,0,8.9,1.5,11.9,4.4c3,2.9,4.4,6.7,4.4,11.2C123.2,73,121.7,76.7,118.7,79.7z M106.8,76.1
		c2.1,0,3.9-0.7,5.1-2.1c1.3-1.4,1.9-3.3,1.9-5.5c0-2.3-0.6-4.1-1.9-5.6c-1.3-1.4-3-2.1-5.1-2.1c-2.2,0-3.9,0.7-5.2,2.1
		c-1.2,1.4-1.9,3.3-1.9,5.6c0,2.3,0.6,4.1,1.9,5.6S104.6,76.1,106.8,76.1z"/>
	<path class="st0" d="M127.4,84.1V41.3h9.4v42.8H127.4z"/>
	<path class="st0" d="M172.3,84.1h-11.4l-9.4-12.8v12.8h-9.4V41.3h9.4v25.6l9.6-12.3h11l-11.7,14L172.3,84.1z"/>
	<path class="st0" d="M185.6,84.8c-4.3,0-7.7-1.5-10.2-4.3s-3.7-6.6-3.7-11.2c0-4.5,1.3-8.2,3.8-11.1c2.6-2.9,5.9-4.4,10.2-4.4
		c1.9,0,3.8,0.4,5.6,1.3c1.6,0.8,2.8,2.1,3.7,3.7v-4.2h9.3V84H195v-4.2c-0.8,1.5-2.1,2.7-3.8,3.6C189.5,84.4,187.6,84.8,185.6,84.8z
		 M188.3,77.1c2.2,0,4-0.7,5.2-2.2c1.2-1.5,1.8-3.3,1.8-5.6c0-2.2-0.6-4-1.8-5.5c-1.2-1.5-3-2.2-5.2-2.2c-2.1,0-3.8,0.7-5.1,2.1
		c-1.3,1.4-1.9,3.3-1.9,5.5c0,2.3,0.6,4.2,1.9,5.6C184.5,76.3,186.2,77.1,188.3,77.1z"/>
	<g>
		<g>
			<path class="st0" d="M15.6,46.3c10.1-2.6,18.9-0.9,23.3,0c5.4,1.1,8.2,2,20.2,6c10.5,3.6,14.6,4.6,21.4,5.4
				c2.6,0.3,4.4,0.5,6.2,0.4c4.5-0.1,6.1-0.7,6.1-0.7c0.3-0.1,0.6-0.2,0.6-0.1c0.1,0.2-3.5,2.3-4.8,3.1c-6.5,3.6-12.9,4.3-13.9,4.4
				c-5.4,0.6-9.5-0.2-15.7-1.5c-3-0.6-5.4-1.3-7.2-1.8c0.1,1.5,0.1,3.8-0.1,6.6c-0.3,5.9-0.5,8.8-2.4,11.4c-1.8,2.5-4.3,3.7-5,4
				C42.9,84.4,40.5,85,39,85c-1,0-1.9,0-2.9,0c0-5,0-10,0.1-15c0-4.7,0.1-9.4,0.1-14.1c-1.4-0.4-3.5-1-6.1-1.7
				c-3.9-1.1-5.9-1.6-7.2-1.9c-7.4-1.4-13.6-0.9-17.8-0.5C4.1,51.8,3.2,52,2.6,52C7.7,48.7,12.4,47.1,15.6,46.3z"/>
			<path class="st0" d="M51.7,62.2l6.3,1.6c5.8,1.5,11,2,16.1,1.4c1.7-0.2,7.7-1,14.3-4.5c4.1-2.2,7.4-4.8,7.3-4.9
				c0-0.1-1.4,0.9-3.5,1.6c-2.1,0.7-3.7,0.7-6.1,0.7c-1.8,0-3.6-0.1-6.2-0.4c-6.8-0.8-10.9-1.9-21.4-5.4c-12-4-14.8-4.9-20.2-6
				c-4.2-0.9-13.1-2.5-23.3,0c-3.4,0.8-8.7,2.6-14.4,6.4c0.8-0.2,2.1-0.4,3.6-0.6c9.4-1.2,16.6,0.1,18.1,0.4c1,0.2,4.3,1.1,7.3,2
				l5.6,1.6C40.8,58.1,46.2,60.1,51.7,62.2z"/>
		</g>
		<g>
			<path class="st0" d="M30.5,39.6c0.8-0.3,1-0.6,1.9-1.1c0.7-0.4,1.4-0.7,1.9-0.9c0.7-0.2,1.5-0.5,2.2-0.7c0-3.9,0.1-7.8,0.1-11.7
				c0-1.6,0-3.9,0.1-6.8c0.1-6.2,0.2-6.9,0.3-7.4c1.1-4.9,6-8.2,8.8-9.1c4.4-1.5,27-1.5,34.6-0.1c6.9,1.3,12.4,4.2,16.3,8.5
				c0.7,0.8,2.6,3,4.1,6.3c3.5,7.6,4.2,18.8-1.4,25.4c-2.2,2.6-5.9,5.1-5.4,6.1c0.1,0.1,0.2,0.2,2.3,0.5c1,0.1,2.3,0.3,3.2,0.3
				c2,0.1,6.1-0.3,11.3-1.7l0,0c4.7-0.7,6.9-1.5,7-1.2c0.2,0.5-4,2.9-8.4,4.6c-2.3,0.9-6.2,2.4-11.6,2.8c-2.5,0.2-5.9,0.5-9.8-0.5
				c-4.8-1.2-5.2-3-10-5.3c-9.6-4.6-17.3-1.8-26.3-6.1c-0.5-0.2-1.2-0.6-2.4-1c-3.1-1.1-5.7-1.2-11.2-1c-8,0.3-9.3,0.2-9.3,0.2
				C28.9,39.9,29.7,39.9,30.5,39.6z M79.1,40.4c1.1-0.8,1.7-0.6,2.7-1.3c3.6-2.2,4.7-4.5,4.8-9.7c0.1-5.5-1.5-8.3-6.1-10.7
				c-2.6-1.3-4.3-1.5-15.6-1.8c-4.3-0.1-8.6-0.2-12.8-0.3c0,2.8,0,5.6-0.1,8.4c0,3,0,6.1-0.1,9.1c1.2,0,2.2,0.1,2.8,0.1
				c1.4,0.2,2.1,0.4,6.3,1.5c1.9,0.5,1.9,0.5,2.1,0.5c2.2,0.7,3.8,1.7,4.9,2.4c0.2-0.1,0.6-0.2,1.1-0.3c3.4-0.2,5.3,4.8,7.5,4.2
				C77.6,42.4,77.4,41.6,79.1,40.4z"/>
			<path class="st0" d="M76.3,50.8l6.3,1.6c5.8,1.5,11,2,16.1,1.4c1.7-0.2,7.7-1,14.3-4.5c4.1-2.2,7.4-4.8,7.3-4.9
				c0-0.1-1.4,0.9-3.5,1.6c-2.1,0.7-3.7,0.7-6.1,0.7c-1.8,0-3.6-0.1-6.2-0.4c-6.8-0.8-10.9-1.9-21.4-5.4c-12-4-14.8-4.9-20.2-6
				c-4.2-0.9-13.1-2.5-23.3,0c-3.4,0.8-8.7,2.6-14.4,6.4c0.8-0.2,2.1-0.4,3.6-0.6c9.4-1.2,16.6,0.1,18.1,0.4c1,0.2,4.3,1.1,7.3,2
				l5.6,1.6C65.4,46.8,70.9,48.8,76.3,50.8z"/>
		</g>
	</g>
	<text transform="matrix(1 0 0 1 206.6765 84.0759)" class="st1 st2 st3">Bridge</text>
	<circle class="st0" cx="282.9" cy="44" r="7.8"/>
</g>
</svg>
