<svg width="20" height="20" viewBox="0 0 20 20" fill="none" xmlns="http://www.w3.org/2000/svg">
<path d="M5.91491 8.64658L1.54724 16.8754L5.51348 16.509L7.43313 19.9994L11.8008 11.7705L5.91491 8.64658Z" fill="#E95454"/>
<path d="M6.41516 17.6033C6.53772 17.34 6.40953 17.0255 6.15316 16.8892L5.90179 16.7554C5.65043 16.6122 5.55476 16.2939 5.6917 16.0363C5.83051 15.7743 6.15691 15.6742 6.41891 15.813L7.12924 16.1901C7.34872 16.3064 7.62385 16.222 7.73703 16.0013L7.75454 15.9675C7.8846 15.7593 7.80769 15.4841 7.59134 15.3697L5.46659 14.2423C5.20772 14.1047 5.08078 13.7915 5.20147 13.5276C5.33465 13.2468 5.67106 13.1362 5.94181 13.28L7.91274 14.3261C8.13222 14.4424 8.40734 14.358 8.52365 14.1385L8.5349 14.1097L8.53803 14.1035C8.66371 13.8734 8.57555 13.5845 8.34356 13.4613L7.23805 12.8748C6.97917 12.7372 6.85224 12.424 6.9748 12.157C7.10673 11.8793 7.44439 11.7655 7.71514 11.9093L8.93634 12.5578C9.16457 12.6791 9.4372 12.5778 9.55538 12.3477C9.55726 12.3445 9.55726 12.3445 9.55851 12.3414C9.56038 12.3383 9.56038 12.3383 9.56164 12.3352C9.68607 12.1082 9.61729 11.8255 9.38843 11.7049L8.07094 11.0058C7.81519 10.8701 7.68826 10.5568 7.80894 10.293C7.94213 10.0122 8.27853 9.90152 8.54929 10.0453L11.7996 11.7705L7.43189 19.9994L6.2282 17.8115C6.30573 17.759 6.37327 17.6939 6.41516 17.6033Z" fill="#ED6362"/>
<path d="M14.085 8.64658L18.4527 16.8754L14.4864 16.509L12.5668 19.9994L8.1991 11.7705L14.085 8.64658Z" fill="#ED6362"/>
<path d="M13.5849 17.6033C13.4623 17.34 13.5905 17.0255 13.8469 16.8892L14.0982 16.7554C14.3496 16.6122 14.4453 16.2939 14.3083 16.0363C14.1695 15.7743 13.8431 15.6742 13.5811 15.813L12.8708 16.1901C12.6513 16.3064 12.3762 16.222 12.263 16.0013L12.2455 15.9675C12.1154 15.7593 12.1923 15.4841 12.4087 15.3697L14.534 14.2417C14.7929 14.1041 14.9199 13.7908 14.7992 13.527C14.666 13.2462 14.3296 13.1355 14.0588 13.2794L12.0879 14.3255C11.8684 14.4418 11.5933 14.3574 11.477 14.1379L11.4657 14.1091L11.4626 14.1029C11.3369 13.8728 11.4251 13.5839 11.6571 13.4607L12.7626 12.8742C13.0215 12.7366 13.1484 12.4233 13.0258 12.1563C12.8939 11.8787 12.5562 11.7649 12.2855 11.9087L11.063 12.5584C10.8348 12.6797 10.5622 12.5784 10.444 12.3483C10.4421 12.3452 10.4421 12.3452 10.4409 12.342C10.439 12.3389 10.439 12.3389 10.4378 12.3358C10.3133 12.1088 10.3821 11.8262 10.611 11.7055L11.9285 11.0064C12.1842 10.8707 12.3111 10.5575 12.1905 10.2936C12.0573 10.0128 11.7209 9.90215 11.4501 10.046L8.19983 11.7711L12.5675 20L13.7712 17.8121C13.6943 17.759 13.6267 17.6939 13.5849 17.6033Z" fill="#E95454"/>
<path d="M10.0001 14.5956C14.0305 14.5956 17.2979 11.3283 17.2979 7.2978C17.2979 3.26733 14.0305 0 10.0001 0C5.9696 0 2.70227 3.26733 2.70227 7.2978C2.70227 11.3283 5.9696 14.5956 10.0001 14.5956Z" fill="#FFCC5B"/>
<path d="M10.9899 6.46053H6.36522C6.00567 6.46053 5.71054 6.1654 5.71054 5.80585L5.71554 5.76083V5.75083C5.71054 5.37127 6.02006 5.06113 6.40023 5.06113H9.60549C10.0301 5.06113 10.4052 4.74661 10.4302 4.32141C10.4503 3.87682 10.0957 3.50165 9.65051 3.50165H6.25517C5.88062 3.50165 5.60048 3.18712 5.60549 2.81195C5.60549 2.80695 5.60549 2.80695 5.60549 2.80194C5.60549 2.79694 5.60549 2.79694 5.60549 2.79194C5.60048 2.41739 5.87999 2.10224 6.25517 2.10224H9.80808C10.2277 2.10224 10.6028 1.78772 10.6278 1.36752C10.6478 0.917934 10.2933 0.54776 9.8481 0.54776H7.24626C4.59314 1.6414 2.72351 4.25012 2.72351 7.2978C2.72351 10.3455 4.59314 12.9536 7.24688 14.046H10.5503C10.9699 14.046 11.3451 13.7314 11.3701 13.3112C11.3901 12.8617 11.0355 12.4921 10.5903 12.4921L6.83231 12.4915C6.38898 12.4915 6.03194 12.1207 6.0557 11.6717C6.07758 11.2515 6.45526 10.9358 6.87608 10.9358H8.33301C8.75196 10.9239 9.09024 10.5806 9.09024 10.1585C9.09024 9.72894 8.74071 9.37878 8.3105 9.37878H6.10197C5.74243 9.37878 5.44729 9.08427 5.45229 8.7241V8.66907C5.42728 8.31453 5.71241 8.01439 6.06695 8.01439H10.9449C11.3694 8.01439 11.7446 7.69987 11.7696 7.27967C11.7896 6.83071 11.4345 6.46053 10.9899 6.46053Z" fill="#FDBC4B"/>
<path d="M9.99997 12.5065C7.12737 12.5065 4.79065 10.1691 4.79065 7.29716C4.79065 4.42519 7.12737 2.08847 9.99997 2.08847C12.8726 2.08847 15.2093 4.42582 15.2093 7.29779C15.2093 10.1698 12.8726 12.5065 9.99997 12.5065Z" fill="#FFDB70"/>
<path opacity="0.2" d="M15.2092 7.29779C15.2092 4.5265 13.032 2.25981 10.2988 2.10349H9.8136C9.49345 2.10349 9.20769 2.3436 9.18831 2.66375C9.1733 3.00641 9.44343 3.28904 9.78296 3.28904L12.6493 3.28967C12.9876 3.28967 13.2596 3.5723 13.2414 3.91496C13.2246 4.23573 12.9369 4.47647 12.6155 4.47647H11.5044C11.1849 4.48585 10.9266 4.74722 10.9266 5.06925C10.9266 5.3969 11.1936 5.6639 11.5213 5.6639H13.2058C13.4803 5.6639 13.7048 5.88901 13.701 6.16289V6.20416C13.7198 6.47491 13.5028 6.70314 13.2321 6.70314H9.51221C9.18831 6.70314 8.90255 6.94325 8.88316 7.2634C8.86816 7.60606 9.13828 7.8887 9.47782 7.8887H13.0045C13.279 7.8887 13.5034 8.1138 13.5034 8.38768L13.4997 8.42207V8.42958C13.5034 8.71909 13.2671 8.95545 12.9776 8.95545H10.5327C10.2088 8.95545 9.92302 9.19556 9.90364 9.51946C9.88863 9.85837 10.1588 10.1448 10.4983 10.1448H13.0876C13.3734 10.1448 13.5866 10.3849 13.5829 10.6706C13.5829 10.6744 13.5829 10.6744 13.5829 10.6781C13.5829 10.6819 13.5829 10.6819 13.5829 10.6856C13.5866 10.9714 13.3734 11.2115 13.0876 11.2115H10.3782C10.0581 11.2115 9.77233 11.4516 9.75295 11.7718C9.73794 12.1151 10.0081 12.3971 10.3476 12.3971H11.0623C13.4278 11.9043 15.2092 9.80522 15.2092 7.29779Z" fill="white"/>
<path d="M13.6367 6.14413H11.103L10.3195 3.73425C10.2188 3.42473 9.7805 3.42473 9.67982 3.73425L8.89696 6.14413H6.36327C6.03749 6.14413 5.9018 6.5612 6.16568 6.75254L8.21539 8.24199L7.43252 10.6519C7.33185 10.9614 7.68639 11.219 7.95026 11.0277L9.99997 9.53823L12.0497 11.0277C12.3136 11.219 12.6681 10.9614 12.5674 10.6519L11.7846 8.24199L13.8343 6.75254C14.0975 6.5612 13.9625 6.14413 13.6367 6.14413Z" fill="#EC9922"/>
</svg>
