<svg width="210" height="244" viewBox="0 0 210 244" fill="none" xmlns="http://www.w3.org/2000/svg">
<path opacity="0.2" d="M102.7 243.1C154.394 243.1 196.3 240.996 196.3 238.4C196.3 235.804 154.394 233.7 102.7 233.7C51.0062 233.7 9.1001 235.804 9.1001 238.4C9.1001 240.996 51.0062 243.1 102.7 243.1Z" fill="#7A7F7F"/>
<path d="M121.5 167.5H85.4001V175.5H121.5V167.5Z" fill="#F7BB3D"/>
<path opacity="0.2" d="M98.1001 175.5H108.7L115 167.5H104.8C102.6 170.1 100.2 172.9 98.1001 175.5Z" fill="#F2F3F7"/>
<path opacity="0.2" d="M87.2002 175.5H92.6002C94.4002 173 96.6002 170 98.4002 167.5H93.1002L87.2002 175.5Z" fill="#F2F3F7"/>
<path d="M114.4 140H103.7H103.3H92.6001C92.3001 140.1 94.4001 142.8 96.1001 145.1C97.6001 147.1 98.4001 149.5 98.4001 152V164.6L103.4 164.7L108.4 164.6V152C108.4 149.5 109.2 147.1 110.7 145.1C112.6 142.9 114.6 140.1 114.4 140Z" fill="#FFB925"/>
<path opacity="0.3" d="M97.1 146.4H109.9C111.7 144 114.7 140.1 114.4 140H103.7H103.3H92.6C92.3 140.1 95.3 144.1 97.1 146.4Z" fill="#D37856"/>
<path d="M44.4001 97.7C44.4001 103.1 47.3001 108.2 52.1001 110.9L69.0001 120.4C69.4001 120.6 69.7001 121 69.8001 121.5C69.9001 122 69.9001 122.4 69.6001 122.8C69.1001 123.6 68.2001 123.9 67.3001 123.5L63.7001 121.8C62.8001 121.4 61.7001 121.8 61.2001 122.7C60.8001 123.6 61.2001 124.7 62.1001 125.2L65.7001 126.9C66.5001 127.3 67.3001 127.4 68.0001 127.4C69.9001 127.4 71.7001 126.4 72.7001 124.7C73.5001 123.4 73.7001 121.9 73.3001 120.5C72.9001 119.1 72.0001 117.9 70.7001 117.2L53.8001 107.7C50.2001 105.7 48.0001 101.9 48.0001 97.7C48.0001 94.6 49.2001 91.8 51.4001 89.6C53.6001 87.4 56.5001 86.3 59.5001 86.3C62.8001 86.3 65.4001 86.3 67.3001 86.3C71.4001 86.3 71.5001 86.3 72.1001 85.7C72.4001 85.4 72.6001 84.9 72.6001 84.4C72.6001 83.4 71.8001 82.6 70.8001 82.6C70.7001 82.6 70.6001 82.6 70.4001 82.6C69.9001 82.6 67.9001 82.7 59.5001 82.6C59.5001 82.6 59.5001 82.6 59.4001 82.6C55.4001 82.6 51.6001 84.2 48.7001 87C46.0001 89.9 44.4001 93.7 44.4001 97.7ZM69.8001 82.8C70.0001 82.7 70.1001 82.6 70.3001 82.5C70.1001 82.6 70.0001 82.7 69.8001 82.8Z" fill="#F7BB3D"/>
<path opacity="0.2" d="M68.9003 120.4L65.3003 118.3V114.1L70.7003 117.2C72.0003 117.9 72.9003 119.1 73.3003 120.5C73.7003 121.9 73.5003 123.4 72.7003 124.7C71.7003 126.4 69.9003 127.4 68.0003 127.4C67.2003 127.4 66.4003 127.2 65.7003 126.9L65.3003 126.7V122.6L67.3003 123.6C68.1003 124 69.1003 123.7 69.6003 122.9C69.8003 122.5 69.9003 122 69.8003 121.6C69.6003 121 69.3003 120.7 68.9003 120.4Z" fill="#D37856"/>
<path opacity="0.2" d="M70.8002 82.5C70.7002 82.5 70.6002 82.5 70.4002 82.5C70.1002 82.5 68.9002 82.6 65.2002 82.6V86.3C66.0002 86.3 66.6002 86.3 67.2002 86.3C71.3002 86.3 71.4002 86.3 72.0002 85.7C72.3002 85.4 72.5002 84.9 72.5002 84.4C72.7002 83.3 71.9002 82.5 70.8002 82.5ZM70.3002 82.6C70.1002 82.7 69.9002 82.7 69.8002 82.9C70.0002 82.7 70.1002 82.6 70.3002 82.6Z" fill="#D37856"/>
<path d="M156.6 87C153.7 84.2 150 82.6 145.9 82.6C145.9 82.6 145.9 82.6 145.8 82.6C137.4 82.6 135.4 82.6 134.9 82.6C134.8 82.6 134.7 82.6 134.5 82.6C133.5 82.6 132.7 83.4 132.7 84.4C132.7 84.9 132.9 85.4 133.2 85.7C133.8 86.3 133.9 86.3 138 86.3C139.9 86.3 142.5 86.3 145.8 86.3C148.9 86.3 151.7 87.5 153.9 89.6C156.1 91.8 157.3 94.6 157.3 97.7C157.3 101.8 155.1 105.6 151.5 107.7L134.6 117.2C133.3 117.9 132.4 119.1 132 120.5C131.6 121.9 131.8 123.4 132.6 124.7C133.6 126.4 135.4 127.4 137.3 127.4C138.1 127.4 138.9 127.2 139.6 126.9L143.2 125.2C144.1 124.8 144.5 123.7 144.1 122.7C143.7 121.8 142.6 121.4 141.6 121.8L138 123.5C137.2 123.9 136.2 123.6 135.7 122.8C135.5 122.4 135.4 121.9 135.5 121.5C135.6 121 135.9 120.7 136.3 120.4L153.2 110.9C157.9 108.2 160.9 103.2 160.9 97.7C161 93.7 159.4 89.9 156.6 87ZM135.1 82.6C135.3 82.6 135.5 82.7 135.6 82.9C135.4 82.7 135.3 82.6 135.1 82.6Z" fill="#F7BB3D"/>
<path opacity="0.2" d="M136.5 120.4L140.1 118.3V114.1L134.7 117.2C133.4 117.9 132.5 119.1 132.1 120.5C131.7 121.9 131.9 123.4 132.7 124.7C133.7 126.4 135.5 127.4 137.4 127.4C138.2 127.4 139 127.2 139.7 126.9L140.1 126.7V122.6L138.1 123.6C137.3 124 136.3 123.7 135.8 122.9C135.6 122.5 135.5 122 135.6 121.6C135.8 121 136.1 120.7 136.5 120.4Z" fill="#D37856"/>
<path opacity="0.2" d="M132.7 84.4C132.7 84.9 132.9 85.4 133.2 85.7C133.8 86.3 133.9 86.3 138 86.3C138.6 86.3 139.3 86.3 140 86.3V82.6C136.3 82.6 135.1 82.6 134.8 82.5C134.7 82.5 134.6 82.5 134.4 82.5C133.5 82.5 132.7 83.3 132.7 84.4ZM135.6 82.8C135.4 82.7 135.3 82.6 135.1 82.5C135.3 82.6 135.4 82.7 135.6 82.8Z" fill="#D37856"/>
<path d="M136.4 78.4H70C66.4 78.4 63.5 75.5 63.5 71.9C63.5 68.3 66.4 65.4 70 65.4H136.4C140 65.4 142.9 68.3 142.9 71.9C142.9 75.5 140 78.4 136.4 78.4Z" fill="#FFD63F"/>
<path d="M104.7 78.4H101.8H71.5V113.3C71.5 130 85.1 143.6 101.8 143.6H104.7C121.4 143.6 135 130 135 113.3V78.4H104.7Z" fill="#FFD63F"/>
<path d="M116 164.4H91V167.5H116V164.4Z" fill="#FFD63F"/>
<path opacity="0.2" d="M135.1 78.4H71.5V81.7H135.1V78.4Z" fill="#D37856"/>
<path opacity="0.2" d="M102.3 78.4H122.6L127.3 65.5H107C105.6 69.2 104 73.5 102.3 78.4Z" fill="white"/>
<path opacity="0.2" d="M98.7002 143.4L122.6 78.3H104.7H102.3C96.0002 95.3 87.8002 117.8 81.2002 135.5C85.9002 139.9 92.0002 142.8 98.7002 143.4Z" fill="white"/>
<path opacity="0.2" d="M83.9001 78.4H94.0001L98.7001 65.5H88.3001L83.9001 78.4Z" fill="white"/>
<path opacity="0.2" d="M71.5 114.6C71.7 119.6 73.1 124.3 75.5 128.4L94 78.4H83.9L71.5 114.6Z" fill="white"/>
<path d="M104.3 89.1L107.4 95.4L114.3 96.4L109.3 101.3L110.5 108.2L104.3 104.9L98.1 108.2L99.3 101.3L94.3 96.4L101.2 95.4L104.3 89.1Z" fill="#FF9A00"/>
<path d="M117.3 104.4L118.5 106.9L121.2 107.3L119.3 109.2L119.7 111.9L117.3 110.6L114.8 111.9L115.3 109.2L113.3 107.3L116.1 106.9L117.3 104.4Z" fill="#FF9A00"/>
<path d="M91.4001 104.4L92.6001 106.9L95.3001 107.3L93.3001 109.2L93.8001 111.9L91.4001 110.6L88.9001 111.9L89.4001 109.2L87.4001 107.3L90.1001 106.9L91.4001 104.4Z" fill="#FF9A00"/>
<path d="M135 226.4H71.5V192.7C71.5 181 81 171.4 92.8 171.4H113.8C125.5 171.4 135.1 180.9 135.1 192.7V226.4H135Z" fill="#FFB925"/>
<path opacity="0.2" d="M104.7 143.6C121.4 143.6 135 130 135 113.3V111.8C131.8 119.5 122.1 133.7 93.6001 142.4C96.2001 143.1 99.0001 143.5 101.8 143.5H104.7V143.6Z" fill="#D37856"/>
<path d="M103 5.5H102.4H38.6001L70.9001 65.5H102.4H103H134.5L166.8 5.5H103Z" fill="url(#paint0_linear)"/>
<path opacity="0.2" d="M108.5 164.4V152.4C108.5 151.9 108.5 151.4 108.6 150.9C105.6 153.2 101.7 156.4 98.4001 159V164.4H108.5Z" fill="#D37856"/>
<path opacity="0.2" d="M104 164.4L98.4001 167.5H116V164.4H104Z" fill="#D37856"/>
<path opacity="0.2" d="M103.8 226.7L132.4 182.3C128.7 176 121.9 171.8 114.1 171.8H110.6L74 226.8H103.8V226.7Z" fill="#F2F3F7"/>
<path opacity="0.2" d="M71.5 209.7V221.9C80.7 207.8 96.4 183.8 104.9 171.5H97.5L71.5 209.7Z" fill="#F2F3F7"/>
<path d="M120.4 182.7H86.6001V211H120.4V182.7Z" fill="#F2F3F5"/>
<path d="M146.5 224.1H60.5V238.4H146.5V224.1Z" fill="#FF9A00"/>
<path opacity="0.2" d="M135 218.7H71.5V224.1H135V218.7Z" fill="#FF9A00"/>
<path opacity="0.2" d="M117 182.7V207H86.6001V211H117H120.4V207V182.7H117Z" fill="#404041"/>
<path d="M90.7001 196.7C91.1001 195.8 94.7001 188.6 96.4001 191.1C96.6001 191.4 95.4001 195.1 95.5001 196.1C95.6001 196.6 96.2001 197 96.6001 196.6C97.7001 195.6 98.7001 194.5 99.8001 193.5C99.4001 193.3 99.0001 193.2 98.7001 193C98.7001 193.4 98.7001 193.9 98.6001 194.3C98.6001 194.8 99.2001 195.1 99.6001 194.9C99.8001 194.8 101.8 195 101.9 194.6C101.9 195.1 102.5 195.4 102.9 195.2C104 194.1 105 194 106 194.9C106.1 195.2 106.6 195.3 106.9 195.1C108.6 193.9 108.2 195.6 109.3 195.8C111.1 196.1 112.9 195.9 114.6 195.7C115.4 195.6 115.4 194.3 114.6 194.4C112.4 194.6 111.2 194.5 109.3 194C109.2 194 109.2 193.6 109 193.6C108.4 193.5 106.6 193.3 106.4 193C106.3 192.7 105.9 192.6 105.7 192.7C104.4 193.1 103.3 193.5 102.1 194.1C102.4 194.3 102.8 194.5 103.1 194.7C103.1 194.5 103.1 194.4 103.1 194.2C103.1 194 103 193.7 102.8 193.6C102.8 193.6 99.9001 192.8 100.6 193.5C100.4 193.3 100.1 193.3 99.8001 193.4C99.5001 193.6 99.2001 193.7 98.9001 193.9C99.2001 194.1 99.6001 194.3 99.9001 194.5C99.9001 194.1 99.9001 193.6 100 193.2C100 192.6 99.3001 192.3 98.9001 192.7C97.8001 193.7 96.8001 194.8 95.7001 195.8C96.1001 196 96.5001 196.1 96.8001 196.3C96.5001 193.7 98.9001 190.8 97.6001 188.4C97.5001 188.1 97.1001 188 96.9001 188.1C93.5001 188.8 90.9001 193.5 89.6001 196.4C89.2001 196.8 90.3001 197.5 90.7001 196.7Z" fill="#404041"/>
<path d="M106 16.7C105.5 18.3 104.4 19.6999 102.9 20.4C103.8 21.0999 104.7 21.8 105.7 22.5C107.1 21.1 108.4 19.8 109.8 18.4C108.8 17.6999 107.8 16.9 106.8 16.2" fill="#FE3638"/>
<path d="M73.3001 13C74.1001 14.4 74.6001 16.1 74.5001 17.8C75.8001 17 77.3001 16.4 78.7001 15.9C77.6001 13.9 76.8001 11.8 76.3001 9.59998C75.1001 10.4 73.9001 11.1 72.6001 11.7C72.7001 12.4 72.9001 13.1 73.0001 13.8" fill="#11A6EC"/>
<path d="M48.5 37.5C48.5 38.6 47.6 39.5 46.5 39.5C45.4 39.5 44.5 38.6 44.5 37.5C44.5 36.4 45.4 35.5 46.5 35.5C47.5 35.5 48.5 36.4 48.5 37.5Z" fill="#FFD63F"/>
<path d="M158.9 39.7C158.9 39.6 158.9 39.4 158.9 39.3C158.9 38.2 158 37.2 156.9 37.3C155.8 37.3 154.9 38.2 154.9 39.3C154.9 39.4 154.9 39.6 154.9 39.7C154.9 40.8 155.8 41.8 156.9 41.7C157.9 41.7 158.9 40.9 158.9 39.7Z" fill="#FFD63F"/>
<path d="M56.7 152.5C56.6 152.4 56.4 152.2 56.3 152.1C55.6 151.4 54.2 151.3 53.4 152.1C52.7 152.9 52.6 154.2 53.4 155C53.5 155.1 53.7 155.3 53.8 155.4C54.5 156.1 55.9 156.2 56.7 155.4C57.5 154.6 57.5 153.3 56.7 152.5Z" fill="#FFD63F"/>
<path d="M160.9 157.9C160.9 157.8 160.9 157.6 160.9 157.5C160.9 156.4 160 155.4 158.9 155.5C157.8 155.5 156.9 156.4 156.9 157.5C156.9 157.6 156.9 157.8 156.9 157.9C156.9 159 157.8 160 158.9 159.9C160 159.8 160.9 159 160.9 157.9Z" fill="#FFD63F"/>
<path d="M33.1001 91.1C35.7001 91.1 35.7001 87.1 33.1001 87.1C30.5001 87.1 30.5001 91.1 33.1001 91.1Z" fill="#FFD63F"/>
<path d="M207.8 83.7C210.4 83.7 210.4 79.7 207.8 79.7C205.2 79.6 205.2 83.7 207.8 83.7Z" fill="#FFD63F"/>
<path d="M16.9002 56.9C16.7002 56.8 16.6002 53.6 16.6002 53.2C16.5002 52.5 16.4002 51.9 16.3002 51.2C16.2002 50.7 16.0002 50.2 16.3002 49.7C15.1002 50 13.9002 49.8 12.7002 49.6C12.7002 52.2 12.8002 54.7 12.8002 57.3C13.9002 56.6 15.5002 56.4 16.9002 56.9Z" fill="#FE3638"/>
<path d="M20.4001 67.2C20.6001 67.9 20.7001 68.7 20.6001 69.5C22.5001 69.7 24.3001 68.8 26.0001 68C26.6001 67.7 27.3001 67.3 27.3001 66.6C27.3001 65.9 25.3001 64.2 24.7001 64.2C24.2001 64.2 23.3001 65.5 22.8001 65.9C22.1001 66.5 21.3001 66.9 20.4001 67.2Z" fill="#1BB3F9"/>
<path d="M174.9 63C172.8 64.7 170.6 66.1 168.3 67.3C168.6 67.7 171.8 71.2 171.8 71.2C174.9 68.6 178.3 66.4 182 64.7C180.3 63.8 178.8 62.6 177.6 61.1" fill="#FE3638"/>
<path d="M191.6 69.6C193.2 69.3 194.8 69.2 196.5 69.1C196.6 68 196.7 66.9 196.8 65.7C197 63.6 197.1 61.6 197.3 59.5C197.3 59.5 193.7 59.9 193.2 60.3C192.4 60.9 192.4 61.5 192.3 62.4C191.7 65.1 192.7 67.2 191.6 69.6Z" fill="#11A6EC"/>
<path d="M194.2 102.9C193.6 101.4 193.3 99.9 193.1 98.3C193 97.5 193 96.7 193 95.9C193 95.7 193.1 93.8 193.1 93.8C191.8 93.4 190.4 93.2 189 93.3C188.9 94.2 188.9 95.2 188.8 96.1C188.8 96.8 188.8 97.5 188.8 98.2C188.8 99.1 188.8 99.9 189 100.8C189 101 189.5 103.3 189.6 103.2C191.2 102.9 192.7 102.8 194.2 102.9Z" fill="#FE3638"/>
<path d="M202.3 119.6C203.1 120 203.6 120.8 203.8 121.6C205.7 120.5 207.6 119.4 209.5 118.2C208.3 116.3 208 115.3 206.2 116.5C205.5 116.8 203.4 120.1 202.3 119.6Z" fill="#11A6EC"/>
<path d="M10.4001 96.2C11.1001 96.7 11.5001 97.5 11.6001 98.3C13.8001 97.3 15.8001 95.9 17.4001 94.2C16.9001 94.7 15.5001 92.7 15.3001 92.6C14.5001 92.1 15.1001 91.8 14.3001 92.5C12.8001 93.7 12.7001 95.7 10.4001 96.2Z" fill="#FE3638"/>
<path d="M8.00012 115.8C7.90012 117.5 7.70012 119.1 7.60012 120.8C5.30012 120.4 2.90012 120 0.600115 119.6C0.400115 119.6 0.300115 119.5 0.200115 119.4C0.100115 119.3 0.100115 119.1 0.100115 119C0.000115238 116.9 0.100115 114.6 0.900115 112.6C2.50012 114.5 5.10012 116.6 8.00012 115.8Z" fill="#1BB3F9"/>
<path d="M139.5 139.8C139.1 140.3 138.7 140.7 138.2 141.2C137.5 142 136.7 142.9 135.6 143.1C136 143.4 136.3 143.8 136.4 144.2C138.2 143.7 139.9 143 141.4 142C140.8 141.3 140.3 140.7 139.7 140" fill="#FE3638"/>
<path d="M134.2 154.2C135.2 154.8 136.4 155.1 137.5 155.2C137.1 155.8 136.8 156.4 136.7 157.1C135.2 156.5 133.7 156.2 132.1 156C132.5 155.3 132.7 154.6 132.8 153.8C133.6 154.1 134.4 154.3 135.2 154.4" fill="#11A6EC"/>
<path d="M38.1 129.2C37.3 131 36.3 132.6 35 134C36.3 134.5 37.5 135.2 38.5 136.1C38.9 134 39.9 132.1 41.3 130.6C40.2 130.6 39.1 130.4 38 130.1C37.8 130.1 37.7 130 37.6 129.8C37.5 129.7 37.7 129.4 37.8 129.6" fill="#FE3638"/>
<path d="M34.6001 142.7C34.8001 143.4 34.9001 144.2 35.1001 144.9C37.1001 144 39.2001 143.3 41.1001 142.4C40.1001 141.2 40.5001 140.1 38.8001 140.9C38.6001 141 34.8001 143.2 34.6001 142.7Z" fill="#11A6EC"/>
<path d="M127.4 2.4C127.2 3.8 127.5 5.3 128.2 6.5C128.3 6.7 128.4 6.8 128.6 6.9C128.8 7 129 6.9 129.1 6.9C130.3 6.6 131.4 6.3 132.6 5.9C131.4 4.2 131 2 131.5 0C130.2 0.1 128.9 0.2 127.7 0.3C127.7 1.4 127.7 2.6 127.7 3.7" fill="#FE3638"/>
<path d="M140 9.6C139.7 10.3 139.6 11.1 139.4 11.9C139.2 12.7 138.7 13.4 138 13.7C138.8 14 139.6 14.3 140.5 14.5C140.9 12.9 141.5 11.4 142.3 9.9C141.6 9.8 141 9.6 140.3 9.5" fill="#11A6EC"/>
<defs>
<linearGradient id="paint0_linear" x1="102.704" y1="89.7422" x2="103" y2="13.5" gradientUnits="userSpaceOnUse">
<stop stop-color="#F98100"/>
<stop offset="0.435391" stop-color="#F9C58C" stop-opacity="0.2039"/>
<stop offset="1" stop-color="#F9FBFC" stop-opacity="0"/>
</linearGradient>
</defs>
</svg>
