<svg width="14" height="12" viewBox="0 0 14 12" fill="none" xmlns="http://www.w3.org/2000/svg">
<path fill-rule="evenodd" clip-rule="evenodd" d="M4.39829 6.00008C4.39829 7.4223 5.56252 8.57947 6.99992 8.57947C8.43081 8.57947 9.59504 7.4223 9.59504 6.00008C9.59504 4.57139 8.43081 3.41422 6.99992 3.41422C5.56252 3.41422 4.39829 4.57139 4.39829 6.00008ZM10.8243 2.03079C11.9625 2.90998 12.9316 4.19644 13.6276 5.80614C13.6796 5.92897 13.6796 6.07119 13.6276 6.18756C12.2357 9.40695 9.75764 11.3334 6.99992 11.3334H6.99341C4.2422 11.3334 1.76415 9.40695 0.372276 6.18756C0.320244 6.07119 0.320244 5.92897 0.372276 5.80614C1.76415 2.58675 4.2422 0.666748 6.99341 0.666748H6.99992C8.37878 0.666748 9.6861 1.14513 10.8243 2.03079ZM7.0007 7.60835C7.89175 7.60835 8.62021 6.88431 8.62021 5.99865C8.62021 5.10653 7.89175 4.38249 7.0007 4.38249C6.92265 4.38249 6.8446 4.38896 6.77306 4.40189C6.74704 5.113 6.16167 5.68189 5.43972 5.68189H5.4072C5.38769 5.78532 5.37468 5.88875 5.37468 5.99865C5.37468 6.88431 6.10314 7.60835 7.0007 7.60835Z" fill="#7A7F7F"/>
</svg>
