<?xml version="1.0" encoding="UTF-8"?>
<svg width="734px" height="179px" viewBox="0 0 734 179" version="1.1" xmlns="http://www.w3.org/2000/svg" xmlns:xlink="http://www.w3.org/1999/xlink">
    <title>编组 2</title>
    <defs>
        <path d="M0.15,74.92 L94.3,75.68 C94.3,75.68 115.08,78.32 132.83,93.91 C133.84,94.79 137.79,93.91 137.79,93.91 L137.31,0.41 L0.15,0.57 L0.15,74.92" id="path-1"></path>
    </defs>
    <g id="页面-1" stroke="none" stroke-width="1" fill="none" fill-rule="evenodd">
        <g id="BitMart_logo" transform="translate(-1270.000000, -1544.000000)">
            <g id="编组-2" transform="translate(1270.000000, 1544.000000)">
                <g id="编组">
                    <mask id="mask-2" fill="white">
                        <use xlink:href="#path-1"></use>
                    </mask>
                    <g id="Clip-78"></g>
                    <path d="M117.79,21.47 C106.59,12.25 91.18,7.63 71.56,7.63 C45.33,7.63 33.7,7.63 22.68,7.63 L22.68,14.46 C22.68,14.46 49.21,14.46 70.66,14.46 C87.34,14.46 102.44,17.9 111.66,25.86 C120.88,33.83 127.87,45.69 127.87,60.33 C127.87,74.46 121.82,84.93 112.23,92.85 C102.64,100.77 85.54,104.26 68.42,104.26 C47.99,104.26 13.3,104.26 13.3,104.26 L13.3,111.09 C13.3,111.09 60.23,111.08 68.8,111.08 C89.45,111.08 105.58,106.59 117.19,97.63 C128.8,88.66 134.6,76.05 134.6,59.78 C134.6,43.47 129,30.7 117.79,21.47" id="Fill-77" fill="#1C1E1D" mask="url(#mask-2)"></path>
                    <path d="M113.65,31.37 C106.68,26.08 98.67,21.82 76.01,21.82 C51.57,21.83 48.58,21.82 38.31,21.82 L38.31,28.48 C38.31,28.48 55.18,28.26 75.17,28.48 C94.49,28.68 101.58,30.86 108.08,35.67 C116.4,41.82 121.56,49.41 121.56,60.03 C121.56,70.27 116.32,77.52 107.96,83.67 C99.41,89.97 86.34,90.04 81.02,90.16 C79.01,90.21 53.03,90.16 53.03,90.16 L53.03,96.82 C53.03,96.82 65.96,97 73.95,96.81 C92.29,96.4 103.17,95.31 113.3,87.78 C122.81,80.73 127.84,71.42 127.84,59.63 C127.84,44.08 120.06,36.24 113.65,31.37" id="Fill-79" fill="#1C1E1D" mask="url(#mask-2)"></path>
                    <path d="M110.28,40.16 C105.05,36.88 100.46,34.67 78.81,34.67 C56.81,34.67 60.96,34.67 51.71,34.67 L51.71,39.05 C51.71,39.05 60.07,39.05 78.06,39.05 C97.24,39.05 104.51,42.46 106.71,43.81 C111.02,46.45 116.7,50.75 116.7,59.51 C116.7,65.11 113.39,72.14 108.5,74.9 C104.04,77.41 95.89,79.66 81.53,79.66 C79.72,79.66 -6.99,79.66 -6.99,79.66 L-6.99,84.04 C-6.99,84.04 74.66,84.04 81.86,84.04 C99.17,84.04 105.11,82.12 111.21,78.75 C117.33,75.38 121.41,68.45 121.41,59.55 C121.41,49.61 115.86,43.65 110.28,40.16" id="Fill-80" fill="#1C1E1D" mask="url(#mask-2)"></path>
                </g>
                <path d="M127.51,88.48 C116.31,79.25 100.89,74.64 81.28,74.64 C55.04,74.64 59.61,74.63 48.58,74.63 L48.58,81.46 C48.58,81.46 58.92,81.46 80.37,81.46 C97.05,81.46 112.16,84.9 121.38,92.86 C130.6,100.83 137.58,112.69 137.58,127.34 C137.58,141.46 131.54,151.93 121.95,159.85 C112.36,167.77 95.25,171.26 78.13,171.26 C57.71,171.26 23.02,171.26 23.02,171.26 L23.02,178.09 C23.02,178.09 69.94,178.08 78.52,178.08 C99.17,178.08 115.29,173.6 126.9,164.63 C138.51,155.67 144.32,143.05 144.32,126.79 C144.32,110.47 138.72,97.7 127.51,88.48" id="Fill-81" fill="#1C1E1D"></path>
                <path d="M123.37,98.37 C116.4,93.09 108.39,88.82 85.73,88.82 C61.28,88.83 44.75,88.82 34.48,88.82 L34.48,95.48 C34.48,95.48 64.89,95.26 84.89,95.48 C104.21,95.68 111.29,97.86 117.79,102.67 C126.12,108.83 131.28,116.41 131.28,127.03 C131.28,137.27 126.04,144.52 117.68,150.68 C109.13,156.97 96.06,157.05 90.73,157.17 C88.72,157.21 62.74,157.17 62.74,157.17 L62.74,163.82 C62.74,163.82 75.67,164 83.67,163.82 C102,163.4 112.89,162.31 123.02,154.79 C132.52,147.73 137.55,138.42 137.55,126.63 C137.55,111.09 129.78,103.24 123.37,98.37" id="Fill-82" fill="#1C1E1D"></path>
                <polygon id="Fill-83" fill="#1C1E1D" points="45.45 120.97 93.48 120.97 93.48 117.25 45.45 117.25"></polygon>
                <polygon id="Fill-84" fill="#1C1E1D" points="65.26 133.98 93.2 133.98 93.2 130.78 65.26 130.78"></polygon>
                <polygon id="Fill-85" fill="#1C1E1D" points="23.02 120.97 37.25 120.97 37.25 117.25 23.02 117.25"></polygon>
                <polygon id="Fill-86" fill="#1C1E1D" points="14.15 134.24 57.37 134.24 57.37 130.52 14.15 130.52"></polygon>
                <polygon id="Fill-87" fill="#1C1E1D" points="24.8 38.76 41.64 38.76 41.64 35.69 24.8 35.69"></polygon>
                <polygon id="Fill-88" fill="#1C1E1D" points="13.07 63.66 51.64 63.66 51.64 60.09 13.07 60.09"></polygon>
                <polygon id="Fill-89" fill="#1C1E1D" points="14.15 163.36 54.82 163.36 54.82 158.9 14.15 158.9"></polygon>
                <polygon id="Fill-90" fill="#1C1E1D" points="4.01 177.82 14.18 177.82 14.18 171.36 4.01 171.36"></polygon>
                <polygon id="Fill-91" fill="#1C1E1D" points="29.43 52.76 93.29 52.76 93.29 49.19 29.43 49.19"></polygon>
                <polygon id="Fill-92" fill="#1C1E1D" points="61.36 63.66 92.08 63.66 92.08 60.09 61.36 60.09"></polygon>
                <path d="M120,107.83 C114.76,104.66 110.17,102.53 88.53,102.53 C66.53,102.53 63.24,102.53 54,102.53 L54,106.76 C54,106.76 69.78,106.76 87.77,106.76 C106.95,106.76 114.23,110.05 116.43,111.36 C120.73,113.91 126.42,118.05 126.42,126.51 C126.42,131.92 123.11,138.7 118.21,141.36 C113.75,143.79 105.6,145.96 91.24,145.96 C89.43,145.96 2.73,145.96 2.73,145.96 L2.73,150.19 C2.73,150.19 84.38,150.18 91.57,150.18 C108.89,150.18 114.83,148.33 120.93,145.08 C127.04,141.82 131.12,135.13 131.12,126.54 C131.12,116.95 125.58,111.2 120,107.83" id="Fill-93" fill="#1C1E1D"></path>
                <path d="M210.95,98.27 L210.95,137.19 L232.21,137.19 C241.4,137.19 248.53,135.43 253.6,131.91 C258.66,128.39 261.19,123.56 261.19,117.43 C261.19,104.65 250.44,98.27 228.94,98.27 L210.95,98.27 Z M210.95,51.94 L210.95,86.87 L226.99,86.87 C235.56,86.87 242.3,85.2 247.21,81.86 C252.12,78.51 254.58,73.8 254.58,67.71 C254.58,57.2 246.03,51.94 228.94,51.94 L210.95,51.94 Z M195.29,148.66 L195.29,40.48 L233.33,40.48 C244.88,40.48 254.05,42.77 260.82,47.34 C267.59,51.92 270.98,57.88 270.98,65.22 C270.98,71.36 268.93,76.69 264.83,81.22 C260.73,85.74 255.07,88.96 247.87,90.87 L247.87,91.17 C256.88,92.03 264.08,94.78 269.49,99.43 C274.9,104.09 277.6,110.14 277.6,117.58 C277.6,126.83 273.5,134.33 265.3,140.06 C257.09,145.79 246.75,148.66 234.26,148.66 L195.29,148.66 L195.29,148.66 Z" id="Fill-94" fill="#1C1E1D"></path>
                <path d="M295.04,148.66 L310.32,148.66 L310.32,71.41 L295.04,71.41 L295.04,148.66 Z M302.87,51.79 C300.13,51.79 297.8,51.04 295.88,49.53 C293.95,48.02 292.99,46.11 292.99,43.8 C292.99,41.48 293.95,39.56 295.88,38.02 C297.8,36.49 300.13,35.72 302.87,35.72 C305.66,35.72 308.04,36.49 310,38.02 C311.96,39.56 312.93,41.48 312.93,43.8 C312.93,46.01 311.96,47.9 310,49.45 C308.04,51.01 305.66,51.79 302.87,51.79 L302.87,51.79 Z" id="Fill-95" fill="#1C1E1D"></path>
                <path d="M377.91,147.91 C374.3,149.52 369.55,150.32 363.65,150.32 C346.93,150.32 338.57,142.78 338.57,127.69 L338.57,81.97 L322.17,81.97 L322.17,71.41 L338.57,71.41 L338.57,52.55 L353.86,48.55 L353.86,71.41 L377.91,71.41 L377.91,81.97 L353.86,81.97 L353.86,125.5 C353.86,130.68 354.95,134.38 357.12,136.59 C359.3,138.8 362.9,139.91 367.94,139.91 C371.79,139.91 375.11,139.06 377.91,137.34 L377.91,147.91" id="Fill-96" fill="#1C1E1D"></path>
                <path d="M516.7,148.66 L502.38,148.66 L502.38,81.9 C502.38,76.62 502.78,70.17 503.58,62.53 L503.24,62.53 C501.87,67.02 500.63,70.23 499.55,72.18 L457.53,148.66 L450.5,148.66 L408.57,72.73 C407.37,70.51 406.14,67.11 404.88,62.53 L404.54,62.53 C405,66.51 405.23,73.01 405.23,82.03 L405.23,148.66 L391.33,148.66 L391.33,49.14 L410.37,49.14 L448.1,118.54 C451.02,123.86 452.9,127.84 453.76,130.48 L454.27,130.48 C456.73,125.02 458.7,120.95 460.19,118.26 L498.69,49.14 L516.7,49.14 L516.7,148.66" id="Fill-97" fill="#1C1E1D"></path>
                <path d="M594.39,109.58 L571.37,112.15 C564.28,112.95 558.94,114.37 555.33,116.41 C551.73,118.45 549.93,122.06 549.93,127.23 C549.93,131.01 551.59,134.09 554.92,136.48 C558.24,138.87 562.67,140.06 568.2,140.06 C575.78,140.06 582.04,137.91 586.98,133.61 C591.92,129.31 594.39,123.87 594.39,117.28 L594.39,109.58 Z M609.68,148.66 L594.39,148.66 L594.39,136.59 L594.02,136.59 C587.37,145.84 577.58,150.47 564.66,150.47 C555.15,150.47 547.71,148.43 542.33,144.36 C536.96,140.29 534.27,134.88 534.27,128.14 C534.27,113.71 544.77,105.31 565.78,102.94 L594.39,99.7 C594.39,86.57 587.83,80.01 574.72,80.01 C563.23,80.01 552.85,83.18 543.59,89.51 L543.59,76.84 C552.97,72.01 563.79,69.6 576.03,69.6 C598.46,69.6 609.68,79.2 609.68,98.42 L609.68,148.66 L609.68,148.66 Z" id="Fill-98" fill="#1C1E1D"></path>
                <path d="M680.62,83.93 C677.95,82.27 674.09,81.44 669.06,81.44 C662.54,81.44 657.08,83.93 652.7,88.91 C648.32,93.89 646.13,100.68 646.13,109.28 L646.13,148.66 L630.84,148.66 L630.84,71.41 L646.13,71.41 L646.13,87.33 L646.5,87.33 C648.68,81.89 652,77.66 656.48,74.61 C660.95,71.57 665.95,70.05 671.48,70.05 C675.46,70.05 678.5,70.4 680.62,71.11 L680.62,83.93" id="Fill-99" fill="#1C1E1D"></path>
                <path d="M733.85,147.91 C730.24,149.52 725.49,150.32 719.59,150.32 C702.87,150.32 694.51,142.78 694.51,127.69 L694.51,81.97 L678.11,81.97 L678.11,71.41 L694.51,71.41 L694.51,52.55 L709.8,48.55 L709.8,71.41 L733.85,71.41 L733.85,81.97 L709.8,81.97 L709.8,125.5 C709.8,130.68 710.89,134.38 713.06,136.59 C715.24,138.8 718.84,139.91 723.88,139.91 C727.73,139.91 731.05,139.06 733.85,137.34 L733.85,147.91" id="Fill-100" fill="#1C1E1D"></path>
            </g>
        </g>
    </g>
</svg>
