<?xml version="1.0" encoding="UTF-8"?>
<svg width="72px" height="30px" viewBox="0 0 72 30" version="1.1" xmlns="http://www.w3.org/2000/svg" xmlns:xlink="http://www.w3.org/1999/xlink">
    <title>11440335-8A40-4B73-B029-05FB7F03EF5B</title>
    <defs>
        <linearGradient x1="70.00367%" y1="-5.49981457%" x2="18.4742349%" y2="91.6770667%" id="linearGradient-1">
            <stop stop-color="#11BCE2" offset="0%"></stop>
            <stop stop-color="#0569F7" offset="100%"></stop>
        </linearGradient>
    </defs>
    <g id="Get-Safle_website" stroke="none" stroke-width="1" fill="none" fill-rule="evenodd">
        <g id="Get-Safle_Developers_Mobile-Responsive" transform="translate(-20.000000, -20.000000)">
            <g id="Group-18" transform="translate(20.000000, 20.000000)">
                <g id="Group-3" transform="translate(33.727208, -0.000000)" fill="url(#linearGradient-1)">
                    <path d="M14.7426585,-3.69482223e-13 L14.7426585,3.00359221 L10.9584725,3.00359221 L10.7104093,3.00742227 C6.42647052,3.13987457 2.98206518,6.69086258 2.98206518,11.0370834 L2.98206518,11.0370834 L2.98206518,29.6600846 L3.33066889e-13,29.6600846 L3.33066889e-13,11.0370834 L0.00370064808,10.7481495 C0.156347558,4.79520645 5.01192009,-3.69482223e-13 10.9584725,-3.69482223e-13 L10.9584725,-3.69482223e-13 L14.7426585,-3.69482223e-13 Z M19.0113362,0.0358004738 L19.0113362,29.4625741 L16.1381877,29.4625741 L16.1381877,0.0358004738 L19.0113362,0.0358004738 Z M6.65505415,16.1799228 L6.755439,16.1862047 C7.15004401,16.2359557 7.45543121,16.5751413 7.45543121,16.9860414 L7.45543121,16.9860414 L7.45543121,17.6265322 L7.44919408,17.7276371 C7.39979739,18.1250728 7.06302761,18.4326508 6.65505415,18.4326508 L6.65505415,18.4326508 L5.27347483,18.4326508 L5.17308998,18.4263689 C4.77848497,18.3766178 4.47309777,18.0374322 4.47309777,17.6265322 L4.47309777,17.6265322 L4.47309777,16.9860414 L4.4793349,16.8849364 C4.52873159,16.4875007 4.86550137,16.1799228 5.27347483,16.1799228 L5.27347483,16.1799228 L6.65505415,16.1799228 Z" id="Combined-Shape"></path>
                </g>
                <g id="Group-12" transform="translate(0.000000, 12.234049)">
                    <g id="Group-6" fill="#FFFFFF">
                        <path d="M7.04122569,5.40384514e-05 C10.9975055,5.40384514e-05 13.2480043,2.55890979 13.2480043,2.55890979 L11.2515551,4.64263247 C11.2515551,4.64263247 9.58225855,2.77817081 7.04122569,2.77817081 C4.89991188,2.77817081 3.84709479,3.83854031 3.84709479,4.93511558 C3.84709479,6.21447591 5.15396151,6.9091402 7.91229132,7.49397134 C11.1064222,8.18836543 13.82867,9.39477385 13.82867,12.8312141 C13.82867,16.0844639 10.4168398,17.7658703 7.18649271,17.7658703 C2.46819815,17.7658703 0,14.2200022 0,14.2200022 L2.10523178,12.2461127 C2.10523178,12.2461127 3.88357921,14.9878886 7.18649271,14.9878886 C8.89240783,14.9878886 10.8158882,14.2567484 10.8158882,12.904166 C10.8158882,11.4420206 9.58225855,10.7110154 7.00514366,10.1991362 C3.41183024,9.46799595 0.871199772,8.04205633 0.871199772,4.86189348 C0.871199772,2.41260069 3.3029135,5.40384514e-05 7.04122569,5.40384514e-05 Z M23.8728053,0 C28.8086651,0 31.1679465,3.07073498 31.1679465,6.21442187 L31.1679465,17.3274293 L28.3734005,17.3274293 L28.3734005,14.8782716 C28.3734005,14.8782716 26.4857339,17.7659514 22.6747212,17.7659514 C19.6623417,17.7659514 16.4322629,15.6458878 16.4322629,11.9901866 C16.4322629,8.70019062 19.2993753,6.36059588 23.0740378,6.36059588 C26.159252,6.36059588 28.1192167,7.74992446 28.1192167,7.74992446 L28.1192167,6.83586406 C28.1192167,3.32660705 25.215754,2.85147397 23.8728053,2.85147397 C21.3317724,2.85147397 18.8639767,4.27700831 18.8639767,4.27700831 L17.5934602,1.71815255 L17.6173913,1.70283295 C17.8870934,1.53254965 20.4105854,0 23.8728053,0 Z M63.833659,9.45672891e-05 C68.5158716,9.45672891e-05 72,3.54582753 72,8.9929034 C72,9.32172738 72,9.57759944 71.9636497,9.97978061 L58.4255138,9.97978061 C58.6072652,12.5386364 61.0389789,14.9149773 64.1966254,14.9149773 C67.4995389,14.9149773 69.2418043,12.4289383 69.2418043,12.4289383 L71.1652847,14.4393038 C71.1652847,14.4393038 68.6246542,17.7659108 64.1966254,17.7659108 C59.1153645,17.7659108 55.4492163,13.8912188 55.4492163,8.88320534 C55.4492163,3.9481438 58.7884801,9.45672891e-05 63.833659,9.45672891e-05 Z M23.7275383,8.91945164 C21.1140731,8.91945164 19.4809927,10.2358283 19.4809927,11.9901866 C19.4809927,14.1837424 21.4409574,15.0607865 23.3282216,15.0607865 C26.304519,15.0607865 28.1192167,12.5019307 28.1192167,12.5019307 L28.1192167,10.125725 L28.0955983,10.1093043 C27.883943,9.96507976 26.2620448,8.91945164 23.7275383,8.91945164 Z M63.833659,2.85143344 C60.2042636,2.85143344 58.7160478,5.66629635 58.4983485,7.42065467 L69.0237026,7.42065467 C68.9147858,5.51998725 67.2090049,2.85143344 63.833659,2.85143344 Z" id="Combined-Shape"></path>
                    </g>
                    <g id="Group-9" transform="translate(16.432263, 0.000000)"></g>
                </g>
                <g id="Group-17" transform="translate(38.200306, 16.179923)"></g>
            </g>
        </g>
    </g>
</svg>