<svg xmlns="http://www.w3.org/2000/svg" xmlns:xlink="http://www.w3.org/1999/xlink" width="169px" height="34px" viewBox="0 0 169 34"><title>logo-tomochain-fl</title><desc>Created with Sketch.</desc><g id="Page-1" stroke="none" stroke-width="1" fill="none" fill-rule="evenodd"><g id="Products-Copy-8" transform="translate(-135.000000, -82.000000)"><g id="logo-tomochain-fl" transform="translate(135.000000, 82.000000)"><polygon id="Fill-1" fill="#FFFFFF" points="47.781 28.6863 47.781 14.7013 42.433 14.7013 42.433 11.6283 56.902 11.6283 56.902 14.7013 51.555 14.7013 51.555 28.6863"></polygon><g id="Group-21"><path d="M65.032,22.6853 C65.032,21.5403 64.802,20.6853 64.343,20.1213 C63.883,19.5563 63.225,19.2743 62.37,19.2743 C60.595,19.2743 59.709,20.4113 59.709,22.6853 C59.709,24.9593 60.595,26.0973 62.37,26.0973 C64.144,26.0973 65.032,24.9593 65.032,22.6853 M59.055,28.1173 C58.103,27.6093 57.37,26.8913 56.853,25.9633 C56.338,25.0373 56.08,23.9443 56.08,22.6853 C56.08,21.4273 56.338,20.3343 56.853,19.4073 C57.37,18.4803 58.103,17.7663 59.055,17.2663 C60.007,16.7663 61.112,16.5153 62.37,16.5153 C63.629,16.5153 64.733,16.7663 65.685,17.2663 C66.636,17.7663 67.37,18.4803 67.886,19.4073 C68.402,20.3343 68.661,21.4273 68.661,22.6853 C68.661,23.9443 68.402,25.0373 67.886,25.9633 C67.37,26.8913 66.636,27.6093 65.685,28.1173 C64.733,28.6253 63.629,28.8793 62.37,28.8793 C61.112,28.8793 60.007,28.6253 59.055,28.1173" id="Fill-2" fill="#FFFFFF"></path><path d="M88.5486,17.7498 C89.2096,18.5718 89.5406,19.8308 89.5406,21.5238 L89.5406,28.6868 L85.8876,28.6868 L85.8876,21.6458 C85.8876,20.8388 85.7626,20.2588 85.5126,19.9028 C85.2626,19.5488 84.8386,19.3708 84.2416,19.3708 C83.5486,19.3708 83.0086,19.6128 82.6206,20.0968 C82.2346,20.5808 82.0406,21.2588 82.0406,22.1288 L82.0406,28.6868 L78.3876,28.6868 L78.3876,21.6458 C78.3876,20.8388 78.2616,20.2588 78.0126,19.9028 C77.7616,19.5488 77.3386,19.3708 76.7416,19.3708 C76.0476,19.3708 75.5076,19.6128 75.1206,20.0968 C74.7336,20.5808 74.5396,21.2588 74.5396,22.1288 L74.5396,28.6868 L70.8866,28.6868 L70.8866,16.8068 L74.4436,16.8068 L74.4436,18.4028 C74.8146,17.7898 75.3106,17.3228 75.9316,16.9998 C76.5516,16.6778 77.2656,16.5158 78.0716,16.5158 C79.8306,16.5158 81.0076,17.2498 81.6056,18.7178 C81.9916,18.0398 82.5316,17.5038 83.2266,17.1088 C83.9196,16.7138 84.6856,16.5158 85.5246,16.5158 C86.8796,16.5158 87.8876,16.9278 88.5486,17.7498" id="Fill-4" fill="#FFFFFF"></path><path d="M100.6706,22.6853 C100.6706,21.5403 100.4406,20.6853 99.9806,20.1213 C99.5216,19.5563 98.8636,19.2743 98.0086,19.2743 C96.2336,19.2743 95.3476,20.4113 95.3476,22.6853 C95.3476,24.9593 96.2336,26.0973 98.0086,26.0973 C99.7826,26.0973 100.6706,24.9593 100.6706,22.6853 M94.6936,28.1173 C93.7416,27.6093 93.0086,26.8913 92.4916,25.9633 C91.9766,25.0373 91.7186,23.9443 91.7186,22.6853 C91.7186,21.4273 91.9766,20.3343 92.4916,19.4073 C93.0086,18.4803 93.7416,17.7663 94.6936,17.2663 C95.6456,16.7663 96.7506,16.5153 98.0086,16.5153 C99.2676,16.5153 100.3716,16.7663 101.3226,17.2663 C102.2746,17.7663 103.0086,18.4803 103.5246,19.4073 C104.0406,20.3343 104.2996,21.4273 104.2996,22.6853 C104.2996,23.9443 104.0406,25.0373 103.5246,25.9633 C103.0086,26.8913 102.2746,27.6093 101.3226,28.1173 C100.3716,28.6253 99.2676,28.8793 98.0086,28.8793 C96.7506,28.8793 95.6456,28.6253 94.6936,28.1173" id="Fill-6" fill="#FFFFFF"></path><path d="M110.3112,27.8152 C109.0292,27.0882 108.0452,26.0652 107.3602,24.7422 C106.6742,23.4192 106.3322,21.8872 106.3322,20.1452 C106.3322,18.4032 106.6742,16.8712 107.3602,15.5472 C108.0452,14.2252 109.0292,13.2062 110.3112,12.4872 C111.5942,11.7702 113.0972,11.4112 114.8242,11.4112 C115.9532,11.4112 117.0342,11.5852 118.0662,11.9312 C119.0982,12.2782 119.9452,12.7572 120.6062,13.3712 L119.3972,16.0562 C118.6552,15.4922 117.9162,15.0812 117.1832,14.8222 C116.4492,14.5642 115.6862,14.4352 114.8962,14.4352 C113.3802,14.4352 112.2142,14.9192 111.4002,15.8862 C110.5852,16.8542 110.1782,18.2742 110.1782,20.1452 C110.1782,22.0162 110.5852,23.4402 111.4002,24.4162 C112.2142,25.3912 113.3802,25.8792 114.8962,25.8792 C115.6862,25.8792 116.4492,25.7512 117.1832,25.4922 C117.9162,25.2342 118.6552,24.8232 119.3972,24.2582 L120.6062,26.9442 C119.9452,27.5572 119.0982,28.0372 118.0662,28.3832 C117.0342,28.7302 115.9532,28.9042 114.8242,28.9042 C113.0972,28.9042 111.5942,28.5412 110.3112,27.8152" id="Fill-8" fill="#FFFFFF"></path><path d="M133.5505,17.7615 C134.2435,18.5925 134.5905,19.8465 134.5905,21.5245 L134.5905,28.6865 L130.9375,28.6865 L130.9375,21.6935 C130.9375,20.8875 130.7875,20.2985 130.4895,19.9275 C130.1915,19.5565 129.7275,19.3705 129.0985,19.3705 C128.3405,19.3705 127.7325,19.6135 127.2725,20.0965 C126.8125,20.5805 126.5825,21.2265 126.5825,22.0325 L126.5825,28.6865 L122.9295,28.6865 L122.9295,11.6285 L126.5825,11.6285 L126.5825,18.3785 C127.0015,17.7665 127.5375,17.3025 128.1915,16.9885 C128.8445,16.6735 129.5735,16.5155 130.3805,16.5155 C131.8005,16.5155 132.8575,16.9315 133.5505,17.7615" id="Fill-10" fill="#FFFFFF"></path><path d="M143.6638,25.6492 C144.0998,25.1732 144.3168,24.5562 144.3168,23.7982 L144.3168,23.3872 L143.9058,23.3872 C142.5998,23.3872 141.6838,23.4922 141.1598,23.7022 C140.6358,23.9122 140.3728,24.2912 140.3728,24.8382 C140.3728,25.2742 140.5218,25.6372 140.8208,25.9272 C141.1188,26.2172 141.4938,26.3632 141.9458,26.3632 C142.6548,26.3632 143.2278,26.1262 143.6638,25.6492 M146.5308,17.7742 C147.3778,18.6132 147.8008,19.9122 147.8008,21.6702 L147.8008,28.6862 L144.3418,28.6862 L144.3418,26.9202 C144.0998,27.5332 143.6958,28.0122 143.1318,28.3592 C142.5658,28.7062 141.9048,28.8792 141.1468,28.8792 C140.3408,28.8792 139.6108,28.7172 138.9578,28.3952 C138.3048,28.0732 137.7878,27.6212 137.4088,27.0412 C137.0298,26.4602 136.8408,25.8152 136.8408,25.1052 C136.8408,24.2342 137.0618,23.5482 137.5058,23.0482 C137.9498,22.5482 138.6628,22.1852 139.6468,21.9602 C140.6308,21.7342 141.9778,21.6212 143.6878,21.6212 L144.3168,21.6212 L144.3168,21.1852 C144.3168,20.4762 144.1638,19.9752 143.8568,19.6852 C143.5508,19.3952 143.0178,19.2502 142.2608,19.2502 C141.6798,19.2502 141.0338,19.3552 140.3248,19.5642 C139.6148,19.7742 138.9368,20.0642 138.2928,20.4352 L137.3248,17.9922 C138.0018,17.5722 138.8368,17.2212 139.8288,16.9392 C140.8208,16.6572 141.7438,16.5152 142.5998,16.5152 C144.3728,16.5152 145.6838,16.9352 146.5308,17.7742" id="Fill-12" fill="#FFFFFF"></path><path d="M150.535,28.686 L154.188,28.686 L154.188,16.806 L150.535,16.806 L150.535,28.686 Z M150.414,14.507 L154.333,14.507 L154.333,11.096 L150.414,11.096 L150.414,14.507 Z" id="Fill-14" fill="#FFFFFF"></path><path d="M167.6159,17.7615 C168.3089,18.5925 168.6559,19.8465 168.6559,21.5245 L168.6559,28.6865 L165.0029,28.6865 L165.0029,21.6935 C165.0029,20.8875 164.8529,20.2985 164.5549,19.9275 C164.2569,19.5565 163.7939,19.3705 163.1639,19.3705 C162.4059,19.3705 161.7979,19.6135 161.3379,20.0965 C160.8779,20.5805 160.6479,21.2265 160.6479,22.0325 L160.6479,28.6865 L156.9949,28.6865 L156.9949,16.8065 L160.5519,16.8065 L160.5519,18.4995 C160.9699,17.8555 161.5139,17.3635 162.1839,17.0245 C162.8529,16.6855 163.6079,16.5155 164.4469,16.5155 C165.8659,16.5155 166.9229,16.9315 167.6159,17.7615" id="Fill-16" fill="#FFFFFF"></path><g id="Group-5" transform="translate(0.271200, 0.906100)"><polygon id="Fill-18" fill="#FFFFFF" points="5.49578519 0 5.49578519 10.9920741 0.000377777778 16.4887407 0.000377777778 5.49666667"></polygon><path d="M21.9841481,21.9852815 C21.9841481,28.0549111 17.062963,32.9773556 10.9920741,32.9773556 C4.91992593,32.9773556 7.10542736e-15,28.0549111 7.10542736e-15,21.9852815 L7.10542736e-15,16.4886148 L5.49540741,16.4886148 L5.49540741,21.9852815 C5.49540741,25.0150593 7.96103704,27.4806889 10.9920741,27.4806889 C14.0231111,27.4806889 16.4887407,25.0150593 16.4887407,21.9852815 L21.9841481,21.9852815 Z" id="Fill-19" fill="#FFFFFF"></path><polygon id="Fill-20" fill="#00E8B4" points="21.9841481 10.9925778 16.4887407 16.4879852 7.10542736e-15 16.4879852 5.49540741 10.9925778"></polygon></g></g></g></g></g></svg>