<?xml version="1.0" encoding="utf-8"?>
<!-- Generator: Adobe Illustrator 24.0.0, SVG Export Plug-In . SVG Version: 6.00 Build 0)  -->
<svg version="1.1" id="Layer_1" xmlns="http://www.w3.org/2000/svg" xmlns:xlink="http://www.w3.org/1999/xlink" x="0px" y="0px"
	 viewBox="0 0 407.6 221" style="enable-background:new 0 0 407.6 221;" xml:space="preserve">
<style type="text/css">
	.st0{fill:#F9C30C;}
	.st1{fill:#19253A;}
	.st2{enable-background:new    ;}
</style>
<title>Asset 2</title>
<g id="Layer_2_1_">
	<g id="Layer_1-2">
		<g>
			<circle class="st0" cx="16.3" cy="110.9" r="16.3"/>
		</g>
		<g>
			<path class="st1" d="M112.2,0C71.7-0.2,34.4,21.7,14.9,57.2c-0.5,0.8-1,1.7-1.4,2.6c-0.1,0.2-0.2,0.3-0.2,0.5l0,0
				c-3.2,8,0.8,17.1,8.8,20.3c6.8,2.7,14.6,0.3,18.7-5.8l0,0l0,0c0.1-0.2,0.2-0.4,0.3-0.5c0.5-0.7,0.9-1.4,1.3-2.2
				c21.3-38.3,69.6-52.1,107.9-30.8c13.6,7.5,24.6,18.9,31.8,32.6h-0.1c0,0,4.4,10.6-3.2,17.9c-7.1,6.7-19.4,5.3-25.4-3.8
				c-0.4-0.7-0.7-1.3-1.1-2l-0.1-0.1l0,0C138.4,63.5,109.3,56.4,87,70.1s-29.3,42.8-15.7,65.1s42.8,29.3,65.1,15.7
				c7-4.3,12.8-10.4,16.8-17.6c2.2-2.9,7.4-7.9,17.4-6.3c13.9,2.2,13.1,16.3,11.1,20.7l0.2-0.3c-20.4,38.8-68.4,53.7-107.2,33.3
				c-14.2-7.5-25.8-19.1-33.3-33.4v0.3c-4.7-7.2-14.4-9.3-21.6-4.5c-4.4,2.9-7.1,7.8-7.1,13c0,1.7,0.3,3.4,0.8,5h-0.1
				c0.1,0.1,0.1,0.3,0.2,0.4c0.5,1.5,1.3,2.9,2.3,4.1c30.4,52.9,98,71.2,150.9,40.8s71.2-98,40.8-150.9
				C187.9,21.3,151.6,0.2,112.2,0z"/>
		</g>
		<g>
			<path class="st1" d="M278.5,38.5v-8.8c0-2.5-0.3-4.1-1-4.9s-2-1.2-4-1.2s-3.3,0.4-4,1.2s-1,2.4-1,4.9v46c0,2.5,0.3,4.2,1,4.9
				s2,1.2,4,1.2s3.4-0.4,4-1.2s1-2.4,1-4.9V63.7h18.6v9.1c0,5.9-0.3,10.1-0.9,12.7c-0.5,2.4-1.6,4.7-3.1,6.6c-1.5,1.9-3.6,3.3-5.9,4
				c-2.4,0.8-6.8,1.2-13.2,1.2c-7.4,0-12.5-0.4-15.2-1.2c-2.5-0.7-4.8-2.1-6.6-4c-1.7-1.9-2.9-4.2-3.5-6.7
				c-0.7-2.7-1.1-6.9-1.1-12.7V32.5c0-5.8,0.3-10,1-12.6c0.6-2.5,1.8-4.8,3.6-6.6c1.9-2,4.4-3.5,7.1-4.1c3-0.8,7.9-1.2,14.7-1.2
				c5.8,0,10.1,0.4,12.7,1.2c2.5,0.6,4.6,2,6.3,4c1.6,2,2.6,4.3,3.2,6.7c0.8,4.2,1.1,8.4,0.9,12.7v6L278.5,38.5z"/>
		</g>
		<g>
			<path class="st1" d="M362.7,96.2V9H383v71.6h19.2v15.6H362.7z"/>
		</g>
		<g>
			<path class="st1" d="M310.9,96.2V9h38.3v15.6h-17.9v21.7h16.2v15.6h-16.2v34.3H310.9z"/>
		</g>
		<g>
			<path class="st0" d="M274.3,132.3l18-15.7c1.7-1.5,1.9-4.1,0.4-5.8c-0.8-0.9-1.9-1.4-3.1-1.4l-38.3,0.2c-2.3-0.1-4.2,1.6-4.3,3.9
				s1.6,4.2,3.9,4.3c0.1,0,0.3,0,0.4,0l27.3-0.1l-20.2,17.7c-1.7,1.5-1.9,4.1-0.4,5.8c0,0,0,0,0,0c0.5,0.5,1.1,1,1.8,1.2l0.4,0.7
				l0.8-0.4l0,0c1,0,2-0.3,2.7-1l0.5-0.4c1.9-0.7,3.8-1,5.8-1c10,0,18,8.1,18,18s-8.1,18-18,18c-6.3,0-12.1-3.3-15.4-8.7
				c-0.2-0.5-0.4-1-0.8-1.4c0,0,0-0.1,0-0.1l-1.1-2.3l-0.9,1c-0.4-0.1-0.7-0.2-1.1-0.2c-2.3,0-4.2,1.9-4.2,4.2c0,0.3,0,0.6,0.1,0.8
				l-0.2,0.1l0.7,1.3c7.1,12.6,23.1,17.1,35.8,10c12.6-7.1,17.1-23.1,10-35.8C289,138.4,282.1,133.6,274.3,132.3L274.3,132.3z"/>
		</g>
		<g>
			<path class="st0" d="M377.1,132c-3.9,0-7.7,0.8-11.1,2.5c0.5-0.7,0.8-1.5,0.8-2.4v-14.4h29.8c2.3-0.1,4-2,3.9-4.3
				c-0.1-2.1-1.8-3.8-3.9-3.9h-33.9c-2.3,0-4.1,1.8-4.1,4.1v18.5c0,2.3,1.8,4.1,4.1,4.1c0.1,0,0.2,0,0.3,0c-1.7,1.1-3.4,2.5-4.8,4
				c-0.2,0.2-0.4,0.4-0.6,0.6l-0.7,0.7l0.1,0.1c-0.9,2.1,0,4.6,2.1,5.5c0.5,0.2,1.1,0.4,1.7,0.4c0.5,0,1.1-0.1,1.6-0.3l0.2,0.2
				l0.6-0.7c0.4-0.3,0.8-0.7,1.1-1.1c7-7.1,18.4-7.1,25.5-0.1s7.1,18.4,0.1,25.5c-7,7.1-18.4,7.1-25.5,0.1c-0.3-0.3-0.7-0.7-1-1.1
				l-0.3-0.4l-0.2-0.1l-18.7-27.5l-0.1,0.1c-4.8-6.2-12.1-10-19.9-10.2l15.6-15.6c1.6-1.6,1.6-4.2,0-5.8s-4.2-1.6-5.8,0l0,0
				l-28.6,28.6l-0.9,0.9l-0.4,0.4c-0.1,0.1-0.2,0.3-0.3,0.4c-9.6,10.8-8.6,27.4,2.3,37c10.1,8.9,25.2,8.7,35.1-0.4
				c0.6-0.3,1.1-0.8,1.5-1.4l0,0c1.2-1.9,0.7-4.5-1.3-5.8c-0.7-0.4-1.5-0.7-2.3-0.7c-0.5,0-1,0.1-1.4,0.3l-0.3-0.3l-1.1,1.1
				l-0.2,0.2c-6.9,7.1-18.3,7.3-25.5,0.4c-7.1-6.9-7.3-18.3-0.4-25.5l0,0l1-1c7.3-6.8,18.7-6.3,25.4,1c1,1.1,1.9,2.4,2.7,3.7
				l0.4,0.8h0.3l16.6,24.4l0.1-0.1c9.1,11.2,25.7,13,36.9,3.8c11.2-9.1,13-25.7,3.8-36.9C392.6,135.5,385.1,132,377.1,132z"/>
		</g>
		<g class="st2">
			<path class="st1" d="M250.6,204.6c0,0.1,0,0.2,0,0.3s0,0.3,0,0.5c0,1.3-0.2,2.2-0.7,2.8c-0.5,0.6-1.3,0.9-2.3,0.9h-1.2
				c-0.6,0-1-0.1-1.5-0.3c-0.4-0.2-0.8-0.5-1-0.8c-0.2-0.3-0.3-0.7-0.4-1.1c-0.1-0.4-0.1-1-0.1-1.9v-0.4v-4.4c0-1.6,0.3-2.7,0.8-3.4
				s1.4-1,2.6-1h0.7c1.2,0,2,0.3,2.5,0.9s0.8,1.5,0.8,2.9c0,0.2,0,0.3,0,0.4c0,0.1,0,0.2,0,0.2h-1.4V200c0-1.1-0.1-1.9-0.4-2.3
				s-0.8-0.6-1.5-0.6h-0.7c-0.7,0-1.2,0.2-1.5,0.6c-0.3,0.4-0.4,1.2-0.4,2.5v4.4c0,1.5,0.1,2.4,0.4,2.7c0.3,0.4,0.8,0.5,1.6,0.5h0.7
				c0.8,0,1.3-0.2,1.5-0.5c0.3-0.3,0.4-1.2,0.4-2.4v-0.3L250.6,204.6z"/>
			<path class="st1" d="M253.5,203.8v5.2h-1.3v-13h3.6c1.5,0,2.5,0.2,3,0.7c0.5,0.5,0.7,1.3,0.7,2.5v1.2c0,0.8-0.2,1.5-0.5,1.9
				s-0.8,0.7-1.5,0.8c0.6,0.1,1.1,0.4,1.4,0.8c0.3,0.4,0.5,1,0.5,1.8v3.2h-1.3v-2.6c0-1-0.2-1.7-0.5-2.1c-0.3-0.3-1-0.5-1.9-0.5
				H253.5z M255.7,197.2h-2.2v5.3h2.2c1.1,0,1.7-0.1,2-0.4c0.3-0.3,0.4-0.8,0.4-1.6v-1.7c0-0.6-0.1-1.1-0.4-1.3
				C257.4,197.3,256.8,197.2,255.7,197.2z"/>
			<path class="st1" d="M263.7,208.9v-5.4l-3.4-7.5h1.4l2.6,6.3l2.6-6.3h1.3l-3.3,7.5v5.4H263.7z"/>
			<path class="st1" d="M276.3,200.7c0,1.2-0.2,2.1-0.7,2.5c-0.5,0.4-1.5,0.7-3,0.7h-2.2v5h-1.3v-13h3.5c1.5,0,2.5,0.2,3,0.7
				c0.5,0.5,0.7,1.3,0.7,2.5V200.7z M272.4,197.2h-2v5.5h2c1.1,0,1.7-0.1,2-0.3c0.3-0.2,0.4-0.7,0.4-1.3v-2.2c0-0.6-0.1-1.1-0.4-1.3
				S273.5,197.2,272.4,197.2z"/>
			<path class="st1" d="M279.7,208.9v-11.7h-2.8V196h6.8v1.3H281v11.7H279.7z"/>
			<path class="st1" d="M289.3,195.8c1.2,0,2,0.3,2.6,1s0.8,1.8,0.8,3.4v4.5c0,1.6-0.3,2.7-0.8,3.4c-0.5,0.7-1.4,1-2.6,1h-1.1
				c-1.2,0-2-0.3-2.6-1c-0.5-0.7-0.8-1.8-0.8-3.4v-4.5c0-1.6,0.3-2.7,0.8-3.4s1.4-1,2.6-1H289.3z M289.1,197.1h-0.8
				c-0.8,0-1.4,0.2-1.7,0.6s-0.5,1.2-0.5,2.5v4.5c0,1.2,0.2,2.1,0.5,2.5c0.3,0.4,0.9,0.6,1.7,0.6h0.8c0.8,0,1.4-0.2,1.7-0.6
				c0.3-0.4,0.5-1.2,0.5-2.5v-4.5c0-1.2-0.2-2.1-0.5-2.5S290,197.1,289.1,197.1z"/>
		</g>
		<g class="st2">
			<path class="st1" d="M299.2,208.9v-13h5.6v1.3h-4.3v4.5h4v1.2h-4v5.9H299.2z"/>
		</g>
		<g class="st2">
			<path class="st1" d="M304.6,208.9l3.7-13h1.5l3.5,13h-1.4l-0.7-2.8h-4.5l-0.8,2.8H304.6z M307,204.9h3.8l-1.8-7.2L307,204.9z"/>
			<path class="st1" d="M314.4,208.9v-13h1.9l4.8,11.5V196h1.2v13h-2l-4.7-11.3v11.3H314.4z"/>
		</g>
		<g class="st2">
			<path class="st1" d="M326.3,208.9v-11.7h-2.8V196h6.8v1.3h-2.8v11.7H326.3z"/>
		</g>
		<g class="st2">
			<path class="st1" d="M329.6,208.9l3.7-13h1.5l3.5,13H337l-0.7-2.8h-4.5l-0.8,2.8H329.6z M332.1,204.9h3.8l-1.8-7.2L332.1,204.9z"
				/>
			<path class="st1" d="M346.4,204.4v1.9c0,1-0.3,1.7-0.8,2.1c-0.5,0.5-1.3,0.7-2.3,0.7h-1.2c-1.2,0-2-0.3-2.5-0.8
				c-0.5-0.5-0.7-1.5-0.7-2.9v-0.7h1.3v1.1c0,0.8,0.1,1.3,0.4,1.6s0.7,0.4,1.4,0.4h1.3c0.6,0,1-0.1,1.3-0.4c0.2-0.2,0.4-0.7,0.4-1.4
				V205c0-0.3,0-0.6,0-0.8c0-0.2-0.1-0.3-0.1-0.4c-0.2-0.3-0.9-0.6-2.2-0.8c-0.3,0-0.5-0.1-0.6-0.1c0,0-0.1,0-0.2,0
				c-0.8-0.1-1.4-0.3-1.6-0.4c-0.3-0.2-0.6-0.5-0.7-0.8c-0.2-0.4-0.2-0.8-0.2-1.3v-1.6c0-1,0.3-1.7,0.8-2.1c0.5-0.5,1.3-0.7,2.3-0.7
				h0.9c1.1,0,1.9,0.3,2.4,0.8c0.5,0.5,0.7,1.4,0.7,2.6v0.4h-1.3v-0.4c0-0.8-0.1-1.3-0.4-1.6c-0.3-0.3-0.7-0.4-1.4-0.4h-1
				c-0.6,0-1.1,0.1-1.3,0.4c-0.2,0.2-0.4,0.7-0.4,1.4v1.4c0,0.7,0.6,1.2,1.8,1.3c0.3,0,0.5,0.1,0.6,0.1c1.4,0.2,2.3,0.5,2.7,0.9
				C346.2,202.9,346.4,203.6,346.4,204.4z"/>
			<path class="st1" d="M350.5,208.9v-5.4l-3.4-7.5h1.4l2.6,6.3l2.6-6.3h1.3l-3.3,7.5v5.4H350.5z"/>
			<path class="st1" d="M360.4,208.9v-13h1.3v11.7h3.8v1.3H360.4z"/>
			<path class="st1" d="M372.3,207.7v1.2h-5.8v-13h5.8v1.3h-4.5v4.3h4.2v1.3h-4.2v4.9H372.3z"/>
			<path class="st1" d="M372.8,208.9l3.7-13h1.5l3.5,13h-1.4l-0.7-2.8h-4.5l-0.8,2.8H372.8z M375.2,204.9h3.8l-1.8-7.2L375.2,204.9z
				"/>
			<path class="st1" d="M383.8,204.6c0,1.5,0.1,2.4,0.4,2.7c0.3,0.4,0.8,0.5,1.6,0.5h1.1c0.8,0,1.3-0.2,1.6-0.5
				c0.3-0.4,0.4-1.3,0.4-2.7v-0.8h-2.3v-1.2h3.6v2.5c0,0.8,0,1.5-0.1,1.9c-0.1,0.4-0.2,0.8-0.4,1.1c-0.2,0.4-0.6,0.6-1,0.8
				c-0.4,0.2-0.9,0.3-1.5,0.3h-1.7c-0.6,0-1-0.1-1.5-0.3c-0.4-0.2-0.8-0.5-1-0.8c-0.2-0.3-0.3-0.7-0.4-1.1c-0.1-0.4-0.1-1-0.1-1.9
				v-0.4v-4.4c0-1.6,0.3-2.7,0.8-3.4s1.4-1,2.6-1h1c1.2,0,2,0.3,2.5,0.8s0.8,1.5,0.8,2.7v0.4l-1.4,0c0-1-0.2-1.8-0.4-2.1
				s-0.8-0.6-1.5-0.6h-1c-0.7,0-1.2,0.2-1.5,0.6c-0.3,0.4-0.4,1.2-0.4,2.5V204.6z"/>
			<path class="st1" d="M395.9,207.8c0.8,0,1.4-0.2,1.7-0.5c0.3-0.3,0.4-1,0.4-2.1V196h1.3v10c0,1.1-0.3,1.9-0.8,2.4
				c-0.5,0.5-1.4,0.7-2.6,0.7h-0.3c-1.2,0-2.1-0.2-2.6-0.7c-0.5-0.5-0.8-1.3-0.8-2.4v-10h1.3v9.3c0,1,0.1,1.7,0.4,2
				c0.3,0.3,0.9,0.5,1.7,0.5H395.9z"/>
			<path class="st1" d="M407.1,207.7v1.2h-5.8v-13h5.8v1.3h-4.5v4.3h4.2v1.3h-4.2v4.9H407.1z"/>
		</g>
	</g>
</g>
</svg>
