<svg id="Layer_1" data-name="Layer 1" xmlns="http://www.w3.org/2000/svg" xmlns:xlink="http://www.w3.org/1999/xlink" viewBox="0 0 1080 1080"><defs><style>.cls-1{fill:url(#linear-gradient);}</style><linearGradient id="linear-gradient" x1="135.2" y1="510.35" x2="903.45" y2="510.35" gradientUnits="userSpaceOnUse"><stop offset="0" stop-color="#2b4a72"/><stop offset="0.43" stop-color="#6f55a5"/><stop offset="1" stop-color="#ba62a3"/></linearGradient></defs><title>Logos vector</title><path class="cls-1" d="M281.85,514.76c-2.34,112,36.43,368.67,38.88,378,3.54,13.51-1.66,19.51-15.52,19.5-35,0-65.65-11.41-91.49-34.85C168.8,836.66,149.94,783.18,144,725c-4-39-4-78.54-4.81-117.85q-2.55-123.59-3.94-247.2c-.53-54.83,8.59-108.15,32.16-158a285,285,0,0,1,31.26-51.12C230,110,273.48,104,321,110.91c70.6,10.31,132.59,42.11,193.59,76.6C611.52,242.31,708.92,296.23,805.26,352c108.84,63,131.9,207.93,45.45,298-25.05,26.11-59.58,43.77-91.33,62.67q-99.47,59.2-200.79,115.26c-32.41,17.89-66.79,32.25-100.41,47.93-13.55,6.32-22.71,3.75-25.15-13C422.92,793.25,409,724,403.12,654.08c-5.87-70.11-5-221.83-4.11-226.93,3.2-19.33,9.84-23.77,27.12-14.22,52.56,29,114.35,66.43,166,97,18.91,11.18-61.83,61.66-88.4,79.35C468,613.09,442,679.4,452.39,719.76c3.41,13.21,10.66,9.31,18.41,5.47,23.3-11.53,47.12-22.16,69.75-34.89q66.93-37.64,132.73-77.29c55.27-33.38,74-88.92,46.14-145.07-9.06-18.27-25.33-35.92-42.75-46.56C614,383.13,549.94,346.94,485.24,312.12c-26.59-14.31-55.5-25.24-84.49-33.9-48.07-14.36-80.26,2.32-101,47.93-11.86,26-19.92,52.78-17.87,81.81C282,410.18,281.85,475.57,281.85,514.76Z"/></svg>