<?xml version="1.0" encoding="utf-8"?>
<!-- Generator: Adobe Illustrator 24.0.1, SVG Export Plug-In . SVG Version: 6.00 Build 0)  -->
<svg version="1.1" id="Layer_1" xmlns="http://www.w3.org/2000/svg" xmlns:xlink="http://www.w3.org/1999/xlink" x="0px" y="0px"
	 viewBox="0 0 400 400" style="enable-background:new 0 0 400 400;" xml:space="preserve">
<style type="text/css">
	.st0{fill:#1D2C44;}
	.st1{fill:#FFC10D;}
	.st2{fill:#EBF3D7;}
	.st3{fill-rule:evenodd;clip-rule:evenodd;fill:#F3C492;}
	.st4{fill-rule:evenodd;clip-rule:evenodd;fill:#EAACA9;}
	.st5{fill-rule:evenodd;clip-rule:evenodd;fill:#CD7875;}
	.st6{fill-rule:evenodd;clip-rule:evenodd;fill:#D42E27;}
	.st7{fill-rule:evenodd;clip-rule:evenodd;fill:#A82324;}
	.st8{fill-rule:evenodd;clip-rule:evenodd;fill:#FFDF97;}
	.st9{fill-rule:evenodd;clip-rule:evenodd;fill:#D99C46;}
	.st10{fill-rule:evenodd;clip-rule:evenodd;fill:#EBB322;}
	.st11{fill-rule:evenodd;clip-rule:evenodd;fill:#F6D217;}
	.st12{fill-rule:evenodd;clip-rule:evenodd;fill:#F5907B;}
	.st13{fill-rule:evenodd;clip-rule:evenodd;fill:#BA2727;}
	.st14{fill-rule:evenodd;clip-rule:evenodd;fill:#B47A37;}
	.st15{fill-rule:evenodd;clip-rule:evenodd;fill:#F6C794;}
	.st16{fill-rule:evenodd;clip-rule:evenodd;fill:#2A344A;}
	.st17{fill-rule:evenodd;clip-rule:evenodd;fill:#FFFFFF;}
	.st18{fill:#2A344A;}
	.st19{fill:#721A29;}
	.st20{fill-rule:evenodd;clip-rule:evenodd;fill:#666666;}
	.st21{fill:#FFFFFF;}
	.st22{fill:#333333;}
	.st23{fill:#1A4754;}
	.st24{fill:#4E7C8C;}
	.st25{fill:#002A42;}
	.st26{fill:#EAACA9;}
	.st27{fill:#CD7875;}
	.st28{fill:#A0553F;}
	.st29{fill:#29344A;stroke:#29344A;stroke-width:3;stroke-miterlimit:10;}
</style>
<g>
	<circle class="st0" cx="200" cy="200" r="196"/>
	
		<ellipse transform="matrix(9.184198e-02 -0.9958 0.9958 9.184198e-02 -17.5234 380.7862)" class="st1" cx="200" cy="200" rx="175.1" ry="175.1"/>
	<polygon class="st2" points="288.7,332.8 228.9,248.6 274.3,341.3 223.7,251.4 259.1,348.3 218.2,253.6 243.3,353.7 212.5,255.2 
		227,357.4 206.6,256.2 210.4,359.3 200.7,256.6 193.7,359.5 194.8,256.3 177.1,358 188.9,255.5 160.7,354.7 183.2,254 144.7,349.8 
		177.7,252 129.3,343.2 172.3,249.4 114.8,335 167.3,246.2 101.1,325.4 162.7,242.5 88.6,314.3 158.4,238.4 77.2,302.1 154.7,233.8 
		67.2,288.7 151.4,228.9 58.7,274.3 148.6,223.7 51.7,259.1 146.4,218.2 46.3,243.3 144.8,212.5 42.6,227 143.8,206.6 40.7,210.4 
		143.4,200.7 40.5,193.7 143.7,194.8 42,177.1 144.5,188.9 45.3,160.7 146,183.2 50.2,144.7 148,177.7 56.8,129.3 150.6,172.3 
		65,114.8 153.8,167.3 74.6,101.1 157.5,162.7 85.7,88.6 161.6,158.4 97.9,77.2 166.2,154.7 111.3,67.2 171.1,151.4 125.7,58.7 
		176.3,148.6 140.9,51.7 181.8,146.4 156.7,46.3 187.5,144.8 173,42.6 193.4,143.8 189.6,40.7 199.3,143.4 206.3,40.5 205.2,143.7 
		222.9,42 211.1,144.5 239.3,45.2 216.8,146 255.3,50.2 222.3,148 270.7,56.8 227.7,150.6 285.2,65 232.7,153.8 298.9,74.6 
		237.3,157.5 311.4,85.7 241.6,161.6 322.8,97.9 245.3,166.2 332.8,111.3 248.6,171.1 341.3,125.7 251.4,176.3 348.3,140.9 
		253.6,181.8 353.7,156.7 255.2,187.5 357.4,173 256.2,193.4 359.3,189.6 256.6,199.3 359.5,206.3 256.3,205.2 358,222.9 
		255.5,211.1 354.8,239.3 254,216.8 349.8,255.3 252,222.3 343.2,270.7 249.4,227.7 335,285.2 246.2,232.7 325.4,298.9 242.5,237.3 
		314.3,311.4 238.4,241.6 302.1,322.8 233.8,245.3 	"/>
	<g>
		<g>
			<path class="st3" d="M142.4,239.4c-1-0.4-2-0.9-3-1.4c-3.8-2-6.8-4.9-8.9-8.6l0-0.1l0-0.1c-3.9-12.2-5-24.7-3.4-37.3
				c1.6-12.7,5.7-24.8,11.4-36.2l0.5-1.1l0.5,1.1c0.3,0.7,0.6,1.3,0.9,2c-10,22.6-13.2,42.6-9.5,59.9c-0.1-4.6,0.1-7.8,0.6-9.5
				C132.2,222.3,135.9,232.7,142.4,239.4"/>
			<g>
				<path class="st4" d="M229.3,129.7c-2.2-0.5-4.1-1.5-5.9-2.9c-4.9-3.9-8.2-10.7-10.4-16.5l-0.3-0.7l0.7-0.1
					c3.1-0.5,6.5-0.5,9.5,0.5c2.9,1,5,2.8,6.3,5.6c1.1,2.5,0.9,5.1,0.6,7.8c-0.2,1.8-0.4,3.8,0,5.6l0.2,0.9L229.3,129.7z"/>
				<path class="st5" d="M229.3,129.7c-0.1,0-0.2-0.1-0.3-0.1c-1.1-1.9-1.4-4.3-0.9-7.2c0.4-2.6,0.3-5.3-1.3-7.5
					c-2.6-3.4-7.3-4.2-13.1-3.2c-0.2-0.5-0.4-0.9-0.6-1.4l-0.3-0.7l0.7-0.1c3.1-0.5,6.5-0.5,9.5,0.5c2.9,1,5,2.8,6.3,5.6
					c1.1,2.5,0.9,5.1,0.6,7.8c-0.2,1.8-0.4,3.8,0,5.6l0.2,0.9L229.3,129.7z"/>
				<path class="st6" d="M219.2,106.4c2.7-1.1,5.3-2.3,7.8-3.8c3.5-2,6.7-4.4,9.6-7.2l0.3-0.2l0.3,0.1c1,0.4,2,0.7,3,0.9l1.1,0.2
					l-0.9,0.7c-2.4,2-4.5,4.6-5.8,7.5c-1.2,2.7-1.8,6.3-0.4,9c0.1,0.2,0.2,0.4,0.3,0.6c1.8,2.8,4.4,7.1,5.1,10.4
					c0.3,1.8,0,3.4-1.9,4.2c-1.6,0.6-3.3,1-5.1,1.1l-0.4,0l-0.2-0.3c-0.9-1.8-0.6-4.2-0.4-6.1c0.3-3,0.5-5.9-0.8-8.7
					c-1.5-3.2-4-5.4-7.4-6.6c-1.4-0.5-2.8-0.7-4.2-0.9l-2.3-0.2L219.2,106.4z"/>
				<path class="st7" d="M219.2,106.4c2.7-1.1,5.3-2.3,7.8-3.8c1.8-1,3.5-2.2,5.1-3.4c-1.1,1.9-1.8,3.5-2.1,5
					c-0.2-0.5-0.4-1.1-0.4-1.7c-1,1.4-1.4,4.3-1.2,8.7c-1.3-1.3-2.9-2.2-4.8-2.8c-1.4-0.5-2.8-0.7-4.2-0.9l-2.3-0.2L219.2,106.4z
					 M235.6,129.6c-0.9,0.2-1.9,0.4-2.9,0.4l-0.4,0l-0.2-0.3c-0.9-1.8-0.6-4.2-0.4-6.1c0.1-1,0.2-2,0.2-2.9
					C234.3,122.7,235.5,125.6,235.6,129.6z"/>
				<path class="st8" d="M238.6,272.7c2.8-3.8,4.2-8.5,4.7-13.2c0.1-0.5-0.3-1-0.8-1c-0.5-0.1-1,0.3-1,0.8
					c-0.5,4.4-1.7,8.8-4.4,12.4v0l-0.1,0.2c-2.6,3.3-6.1,5.5-10.1,6.7l0,0l0,0c-6.1,0.8-13,0.5-18-3.6c-8.8-7-8.1-22-6.8-32
					c0.1-0.5-0.3-1-0.8-1c-0.5-0.1-1,0.3-1,0.8c-1.1,8.8-1.7,20.7,2.9,28.7l0.3,0.5l-0.5,0.3c-2.9,1.4-6,2.1-9.2,2.2
					c-4.7,0.2-9.6-0.8-14.1-2.1c-0.5-0.1-1,0.1-1.1,0.6c-0.1,0.5,0.1,1,0.6,1.1c4.7,1.4,9.8,2.4,14.7,2.2c3.6-0.1,7.1-0.9,10.3-2.5
					l0.4-0.2l0.3,0.4c5.1,6.5,13.4,7.5,21.1,6.6l0.5-0.1l0.1,0.5c1.5,8.2,5.1,17.1,14.6,17.9l0.4,0l0.1,0.4c0.7,3.6,2.7,6.7,5.1,9.3
					c3.3,3.6,7.7,6.6,11.9,9l0.1,0.1l0.1,0.2c1.1,2.3,2.2,4.8,2.6,7.3l0.1,0.5l-0.4,0.2c-1.2,0.5-2.5,0.6-3.8,0.5
					c-1.9-0.2-3.7-1.1-5.2-2.2c-0.4-0.3-1-0.2-1.3,0.2c-0.3,0.4-0.2,1,0.2,1.3c1.8,1.3,3.8,2.3,6.1,2.5c1.3,0.2,2.6,0.1,3.8-0.3
					l0.8-0.2l-0.1,0.8c-0.2,2.3-1.3,4.1-3.2,5.3l0,0l0,0c-0.6,0.3-1.2,0.7-1.9,1l-0.1,0.1l-0.1,0c-2,0-4-0.3-5.8-1.2
					c-1.6-0.8-2.9-2-3.8-3.6c-0.2-0.4-0.8-0.6-1.3-0.4c-0.4,0.2-0.6,0.8-0.4,1.2c1.1,1.9,2.6,3.4,4.5,4.3l2.4,1.2l-2.7-0.2
					c-1.4-0.1-2.8-0.4-4.1-0.9c-5.1-2-9.1-7-11.9-11.6l0,0l0,0c-1.9-4.3-4.3-8.5-7.1-12.3c-1.9-2.6-4.1-5-6.5-7.2l-1-0.9l1.4,0
					c0.7,0,1.3,0,2-0.1c0.5,0,0.9-0.4,0.9-1c0-0.5-0.4-0.9-0.9-0.9c-19.8,0.8-38.2-4.2-53.9-16.4c-15.4-12-26.1-29.1-33.8-46.8
					l-0.8-2l1.7,1.3c1.1,0.8,2.2,1.5,3.4,2.1c4.2,2.3,9.1,3.5,13.8,4l0.6,0.1l-0.1,0.6c-0.4,2.2-0.7,4.5-0.7,6.8
					c0.1,4.1,1.1,8.1,3.8,11.2c1.7,2,4,3.4,6.5,4.3l0.1,0c0.7,0.2,1.3,0.4,2,0.6c1.8,0.4,3.7,0.6,5.5,0.6h0c1.2,0,2.4-0.1,3.6-0.3
					l0,0c0,0,0.1,0,0.1,0l0,0c3.3-0.4,6.6-1.4,8.7-4.1c3.2-4,3-10.7,2.7-15.5c-0.4-5.8-2.2-11.1-5.6-15.8c-3.7-5.2-9-8.9-14.6-11.7
					c0,0-0.1,0-0.1,0l0,0l0,0c-6.7-3-12.8-7.3-16.7-13.5c-3.8-6.1-4.8-13.1-4.2-20.2c0-0.5-0.3-0.9-0.8-1c-0.5,0-0.9,0.3-1,0.8
					c-0.7,7.5,0.4,14.9,4.4,21.3c4.1,6.6,10.5,11.1,17.5,14.2l0,0l0.1,0c5.4,2.7,10.4,6.2,13.9,11.2c3.2,4.4,4.8,9.4,5.2,14.8
					c0.3,4.2,0.6,10.7-2.3,14.2c-1.2,1.5-2.8,2.3-4.6,2.9l-1.2,0.3l0.5-1.1c0.6-1.4,1-2.8,1.3-4.2c0.6-2.7,0.6-5.6,0.3-8.3
					c-0.1-0.5-0.5-0.9-1-0.8c-0.5,0.1-0.9,0.5-0.8,1c0.3,2.6,0.2,5.2-0.3,7.8c-0.4,2-1.1,4-2.2,5.8l-0.1,0.2l-0.3,0
					c-0.9,0.1-1.9,0.2-2.8,0.2c-1.7,0-3.4-0.1-5.1-0.5l-0.8-0.2l0.4-0.7c2.3-4.1,3.5-8.5,3.2-13.2c0-0.5-0.5-0.9-1-0.9
					c-0.5,0-0.9,0.5-0.9,1c0.3,4.6-1,8.8-3.3,12.7l-0.3,0.4l-0.5-0.2c-1.8-0.8-3.3-1.9-4.6-3.3c-2.4-2.8-3.3-6.4-3.3-10
					c0-2.6,0.3-5.3,0.9-7.9l0,0c0-0.1,0-0.1,0-0.2c0-0.5-0.3-1-0.8-1c-5.1-0.4-10.3-1.5-14.8-4c-3.8-2-6.8-4.9-8.9-8.6l0-0.1l0-0.1
					c-3.9-12.2-5-24.7-3.4-37.3c1.6-12.7,5.7-24.8,11.4-36.2l0.5-1.1l0.5,1.1c1.6,3.7,3.8,7,6.6,9.8c6.5,6.4,15.3,9,24.2,10.1
					c9,1,18.1,0.3,26.6-2.9c6.5-2.5,12.3-6.3,17-11.4l0.4-0.4l0.4,0.4c2.5,2.4,4.6,5.2,6.3,8.3c1.9,3.6,3,7.4,3.6,11.4
					c0.7,6.8,0.2,14-3.5,19.9c-0.8,1.3-1.8,2.5-2.9,3.6c0,0,0,0,0,0c-3.2,3.2-7.3,5.3-11.6,6.6l-0.5,0.2l-0.2-0.5
					c-0.9-2.4-1.9-4.7-3-6.9c-0.2-0.5-0.8-0.6-1.2-0.4c-0.5,0.2-0.6,0.8-0.4,1.2c1.3,2.6,2.5,5.2,3.4,7.9l0,0l0,0c0,0,0,0.1,0,0.1
					l0,0c1,3.1,1.8,6.6,1.5,9.9l0,0c-0.2,2.8-1.2,5.4-3.2,7.4l-0.6,0.6l-0.4-0.7c-1.7-3.4-3.5-6.7-5.5-9.9c-0.3-0.4-0.8-0.6-1.3-0.3
					c-0.4,0.3-0.6,0.8-0.3,1.3c2.1,3.3,3.9,6.8,5.7,10.3l0.2,0.5l-0.4,0.3c-0.4,0.2-0.8,0.5-1.2,0.7c-0.8,0.4-1.7,0.7-2.5,0.9
					l-0.2,0.1l-0.2-0.1c-1.7-0.9-3.2-2-4.5-3.5c-1.4-1.7-2.2-3.6-2.8-5.7c-0.1-0.5-0.6-0.8-1.1-0.7c-0.5,0.1-0.8,0.6-0.7,1.1
					c0.6,2.4,1.6,4.6,3.1,6.4c0.6,0.7,1.3,1.4,2,2l1.2,1l-1.8,0c-1.6,0-3.8-0.3-5-1.5c-0.7-0.7-1.3-1.4-1.9-2.1
					c-4.6-5.6-7-12.4-6.3-19.7c0.4-5,2.4-10.8,6.1-14.4l0,0c0.2-0.2,0.5-0.5,0.8-0.7c0.9-0.7,1.8-1.5,2.7-2.2
					c6.1-5,13.9-10.9,16.5-18.6c0.2-0.5-0.1-1-0.6-1.2c-0.5-0.2-1,0.1-1.2,0.6c-2.4,7.2-10.2,13.1-15.9,17.8
					c-0.9,0.7-1.8,1.5-2.7,2.2c-0.3,0.3-0.6,0.5-0.9,0.8c-4,3.9-6.2,10.1-6.7,15.5c-0.7,7.8,1.8,15,6.8,21c0.6,0.8,1.3,1.5,2,2.3
					c1.5,1.6,4.1,2,6.3,2.1c1.5,0,3.1-0.2,4.6-0.5l0,0l0,0c0,0,0.1,0,0.1,0l0,0l0,0c1.1-0.3,2.3-0.6,3.3-1.1l0.1,0
					c0.8-0.4,1.7-0.9,2.4-1.5c0,0,0,0,0.1-0.1c3.3-2.5,5-5.9,5.4-10l0-0.1c0.2-3.1-0.3-6.3-1.2-9.3l-0.2-0.5l0.5-0.2
					c4.3-1.3,8.3-3.4,11.6-6.4l0.3-0.2l0.3,0.2c7.2,3.2,14.4,7.6,19.6,13.7c4.5,5.3,7,11.3,7.3,18.2l0,0.1l0,0.1c-0.4,2-0.8,4-1.2,6
					c-0.3,1.7-0.5,3.4-0.7,5.1c0,0.5,0.3,1,0.8,1c0.5,0,1-0.3,1-0.8c0.1-1.7,0.4-3.3,0.6-5c0.2-1.1,0.4-2.1,0.6-3.2l0.2-1.2l0.8,0.9
					c0.5,0.6,1,1.3,1.4,1.9l0,0.1l0,0.1c0.1,0.2,0.1,0.3,0.3,0.4l0.1,0.1l0,0.1c1.5,2.3,2.6,4.8,3.2,7.5c0.8,3.4,1,8.8-1.1,11.9
					c-1.1,1.5-2.4,2.7-3.8,3.9c-1.6,1.4-3.6,2.8-2.9,5.1c0,0.1,0,0.1,0.1,0.2c2.6,4.4,6.4,11.4,6.3,16.7c0,1.9-0.6,3.5-1.9,4.9
					l-0.6,0.7l-0.3-0.9c-0.4-1.1-0.8-2.2-1.3-3.2c-0.7-1.7-1.6-3.3-2.5-4.8c-0.3-0.4-0.8-0.6-1.3-0.3c-0.4,0.3-0.6,0.8-0.3,1.3
					c0.9,1.5,1.7,3,2.4,4.6c0.6,1.3,1.1,2.7,1.6,4l0.2,0.4l-0.4,0.2c-0.7,0.4-1.3,0.7-2,0.9l-0.1,0l-0.1,0c-0.7,0.1-1.4,0.2-2,0.2
					l-0.2,0l-0.1-0.1c-1.2-0.8-2.2-1.9-3-3.1c-1.1-1.7-1.9-3.8-2.4-5.8c-0.1-0.5-0.6-0.8-1.1-0.7c-0.5,0.1-0.8,0.6-0.7,1.1
					c0.6,2.2,1.4,4.4,2.6,6.3c0.1,0.2,0.2,0.3,0.3,0.5l1.1,1.5l-1.7-0.7c-6.2-2.5-8.6-9.7-9.7-15.7l-0.1-0.5l0.5-0.2
					c4-1.4,7.3-3.6,9.9-7L238.6,272.7z"/>
				<path class="st9" d="M220.5,301.4c-19.2,0.5-37.1-4.5-52.5-16.4c-15.4-12-26.1-29.1-33.8-46.8l-0.8-2l1.7,1.3
					c1.1,0.8,2.2,1.5,3.4,2.1c0.3,0.2,0.6,0.3,1,0.5C149,262.7,161.8,279,178,289C189.4,295.1,203.6,299.3,220.5,301.4 M252.1,313.6
					c2,1.5,4.2,2.9,6.3,4.1l0.1,0.1l0.1,0.2c1.1,2.3,2.2,4.8,2.6,7.3l0.1,0.5l-0.4,0.2c-1.2,0.5-2.5,0.6-3.8,0.5
					c-1.9-0.2-3.7-1.1-5.2-2.2c-0.4-0.3-1-0.2-1.3,0.2c-0.3,0.4-0.2,1,0.2,1.3c1.8,1.3,3.8,2.3,6.1,2.5c1.3,0.2,2.6,0.1,3.8-0.3
					l0.8-0.2l-0.1,0.8c-0.2,2.3-1.3,4.1-3.2,5.3l0,0l0,0c-0.6,0.3-1.2,0.7-1.9,1l-0.1,0.1l-0.1,0c-2,0-4-0.3-5.8-1.2
					c-1.6-0.8-2.9-2-3.8-3.6c-0.2-0.4-0.8-0.6-1.3-0.4c-0.4,0.2-0.6,0.8-0.4,1.2c1.1,1.9,2.6,3.4,4.5,4.3l2.4,1.2l-2.7-0.2
					c-1.4-0.1-2.8-0.4-4.1-0.9c-5.1-2-9.1-7-11.9-11.6l0,0l0,0c-1.9-4.3-4.3-8.5-7.1-12.3c-1.9-2.6-4.1-5-6.5-7.2l-1-0.9l1.4,0
					c0.5,0,1,0,1.4,0c6.4,6.3,11.1,12.9,14.1,19.8c0.5,0.6,1.3,0.2,2.4-1.2C240.6,315.9,245.3,313.1,252.1,313.6z"/>
				<path class="st9" d="M246.9,274.8c2.4,4.3,5,9.8,4.9,14.2c0,1.9-0.6,3.5-1.9,4.9l-0.6,0.7l-0.3-0.9c-0.4-1.1-0.8-2.2-1.3-3.2
					c-0.7-1.7-1.6-3.3-2.5-4.8c-0.3-0.4-0.8-0.6-1.3-0.3c-0.4,0.3-0.6,0.8-0.3,1.3c0.9,1.5,1.7,3,2.4,4.6c0.6,1.3,1.1,2.7,1.6,4
					l0.2,0.4l-0.4,0.2c-0.7,0.4-1.3,0.7-2,0.9l-0.1,0l-0.1,0c-0.7,0.1-1.4,0.2-2,0.2l-0.2,0l-0.1-0.1c-1.2-0.8-2.2-1.9-3-3.1
					c-1.1-1.7-1.9-3.8-2.4-5.8c-0.1-0.5-0.6-0.8-1.1-0.7c-0.5,0.1-0.8,0.6-0.7,1.1c0.6,2.2,1.4,4.4,2.6,6.3c0.1,0.2,0.2,0.3,0.3,0.5
					l1.1,1.5l-1.7-0.7c-6.2-2.5-8.6-9.7-9.7-15.7l-0.1-0.5l0.5-0.2c2.8-1,5.3-2.4,7.4-4.3C239.4,274.3,243.1,274,246.9,274.8
					 M202.2,207.2c0.8,1.8,1.5,3.5,2.1,5.4l0,0l0,0c0,0,0,0.1,0,0.1l0,0c1,3.1,1.8,6.6,1.5,9.9l0,0c-0.2,2.8-1.2,5.4-3.2,7.4
					l-0.6,0.6l-0.4-0.7c-1.7-3.4-3.5-6.7-5.5-9.9c-0.3-0.4-0.8-0.6-1.3-0.3c-0.4,0.3-0.6,0.8-0.3,1.3c2.1,3.3,3.9,6.8,5.7,10.3
					l0.2,0.5l-0.4,0.3c-0.4,0.2-0.8,0.5-1.2,0.7c-0.8,0.4-1.7,0.7-2.5,0.9l-0.2,0.1l-0.2-0.1c-1.7-0.9-3.2-2-4.5-3.5
					c-1.4-1.7-2.2-3.6-2.8-5.7c-0.1-0.5-0.6-0.8-1.1-0.7c-0.5,0.1-0.8,0.6-0.7,1.1c0.6,2.4,1.6,4.6,3.1,6.4c0.6,0.7,1.3,1.4,2,2
					l1.2,1l-1.8,0c-1.6,0-3.8-0.3-5-1.5c-0.7-0.7-1.3-1.4-1.9-2.1c-4.6-5.6-7-12.4-6.3-19.7c0.4-5,2.4-10.8,6.1-14.4l0,0
					c0.2-0.2,0.5-0.5,0.8-0.7c0.9-0.7,1.8-1.5,2.7-2.2c6.1-5,13.9-10.9,16.5-18.6c0.2-0.5-0.1-1-0.6-1.2c0,0-0.1,0-0.1,0
					c0.5-0.9,0.8-1.8,1.2-2.5c1.2-0.5,1.7,0.1,1.6,1.6c-0.7,9-5.8,16.1-15.1,21.4c-7.6,5.9-10.8,13-9.6,21.2c0,0.3,0.2,0.5,0.5,0.5
					c0.3,0.1,0.5,0,0.7-0.2C186.2,211.9,194.3,206.3,202.2,207.2z M182.2,241.5c0.6,2.1,1,4.2,1.2,6.5c0.3,4.2,0.6,10.7-2.3,14.2
					c-1.2,1.5-2.8,2.3-4.6,2.9l-1.2,0.3l0.5-1.1c0.6-1.4,1-2.8,1.3-4.2c0.6-2.7,0.6-5.6,0.3-8.3c-0.1-0.5-0.5-0.9-1-0.8
					c-0.5,0.1-0.9,0.5-0.8,1c0.3,2.6,0.2,5.2-0.3,7.8c-0.4,2-1.1,4-2.2,5.8l-0.1,0.2l-0.3,0c-0.9,0.1-1.9,0.2-2.8,0.2
					c-1.7,0-3.4-0.1-5.1-0.5l-0.8-0.2l0.4-0.7c2.3-4.1,3.5-8.5,3.2-13.2c0-0.5-0.5-0.9-1-0.9c-0.5,0-0.9,0.5-0.9,1
					c0.3,4.6-1,8.8-3.3,12.7l-0.3,0.4l-0.5-0.2c-1.8-0.8-3.3-1.9-4.6-3.3c-2.4-2.8-3.3-6.4-3.3-10c0-2.6,0.3-5.3,0.9-7.9l0,0
					c0-0.1,0-0.1,0-0.2c0-0.2,0-0.4-0.1-0.5C163.5,233.1,172.6,232.8,182.2,241.5z M235.1,273.9c-2.3,2.2-5.1,3.7-8.3,4.7l0,0l0,0
					c-6.1,0.8-13,0.5-18-3.6c-8.8-7-8.1-22-6.8-32c0.1-0.5-0.3-1-0.8-1c-0.5-0.1-1,0.3-1,0.8c-1.1,8.8-1.7,20.7,2.9,28.7l0.3,0.5
					l-0.5,0.3c-2.9,1.4-6,2.1-9.2,2.2c-4.7,0.2-9.6-0.8-14.1-2.1c-0.3-0.1-0.6,0-0.8,0.2c-2.5-1.2-4.8-2.8-7-4.9
					c0.7,0,1.3-0.1,2-0.2l0,0c0,0,0.1,0,0.1,0l0,0c3.3-0.4,6.6-1.4,8.7-4.1c3.2-4,3-10.7,2.7-15.5c-0.4-5.8-2.2-11.1-5.6-15.8
					c-3.7-5.2-9-8.9-14.6-11.7c0,0-0.1,0-0.1,0l0,0l0,0c-6.7-3-12.8-7.3-16.7-13.5c-3.8-6.1-4.8-13.1-4.2-20.2c0-0.5-0.3-0.9-0.7-1
					c1-7,2.9-12.8,5.8-17.3c6.1,4.5,13.6,6.5,21,7.4c9,1,18.1,0.3,26.6-2.9c1.4-0.5,2.8-1.2,4.2-1.8c-0.1,2.7-0.4,5.5-0.7,8.5
					c-3.5,5-9,9.3-13.4,12.8c-0.9,0.7-1.8,1.5-2.7,2.2c-0.3,0.3-0.6,0.5-0.9,0.8c-4,3.9-6.2,10.1-6.7,15.5c-0.7,7.8,1.8,15,6.8,21
					c0.6,0.8,1.3,1.5,2,2.3c1.5,1.6,4.1,2,6.3,2.1c1.5,0,3.1-0.2,4.6-0.5l0,0l0,0c0,0,0.1,0,0.1,0l0,0l0,0c1.1-0.3,2.3-0.6,3.3-1.1
					l0.1,0c0.8-0.4,1.7-0.9,2.4-1.5c0,0,0,0,0.1-0.1c1.3-1,2.4-2.1,3.2-3.4c-2.2,12.1-2.4,22.7-0.8,31.9
					C209.2,275.8,219.3,279.9,235.1,273.9z"/>
				<path class="st10" d="M176.8,161.8c1.4,1.1,2.4,2.8,2.4,4.6c0,1.9-1,3.5-2.4,4.6c-1.7,1.4-3.9,2-6.1,2c-2.2,0-4.4-0.6-6.1-2
					c-1.4-1.1-2.4-2.8-2.4-4.6c0-1.9,1-3.5,2.4-4.6c1.7-1.4,3.9-2,6.1-2C172.9,159.8,175.1,160.5,176.8,161.8"/>
				<path class="st11" d="M163.6,170c-0.8-1-1.3-2.2-1.3-3.5c0-1.9,1-3.5,2.4-4.6c1.7-1.4,3.9-2,6.1-2l0.1,0
					c0.4,0.2,0.8,0.5,1.1,0.8c1.3,1,2.1,2.4,2.1,4.1s-0.9,3.1-2.1,4.1c-1.5,1.2-3.4,1.8-5.3,1.8C165.6,170.5,164.6,170.3,163.6,170"
					/>
				<path class="st6" d="M161.7,172.2c-5.4-1.5-10.4-4-14.4-7.9c-5-4.9-7.6-11.4-8.9-18.2l0-0.2l0.1-0.2c0.6-1.2,1.1-2.4,1.7-3.6
					c0.9-2.1,1.9-4.1,3-6.1l0.2-0.3l0.4,0c1,0.1,1.6,0.5,2.4,1c0.3,0.2,0.5,0.3,0.8,0.5l0.5,0.3L147,138c-0.5,0.7-1,1.3-1.6,1.9
					c-0.2,0.3-0.3,0.6-0.2,1c2.2,5.1,5.5,9.4,10.2,12.5c3.3,2.1,6.9,3.5,10.7,4.3l1.8,0.4l-1.7,0.7c-1,0.4-1.9,0.9-2.7,1.6
					c-1.9,1.5-3.1,3.6-3.1,6.1c0,1.8,0.7,3.4,1.8,4.8l1.2,1.4L161.7,172.2z"/>
				<path class="st12" d="M139.3,150.2c-0.4-1.4-0.7-2.7-1-4.2l0-0.2l0.1-0.2c0.6-1.2,1.1-2.4,1.7-3.6c0.9-2.1,1.9-4.1,3-6.1
					l0.2-0.3l0.4,0c1,0.1,1.6,0.5,2.4,1c0.3,0.2,0.5,0.3,0.8,0.5l0.5,0.3L147,138c-0.5,0.7-1,1.3-1.6,1.9c-0.2,0.3-0.3,0.6-0.2,1
					l0.1,0.2C143.6,142.8,141.6,145.8,139.3,150.2 M142.4,157.9c-0.7-1.2-1.3-2.4-1.8-3.7c1.1-3.2,3-6.8,5.8-10.7
					c0.6,1.2,1.3,2.3,2.1,3.3C146.6,149.4,144.5,153.1,142.4,157.9z"/>
				<path class="st6" d="M177.6,158.8c5.8,0.1,11.6-0.5,17.3-1.7c6.9-1.6,13.5-4.2,19.5-8l0,0l0,0c0,0,0.1,0,0.1-0.1l0.4-0.3
					l0.3,0.4c0.1,0.1,0.2,0.3,0.3,0.4l0.1,0.2l-0.1,0.2c-0.2,1.2-0.4,2.3-0.5,3.5c-0.1,1.1-0.1,2.2-0.1,3.3l0,0.2l-0.1,0.2
					c-0.5,0.6-1,1.2-1.5,1.8l0,0l-0.1,0.1c-4.7,5.4-10.6,9.4-17.3,12c-6,2.3-12.3,3.2-18.7,3.2l-1.9,0l1.6-1
					c0.3-0.2,0.6-0.4,0.9-0.7c1.9-1.5,3.1-3.6,3.1-6.1c0-2.4-1.2-4.6-3.1-6.1c-0.2-0.2-0.5-0.4-0.7-0.5l-1.6-1.1L177.6,158.8z"/>
				<path class="st13" d="M187.8,158.3c2.3-0.3,4.7-0.7,7-1.2c6.9-1.6,13.5-4.2,19.5-8l0,0l0,0c0,0,0.1,0,0.1-0.1l0.4-0.3l0.3,0.4
					c0.1,0.1,0.2,0.3,0.3,0.4l0.1,0.2l-0.1,0.2c-0.2,1.2-0.4,2.3-0.5,3.5c-0.1,1.1-0.1,2.2-0.1,3.3l0,0.2l-0.1,0.2
					c-0.5,0.6-1,1.2-1.5,1.8l0,0l-0.1,0.1c-4.7,5.4-10.6,9.4-17.3,12c-1.9,0.7-3.9,1.3-5.9,1.8c0.4-2.9,0.7-6.9,1-12
					c0.6,0.1,1.3,0.2,2.2,0.1c0.2,2.9,0.1,6.1-0.4,9.5c1.3-0.7,2.6-1.9,3.8-3.4c0.7-3.4,0.6-6.2-0.1-8.4
					C192.7,159,189.8,158.9,187.8,158.3"/>
				<path class="st8" d="M238.5,130.6l1.4-0.6l-0.5,1.3c-0.5,1.2-1.3,2.2-2.2,3.1c-1.6,1.5-3.7,2.4-5.9,2.7
					c-1.3,0.2-2.6,0.2-3.9,0.1c0,0-0.1,0-0.1,0h0l0,0c-3.7-0.3-7.7-1.4-11.2-2.6c-2.5-0.8-7.1-2.4-9.1-4.1c-0.4-0.3-1-0.3-1.3,0.1
					c-0.3,0.4-0.3,1,0.1,1.3c2.2,1.8,7,3.5,9.7,4.4c1.6,0.5,3.2,1,4.8,1.4l1.2,0.3l-1,0.7c-1.5,1.1-3.1,2.3-4.3,3.7
					c-1.3,1.4-2.5,3.1-2.9,5l-0.1,0.2l-0.2,0.1c-5.7,3.5-11.9,6-18.4,7.5c-7.3,1.7-14.8,2-22.2,1.5c-5.5-0.4-11.1-1.8-15.7-4.9
					c-4.1-2.7-7.1-6.4-9.1-10.8l-0.1-0.3l0.2-0.3c0.7-0.9,1.4-1.9,2-2.8l0,0l0,0c0,0,0.1-0.1,0.1-0.1l0,0l0,0c0.8-1.3,1.5-2.6,2.1-4
					c1.3-2.8,2.3-5.7,3.1-8.7l0.2-0.7l0.7,0.4c1.1,0.7,2.3,1.1,3.6,1.1c0.4,0,0.8,0,1.3,0c2.8-0.2,5.2-1.3,6.8-3.6
					c1.8-2.5,2.3-5.8,2.4-8.8c0-1,0-2.1-0.1-3.1l0,0c-0.4-4.5-0.4-9.6,1.1-13.8c1.2-3.2,3.3-5.7,6.5-7.1c0.5-0.2,0.7-0.8,0.5-1.2
					c-0.2-0.5-0.8-0.7-1.2-0.5c-3.7,1.6-6.1,4.4-7.5,8.2c-1.7,4.5-1.7,9.9-1.3,14.6c0.1,1,0.1,2,0.1,3c-0.1,2.6-0.5,5.6-2,7.7
					c-1.3,1.8-3.3,2.7-5.5,2.8c-0.4,0-0.7,0-1.1,0c-1,0-1.9-0.4-2.7-0.9c-0.5-0.3-1.1-0.7-1.5-1.1l0,0l0,0c0,0-0.1-0.1-0.1-0.1l0,0
					l0,0c-2.2-1.9-3.8-4.7-5-7.3c-1.9-4.4-2.9-9.3-2.8-14.1c0.1-4.6,1.2-9.2,3.6-13.2c2.7-4.6,7-7.9,11.9-9.9
					c4-1.7,10.4-3.1,14.6-1.2c0.3,0.1,0.7,0.1,0.9-0.1c5-3.9,10.7-6.6,16.9-7.8c6.5-1.2,13.1-0.7,19.4,1c2.9,0.8,4.9,2.4,6.9,4.6
					l1.4,1.5l-2-0.6c-1.2-0.4-2.4-0.8-3.6-1.5c-0.4-0.2-1-0.1-1.3,0.4c-0.2,0.4-0.1,1,0.4,1.3c2.6,1.5,5.7,2.2,8.7,2.5l0.1,0l0,0
					c1.7,0.5,3.4,0.9,5.1,1.2l2.3,0.4l-2.2,0.7c-1.3,0.4-2.9,1-4,1.9c-0.2,0.2-0.3,0.4-0.4,0.7c0,0.1,0,0.2,0,0.2
					c0.1,1.6,2.4,3.6,3.6,4.5c1.6,1.2,4.1,2.5,6.1,2.7c0.2,0,0.4,0,0.6,0c0.1,0,0.2,0,0.4-0.1c2.4-1.1,5.1-2.9,6.5-5.1
					c0.5-0.8,0.8-1.7,0.8-2.6c0-0.4-0.1-0.9-0.2-1.3l-0.3-0.8l0.9,0c0.5,0,1.1,0,1.6,0l0,0c0.6,0,1,0.6,1.2,1
					c0.5,0.9,0.8,2.2,0.9,3.2c0.2,1.4,0.2,2.8,0.1,4.2c-0.1,1.3-0.5,4.7-1.7,5.4c-0.1,0-0.1,0.1-0.1,0.1l0,0c-0.5,0.4-1,0.6-1.6,0.8
					l-0.1,0c-0.6,0.2-1.3,0.2-2,0.2c-1.9,0-4-0.7-5.7-1.4c-0.4-0.1-0.8-0.1-1,0.2l0,0c-3,2.9-6.3,5.4-9.9,7.5c-3.9,2.3-8,4-12.3,5.4
					l0,0l0,0c-0.8,0.2-1.6,0.4-2.4,0.5l-0.1,0l-0.1,0c-0.1,0-0.2,0-0.3,0l-0.1,0l-0.1,0c-1.3,0.2-2.6,0.2-3.8-0.2
					c-2-0.6-3.4-2.4-4.5-4.1l-0.1-0.1c-0.8-1.3-0.9-2.9-0.5-4.3c0.3-1.4,1.1-2.7,2.3-3.5c0.1-0.1,0.2-0.2,0.4-0.2
					c0.4-0.3,0.5-0.9,0.3-1.3c-0.3-0.4-0.9-0.5-1.3-0.3l-0.1,0.1c-0.1,0-0.1,0.1-0.2,0.1c-1.6,1.1-3,2.4-4.1,4
					c-1,1.6-0.5,2.6-0.6,4.5c0,0.2,0,0.4,0.2,0.6c1.4,2.2,3.4,4.4,5.7,5.4l0,0l0,0c0.6,0.4,1.2,0.7,1.9,0.9c1.2,0.4,2.5,0.4,3.7,0.3
					l0.4,0l0.2,0.4c0,0,0,0,0,0.1l0,0l0,0c2.4,6.5,6,14.4,11.5,18.8C227.2,132.2,232.6,132.8,238.5,130.6L238.5,130.6z"/>
				<path class="st14" d="M207.7,131.2c-0.3-0.2-0.6-0.4-0.8-0.6c-0.4-0.3-1-0.3-1.3,0.1c-0.3,0.4-0.3,1,0.1,1.3
					c2.2,1.8,7,3.5,9.7,4.4c1.5,0.5,3,0.9,4.6,1.3c-5.6,3.6-9.3,5.2-11.1,4.7c-5.2-1.6-8.1-5.8-8.6-12.7c-0.1-2.4,0.8-3.3,2.7-2.6
					c0.6,0.8,2.2,2.1,4.6,3.9L207.7,131.2z"/>
				<path class="st9" d="M199.3,154c-1.6,0.5-3.2,0.9-4.8,1.3c-7.3,1.7-14.8,2-22.2,1.5c-4-0.3-8-1.1-11.7-2.7
					c9-9.3,17.3-13.3,25-11.9C192.4,142.8,197,146.8,199.3,154"/>
				<path class="st3" d="M148.4,143.2c-0.4-0.7-0.7-1.4-1.1-2.1l-0.1-0.3l0.2-0.3c0.7-0.9,1.4-1.9,2-2.8l0,0l0,0
					c0,0,0.1-0.1,0.1-0.1l0,0l0,0c0.8-1.3,1.5-2.6,2.1-4c1.3-2.8,2.3-5.7,3.1-8.7l0.2-0.7l0.7,0.4c0.4,0.3,0.9,0.5,1.4,0.7
					C156.2,132.2,153.3,138.2,148.4,143.2"/>
				<path class="st14" d="M238.5,130.6l1.4-0.6l-0.5,1.3c-0.5,1.2-1.3,2.2-2.2,3.1c-1.6,1.5-3.7,2.4-5.9,2.7
					c-1.3,0.2-2.6,0.2-3.9,0.1c0,0-0.1,0-0.1,0h0l0,0l-0.2,0c3.5-0.2,5.9-1.1,7.3-2.7c-1.3,0.2-2.6,0.1-3.8-0.1
					c-11.6-1.9-19.7-10.7-24.4-25.9c0.1,0,0.2,0.1,0.4,0.1c1.2,0.4,2.5,0.4,3.7,0.3l0.4,0l0.2,0.4c0,0,0,0,0,0.1l0,0l0,0
					c2.4,6.5,6,14.4,11.5,18.8C227.2,132.2,232.6,132.8,238.5,130.6L238.5,130.6z"/>
				<path class="st14" d="M233.3,88.8c0.8,0.3,1.7,0.6,2.5,0.6c0.2,0,0.4,0,0.6,0c0.1,0,0.2,0,0.4-0.1c1.4-0.7,2.9-1.5,4.2-2.6
					c0.9,3.5,4,3.7,4.8,3.6c0.9-0.1,2.3-1.6,2.6-3.2c0,0.3,0,0.7-0.1,1c-0.1,1.3-0.5,4.7-1.7,5.4c-0.1,0-0.1,0.1-0.1,0.1l0,0
					c-0.5,0.4-1,0.6-1.6,0.8l-0.1,0c-0.6,0.2-1.3,0.2-2,0.2c-1.9,0-4-0.7-5.7-1.4c-0.4-0.1-0.8-0.1-1,0.2l0,0
					c-3,2.9-6.3,5.4-9.9,7.5c-3.9,2.3-8,4-12.3,5.4l0,0l0,0c-0.8,0.2-1.6,0.4-2.4,0.5l-0.1,0l-0.1,0c-0.1,0-0.2,0-0.3,0l-0.1,0
					l-0.1,0c-1.3,0.2-2.6,0.2-3.8-0.2c-1.9-0.6-3.3-2.3-4.4-4c4.7,2.4,11.2,1.4,19.8-2.8C228.8,95.9,232.4,92.2,233.3,88.8"/>
				<path class="st3" d="M178.2,75.8c5-3.9,10.7-6.6,16.9-7.8c6.5-1.2,13.1-0.7,19.4,1c2.9,0.8,4.9,2.4,6.9,4.6l1.4,1.5l-2-0.6
					c-1.2-0.4-2.4-0.8-3.6-1.5c-0.3-0.2-0.8-0.1-1,0.1c-12-5.4-24.4-3.9-37.2,4.3C177.7,77,177.4,76.4,178.2,75.8"/>
				<path class="st9" d="M177.7,87.6c-0.3-0.3-0.7-0.3-1-0.2c-3.7,1.6-6.1,4.4-7.5,8.2c-1.7,4.5-1.7,9.9-1.3,14.6c0.1,1,0.1,2,0.1,3
					c-0.1,2.6-0.5,5.6-2,7.7c-1.3,1.8-3.3,2.7-5.5,2.8c-0.4,0-0.7,0-1.1,0c-1,0-1.9-0.4-2.7-0.9c-0.5-0.3-1.1-0.7-1.5-1.1l0,0l0,0
					c0,0-0.1-0.1-0.1-0.1l0,0l0,0c-2.2-1.9-3.8-4.7-5-7.3c-1.9-4.4-2.9-9.3-2.8-14.1c0.1-4.6,1.2-9.2,3.6-13.2
					c2.7-4.6,7-7.9,11.9-9.9c4-1.7,10.4-3.1,14.6-1.2c0.2,0.1,0.5,0.1,0.7,0C181.5,79.9,181.4,83.8,177.7,87.6"/>
				<path class="st15" d="M151,116.2c-0.3-0.6-0.7-1.3-0.9-1.9c-1.9-4.4-2.9-9.3-2.8-14.1c0.1-4.6,1.2-9.2,3.6-13.2
					c2.7-4.6,7-7.9,11.9-9.9c4-1.7,10.4-3.1,14.6-1.2c0.2,0.1,0.5,0.1,0.7,0c0.4,0.5,0.9,1,1.2,1.5c-8.9-1.6-16.7,0.8-23.3,7.1
					c0,2.3-0.4,4.2-1.3,5.6c-1.4,1.9-2.9,3.4-4.4,4.3C148.4,101.3,148.7,108.6,151,116.2"/>
				<path class="st16" d="M236.1,87.6l-0.2,0c-1.7-0.1-3.8-1.3-5.2-2.3c-0.8-0.6-1.8-1.4-2.4-2.2l-0.4-0.5l0.6-0.3
					c1.4-0.7,3-1.2,4.5-1.6c2.3-0.5,4.8-0.8,7.1-0.7l0,0l0,0c0.6,0.1,1.3,0.3,1.7,0.7c0.3,0.3,0.4,0.6,0.4,1c0,0.6-0.3,1.2-0.6,1.6
					c-1.2,1.9-3.5,3.4-5.4,4.3L236.1,87.6z"/>
				<path class="st9" d="M292.7,237.5c-2.8,3.8-6.9,6.4-11.3,8c-6.2,2.2-13,2.4-19.4,1c-3.7-0.8-7.3-2.2-10.6-4l-0.1-0.1l-0.1-0.1
					c-1-1.5-2.1-2.8-3.3-4.1l-0.1-0.1l0-0.2c-0.2-3-0.7-6-1.7-8.8l-0.5-1.5l1.3,0.8c0.7,0.4,1.4,0.8,2.2,1.2
					c3.7,1.7,7.9,2.7,11.9,2.4c3.2-0.2,6.8-1.1,9.2-3.4c0.7-0.6,1.2-1.4,1.6-2.2c1-2.1,1.6-4.4,1.6-6.7c0-2.3-0.6-4.6-1.8-6.5
					c-1.3-2.2-3.3-3.8-5.6-4.9c-2.4-1.1-5-1.7-7.6-1.9l-1-0.1l0.6-0.8c0.2-0.3,0.5-0.6,0.8-0.9c2.5-2.6,6.5-3.8,10-4.3
					c3.8-0.5,8.1-0.3,11.6,1c1.5,0.5,2.9,1.3,4.1,2.4c4.1,4.1,6.6,8.9,6.8,14.7c0.3,6.8-2.4,13.7-5.5,19.6c-0.2,0.4-0.1,1,0.4,1.2
					c0.2,0.1,0.5,0.1,0.7,0.1c1.8-0.6,3.5-1.6,5.1-2.6l2.8-1.9L292.7,237.5z"/>
				<path class="st8" d="M292.7,237.5c-2.8,3.8-6.9,6.4-11.3,8c-4.2,1.5-8.7,2.1-13.1,1.9c4.9-1,8.8-3.7,10.4-6.3
					c3-4.7,4.2-14.9-0.4-22.3c0,2.7-0.3,5.1-0.9,7c-0.8-2.1-2.2-4.3-4.1-6.5c-0.1-2.2-0.7-4.3-1.8-6.1c-1.3-2.2-3.3-3.8-5.6-4.9
					c-2.4-1.1-5-1.7-7.6-1.9l-1-0.1l0.6-0.8c0.2-0.3,0.5-0.6,0.8-0.9c2.5-2.6,6.5-3.8,10-4.3c3.8-0.5,8.1-0.3,11.6,1
					c1.5,0.5,2.9,1.3,4.1,2.4c4.1,4.1,6.6,8.9,6.8,14.7c0.3,6.8-2.4,13.7-5.5,19.6c-0.2,0.4-0.1,1,0.4,1.2c0.2,0.1,0.5,0.1,0.7,0.1
					c1.8-0.6,3.5-1.6,5.1-2.6l2.8-1.9L292.7,237.5z"/>
				<path class="st17" d="M167.3,161.9c0.5,0.1,0.9,0.3,1.1,0.7c0.2,0.4,0.2,0.9,0.1,1.3c-0.2,0.5-0.6,0.9-1.1,1.2
					c-0.5,0.3-1,0.4-1.6,0.3c-0.5-0.1-0.9-0.3-1.1-0.7c-0.2-0.4-0.2-0.9-0.1-1.3c0.2-0.5,0.6-0.9,1.1-1.2
					C166.2,161.9,166.8,161.8,167.3,161.9"/>
				<g>
					<path class="st10" d="M276.5,79.3c8.8,0,16,7.1,16,16c0,8.8-7.1,16-16,16s-16-7.1-16-16C260.5,86.4,267.7,79.3,276.5,79.3"/>
					<path class="st11" d="M276.5,79.3c1,0,1.9,0.1,2.9,0.3c3.4,2.1,5.6,5.9,5.6,10.1c0,6.6-5.3,11.9-11.9,11.9
						c-6.2,0-11.3-4.8-11.9-10.9C263.1,84.1,269.3,79.3,276.5,79.3"/>
					<path class="st17" d="M271.1,81.9c3.3,0,6,2.7,6,6c0,3.3-2.7,6-6,6c-3.3,0-6-2.7-6-6C265.2,84.5,267.8,81.9,271.1,81.9"/>
					<path class="st18" d="M286.8,85c-2.6-2.6-6.2-4.2-10.2-4.2c-4,0-7.6,1.6-10.2,4.2c-2.6,2.6-4.2,6.2-4.2,10.2
						c0,4,1.6,7.6,4.2,10.2c2.6,2.6,6.2,4.2,10.2,4.2c4,0,7.6-1.6,10.2-4.2c2.6-2.6,4.2-6.2,4.2-10.2C291,91.3,289.4,87.6,286.8,85
						 M276.5,77.8c4.8,0,9.2,2,12.3,5.1c3.2,3.2,5.1,7.5,5.1,12.3c0,4.8-2,9.2-5.1,12.3c-3.2,3.2-7.5,5.1-12.3,5.1
						c-4.8,0-9.2-2-12.3-5.1c-3.2-3.2-5.1-7.5-5.1-12.3c0-4.8,2-9.2,5.1-12.3C267.3,79.8,271.7,77.8,276.5,77.8z"/>
				</g>
				<path class="st19" d="M251.6,241.9c3.5,1.9,7,3.2,10.5,4c6.9,1.5,13.6,1.1,19.1-1c4.6-1.7,8.4-4.4,11-7.8
					c-1.7,1.2-3.5,2.2-5.2,2.7c-0.4,0.1-0.8,0.1-1.1-0.1c-0.7-0.4-1-1.3-0.6-2c3.9-7.3,5.7-13.7,5.4-19.3
					c-0.3-5.5-2.5-10.3-6.7-14.4c-1-0.9-2.3-1.7-3.9-2.3c-3.3-1.2-7.4-1.5-11.4-0.9c-3.9,0.6-7.5,1.9-9.7,4.2
					c-0.3,0.3-0.5,0.5-0.7,0.8c3.1,0.2,5.7,0.9,7.8,1.9c2.6,1.3,4.6,3,5.8,5.1c1.3,2.1,1.9,4.4,1.9,6.8c0,2.3-0.5,4.7-1.6,7
					c-0.4,0.9-1,1.7-1.8,2.4c-2.2,2.1-5.6,3.3-9.6,3.5c-3.8,0.2-8.2-0.6-12.2-2.5c-0.8-0.4-1.5-0.8-2.2-1.2c1,2.8,1.6,5.8,1.8,8.9
					C249.6,239.1,250.7,240.5,251.6,241.9 M229.4,129.2c-0.4-1.8-0.2-3.7,0-5.8c0.2-2.5,0.5-5.1-0.6-7.5c-1.3-2.7-3.4-4.4-6-5.3
					c-2.6-0.9-5.8-1-9.2-0.5c3,7.7,6.4,13.1,10.2,16.2C225.6,127.8,227.4,128.7,229.4,129.2z M219.4,106.9c1.5,0.1,3,0.4,4.4,0.9
					c3.4,1.2,6.1,3.4,7.7,6.8c1.4,3.1,1.1,6.1,0.8,9c-0.2,2.2-0.4,4.2,0.3,5.8c1.6-0.1,3.2-0.4,4.9-1c1.4-0.6,1.9-1.7,1.5-3.6
					c-0.5-2.4-2.2-5.8-5-10.2c-0.1-0.2-0.3-0.4-0.4-0.6c-1.3-2.5-1.1-6,0.4-9.5c1.2-2.7,3.1-5.4,5.9-7.7c-1-0.2-2-0.5-3.1-0.9
					c-2.9,2.7-6.1,5.1-9.7,7.2C224.8,104.5,222.2,105.8,219.4,106.9z M263.8,326c0,0.1,0,0.1,0,0.2c0.1,0.6,0.1,1.2,0.1,1.7
					c-0.1,3.4-1.5,6-4.3,7.9l-0.1,0.1c-0.8,0.5-1.6,0.9-2.4,1.2l0,0c-4.4,1.9-8.7,2.1-12.8,0.5c-4.7-1.9-9.1-6.1-13.1-12.6
					c0-0.1-0.1-0.1-0.1-0.2c-1.9-4.4-4.2-8.3-6.9-11.9c-2.5-3.4-5.4-6.4-8.6-9.1c-18.7-0.4-35-6.1-49-16.9
					c-15.5-12-28-30.4-37.5-55.1c-0.3-0.4-0.6-0.9-0.8-1.4c0-0.1-0.1-0.2-0.1-0.3c-4-12.6-5.2-25.4-3.6-38.5
					c1.6-12.9,5.9-26,12.9-39.5c-0.6-2-1.1-4.1-1.5-6.2c-0.1-0.3,0-0.7,0.1-1c0.7-1.4,1.3-2.6,1.9-3.9c0.9-2,1.9-4.2,3.5-7
					c0.2-0.4,0.7-0.8,1.2-0.8c2.4-0.2,3.6,0.6,4.8,1.4c0.2,0.2,0.5,0.3,0.8,0.5c0.5-0.9,1-1.8,1.4-2.8c1.3-2.7,2.3-5.9,3.3-9.6
					c-1.9-1.9-3.6-4.5-5-7.6c-1.9-4.4-3.1-9.7-3-15.1c0.1-4.9,1.3-9.8,3.9-14.3c3.1-5.2,8-8.8,13-10.9c5.7-2.4,11.7-2.8,15.6-1.5
					c5.3-4,11.1-6.6,17.3-7.8c6.4-1.2,13.2-0.9,20.5,1c4.3,1.1,6.7,3.7,9,6.2c0.7,0.7,1.3,1.4,2,2.1c2.2,0.7,4.9,1.2,8.1,1.5
					c3.4,0.4,7.4,0.6,12,0.7l0.1,0v0c1.4,0.1,2.4,0.9,3.1,2.2c0.6,1.1,1,2.5,1.2,4.1c0.2,1.5,0.2,3.2,0.1,4.7
					c-0.2,3.3-1.2,6.3-2.8,7.3c-0.7,0.5-1.5,0.9-2.3,1.2c-0.6,0.3-1.2,0.7-1.8,1c-3.4,2.2-5.7,5.1-6.9,7.9c-1.2,2.7-1.3,5.3-0.5,7
					c0.1,0.2,0.1,0.3,0.2,0.4c3,4.7,4.9,8.5,5.4,11.3c0.1,0.3,0.1,0.6,0.1,0.9c0.1,0.1,0.1,0.2,0.1,0.4c0.2,1.3,0.2,2.5,0.1,3.7
					c-0.3,2.8-1.7,5.2-3.6,6.9c-1.9,1.7-4.4,2.9-7.1,3.3c-1.5,0.3-3.1,0.3-4.6,0.1l-0.1,0c-0.9-0.1-1.8-0.2-2.8-0.4
					c-2.8,1.7-4.9,3.3-6.4,4.9c-0.8,0.8-1.3,1.6-1.7,2.4c0.2,0.2,0.4,0.4,0.5,0.6c0.4,0.5,0.9,1.1,1.3,1.7c0.2,0.3,0.3,0.8,0.2,1.2
					c-0.3,1.3-0.5,2.6-0.6,3.8c-0.1,1.2-0.1,2.4,0,3.5l0,0c0,0.4-0.1,0.7-0.3,1c-0.3,0.4-0.7,0.9-1,1.3c2.8,2.7,5.1,5.7,6.8,9
					c2,3.7,3.2,7.7,3.9,12.2l0,0c0.9,8.7-0.4,15.9-3.9,21.4c-0.6,0.9-1.2,1.7-1.8,2.5c8.4,3.9,14.9,8.6,19.5,13.9
					c1.2,1.4,2.2,2.8,3.1,4.2c1.9,2,4.1,3.5,6.4,4.6c3.6,1.7,7.4,2.4,10.8,2.2c3.2-0.2,6-1.1,7.7-2.7c0.5-0.5,0.9-1,1.1-1.5
					c0.9-1.9,1.3-3.8,1.3-5.7c0-1.9-0.5-3.7-1.5-5.3c-1-1.6-2.5-3-4.6-4c-2.3-1.1-5.3-1.7-8.9-1.7c-0.8,0-1.5-0.7-1.5-1.5
					c0-0.2,0-0.4,0.1-0.6c0.5-1.4,1.4-2.7,2.4-3.8c2.7-2.7,6.9-4.4,11.4-5c4.4-0.6,9.1-0.3,12.8,1.1c2,0.7,3.7,1.7,4.9,3
					c4.7,4.7,7.2,10.1,7.5,16.3c0.2,5.1-1,10.7-3.8,16.9c0.5-0.3,1.1-0.7,1.6-1.1l0.1-0.1c1.9-1.4,3.4-2.9,4-4
					c0.4-0.7,1.3-0.9,2-0.5c0.6,0.3,0.8,1,0.7,1.6c-0.4,1.9-1.1,3.7-2.1,5.4c-2.8,5.1-7.8,9-13.9,11.2c-6.1,2.2-13.3,2.7-20.8,1.1
					c-2.5-0.6-4.9-1.3-7.4-2.4c0.6,1.5,1.1,2.9,1.4,4.3c1.4,6,0.2,11.3-1.5,13.8c-1.3,1.9-2.9,3.2-4.2,4.4c-1.3,1.1-2.2,1.9-2.2,2.5
					c4.4,7.5,6.6,13.3,6.5,17.7c-0.1,4.8-2.8,8-8.2,10.1c-0.1,0.1-0.3,0.1-0.4,0.1c-0.6,0.1-1.1,0.1-1.7,0.2
					c0.6,2.6,2.1,5.1,4.4,7.6c2.7,3,6.6,5.9,11.7,8.8c0.2,0.1,0.4,0.3,0.6,0.6C262.5,320,263.5,323.2,263.8,326z M202.6,233.3
					C202.6,233.3,202.6,233.3,202.6,233.3c-0.9,0.6-1.7,1.2-2.6,1.6l-0.1,0c-1,0.5-2.2,0.9-3.4,1.2c-0.1,0-0.2,0-0.2,0.1
					c-1.6,0.4-3.2,0.5-4.8,0.5c-2.7,0-5.2-0.7-6.7-2.2c-0.7-0.7-1.4-1.5-2.1-2.3c-5.8-7-7.5-14.7-6.9-21.4
					c0.6-6.8,3.5-12.6,6.8-15.9c0.3-0.3,0.6-0.6,0.9-0.8c1.1-0.9,1.9-1.6,2.7-2.2c7.6-6.2,13.6-11.1,15.7-17.5
					c0.3-0.8,1.1-1.2,1.9-0.9c0.8,0.3,1.2,1.1,0.9,1.9c-2.4,7.3-8.7,12.4-16.7,18.9c-1,0.8-1.9,1.6-2.7,2.2
					c-0.2,0.2-0.5,0.4-0.7,0.7l0,0c-2.9,2.8-5.4,8-5.9,14c-0.5,6.1,1,13,6.2,19.3c0.6,0.7,1.2,1.4,1.9,2.1c0.9,0.9,2.6,1.3,4.6,1.4
					h0.2c-0.8-0.6-1.5-1.3-2.1-2.1c-1.5-1.9-2.6-4.1-3.2-6.7c-0.2-0.8,0.3-1.6,1.1-1.8c0.8-0.2,1.6,0.3,1.8,1.1
					c0.5,2.2,1.4,4,2.6,5.5c1.1,1.4,2.5,2.5,4.3,3.4c0.9-0.2,1.7-0.5,2.4-0.9c0.4-0.2,0.8-0.4,1.1-0.6c-2-4-3.9-7.5-5.6-10.2
					c-0.4-0.7-0.2-1.6,0.5-2c0.7-0.4,1.6-0.2,2,0.5c1.7,2.8,3.6,6.1,5.5,9.9c1.8-1.9,2.8-4.2,3.1-7.1l0,0c0.2-2.8-0.3-6-1.5-9.7
					c0,0,0-0.1,0-0.1l0,0c-0.8-2.4-1.9-5-3.3-7.9c-0.4-0.7-0.1-1.6,0.7-2c0.7-0.4,1.6-0.1,2,0.7c1.2,2.5,2.2,4.8,3,7
					c4.7-1.5,8.5-3.6,11.4-6.5c0,0,0,0,0.1-0.1c1.1-1.1,2-2.2,2.8-3.5c3.2-5,4.3-11.5,3.5-19.5c-0.6-4.1-1.8-7.8-3.5-11.2
					c-1.6-3-3.6-5.7-6.1-8.2c-4.7,5.1-10.5,9-17.3,11.6c-7.8,3-16.8,4.1-26.9,2.9c-11.3-1.3-19.1-4.9-24.5-10.2
					c-3-2.9-5.2-6.3-6.8-10c-6.1,12.3-9.9,24.3-11.3,36c-1.5,12.6-0.4,25,3.4,37.1c2,3.6,4.9,6.4,8.7,8.4c3.9,2.1,8.8,3.4,14.6,3.9
					c0.8,0.1,1.4,0.8,1.4,1.6c0,0.1,0,0.2-0.1,0.3c-0.7,2.9-1,5.5-0.9,7.8c0.1,4.3,1.3,7.5,3.2,9.7c1.2,1.4,2.7,2.4,4.4,3.2
					c2.4-4,3.5-8.1,3.2-12.4c0-0.8,0.6-1.5,1.4-1.6c0.8,0,1.5,0.6,1.6,1.4c0.3,4.6-0.8,9.1-3.3,13.5l0,0c1.6,0.4,3.3,0.5,4.9,0.5
					c1,0,1.9-0.1,2.8-0.2c1-1.7,1.7-3.6,2.1-5.6c0.5-2.3,0.6-4.8,0.3-7.6c-0.1-0.8,0.5-1.5,1.3-1.6c0.8-0.1,1.5,0.5,1.6,1.3
					c0.3,3.1,0.2,5.9-0.3,8.5c-0.3,1.5-0.8,3-1.3,4.3c1.9-0.6,3.3-1.4,4.3-2.7c2-2.5,2.7-6.8,2.1-13.8c-0.4-5.5-2.1-10.3-5.1-14.5
					c-3.1-4.3-7.6-7.9-13.7-11l-0.1,0c-8.1-3.6-14-8.5-17.8-14.5c-3.8-6.1-5.3-13.3-4.5-21.7c0.1-0.8,0.8-1.4,1.6-1.3
					c0.8,0.1,1.4,0.8,1.3,1.6c-0.7,7.7,0.7,14.4,4.1,19.9c3.4,5.5,8.9,9.9,16.5,13.3c0.1,0,0.1,0,0.2,0.1
					c6.6,3.3,11.5,7.2,14.8,11.9c3.4,4.7,5.2,10,5.7,16c0.6,7.8-0.2,12.7-2.8,15.9c-2,2.5-5,3.8-9.1,4.3c-0.1,0-0.1,0-0.2,0
					c-1.1,0.1-2.4,0.2-3.7,0.3h0c-1.9,0-3.8-0.1-5.7-0.6c-0.7-0.2-1.4-0.4-2.1-0.6l-0.1,0c-2.5-0.9-4.9-2.3-6.7-4.5
					c-2.3-2.7-3.8-6.5-3.9-11.6c0-2.1,0.2-4.4,0.7-6.9c-5.5-0.6-10.2-2-14-4.1c-1.2-0.7-2.4-1.4-3.4-2.2
					c8.9,20.6,20.1,36.1,33.6,46.6c15,11.6,32.8,17.1,53.6,16.3c0.8,0,1.5,0.6,1.5,1.4c0,0.8-0.6,1.5-1.4,1.5c-0.7,0-1.4,0-2,0.1
					c2.4,2.2,4.5,4.7,6.5,7.3c2.8,3.7,5.2,7.8,7.2,12.4c3.7,6,7.6,9.8,11.6,11.4c1.3,0.5,2.6,0.8,3.9,0.9c-2-1-3.6-2.6-4.7-4.6
					c-0.4-0.7-0.1-1.6,0.6-2c0.7-0.4,1.6-0.1,2,0.6c0.8,1.5,2,2.6,3.5,3.4c1.5,0.8,3.4,1.1,5.6,1.2c0.6-0.3,1.2-0.6,1.8-0.9
					c1.7-1.2,2.7-2.8,2.9-4.9c-1.3,0.4-2.7,0.5-4,0.3c-2.1-0.3-4.2-1.1-6.3-2.6c-0.7-0.5-0.8-1.4-0.4-2.1c0.5-0.7,1.4-0.8,2.1-0.4
					c1.7,1.2,3.4,1.9,5,2.1c1.2,0.1,2.4,0,3.5-0.4c-0.4-2.1-1.2-4.4-2.6-7.1c-5.1-3-9.2-6-12-9.1c-2.9-3.1-4.6-6.3-5.3-9.6
					c-7.9-0.7-12.9-6.8-15.1-18.4c-9.9,1.1-17.1-1.2-21.6-6.9c-3.1,1.6-6.6,2.5-10.5,2.6c-4.4,0.2-9.4-0.6-14.9-2.2
					c-0.8-0.2-1.2-1.1-1-1.8c0.2-0.8,1.1-1.2,1.8-1c5.2,1.5,9.8,2.2,13.9,2.1c3.4-0.1,6.4-0.8,9-2.1c-3.7-6.4-4.7-16.1-3-29.1
					c0.1-0.8,0.8-1.4,1.7-1.3c0.8,0.1,1.4,0.8,1.3,1.7c-3.3,25.9,4.7,37.5,24.2,34.9c4.2-1.3,7.5-3.4,9.8-6.5v0
					c2.4-3.1,3.9-7.2,4.4-12.3c0.1-0.8,0.8-1.4,1.6-1.3c0.8,0.1,1.4,0.8,1.3,1.6c-0.6,5.6-2.3,10.2-5,13.8l0,0
					c-2.5,3.3-5.9,5.7-10.2,7.2c1.5,8.3,4.7,13.3,9.4,15.2c-0.1-0.2-0.2-0.3-0.3-0.5c-1.1-1.7-2-3.9-2.7-6.5
					c-0.2-0.8,0.3-1.6,1.1-1.8c0.8-0.2,1.6,0.3,1.8,1.1c0.6,2.3,1.4,4.1,2.3,5.6c0.8,1.3,1.8,2.2,2.8,2.9c0.6,0,1.3-0.1,2-0.2
					c0.7-0.3,1.4-0.6,2-0.9c-0.5-1.4-1-2.7-1.6-4c-0.7-1.6-1.5-3.1-2.4-4.6c-0.4-0.7-0.2-1.6,0.5-2c0.7-0.4,1.6-0.2,2,0.5
					c0.9,1.6,1.8,3.2,2.5,4.9c0.5,1.1,0.9,2.2,1.3,3.3c1.1-1.2,1.7-2.7,1.7-4.5c0.1-3.9-2-9.2-6.2-16.4c-0.1-0.1-0.1-0.2-0.1-0.3
					c-0.8-2.5,0.9-3.9,3-5.7c1.2-1,2.6-2.2,3.7-3.8c1.4-2,2.2-6.3,1-11.4c-0.5-2.3-1.5-4.8-3.1-7.3c-0.2-0.2-0.3-0.4-0.4-0.6
					c-0.4-0.6-0.9-1.3-1.4-1.9c-0.2,1.1-0.4,2.2-0.6,3.2c-0.3,1.8-0.5,3.4-0.6,4.9c-0.1,0.8-0.8,1.4-1.6,1.4
					c-0.8-0.1-1.4-0.8-1.4-1.6c0.1-1.5,0.3-3.2,0.7-5.2c0.3-1.8,0.7-3.8,1.2-6c-0.3-6.7-2.7-12.6-7.1-17.9
					c-4.4-5.2-10.9-9.7-19.4-13.5c-3.1,2.8-7,5-11.8,6.5c1,3.5,1.4,6.7,1.2,9.5l0,0C207.9,227.3,206,230.7,202.6,233.3z
					 M176.5,162.3c-1.4-1.2-3.5-1.9-5.7-1.9c-2.2,0-4.3,0.7-5.7,1.9c-1.4,1.1-2.2,2.6-2.2,4.2c0,1.6,0.8,3.1,2.2,4.2
					c1.4,1.2,3.5,1.9,5.7,1.9c2.2,0,4.3-0.7,5.7-1.9c1.4-1.1,2.2-2.6,2.2-4.2C178.7,164.8,177.8,163.4,176.5,162.3z M161.8,171.6
					c-1.2-1.5-1.9-3.2-1.9-5.2c0-2.6,1.3-4.9,3.3-6.5c0.8-0.7,1.8-1.2,2.8-1.6c-4.2-0.9-7.8-2.4-10.9-4.4c-4.6-3-8.1-7.3-10.4-12.7
					c-0.2-0.5-0.1-1.1,0.3-1.6c0.5-0.6,1-1.2,1.5-1.9c-0.3-0.2-0.5-0.3-0.8-0.5c-0.6-0.4-1.3-0.8-2.2-0.9c-1.3,2.4-2.2,4.3-3,6.1
					c-0.6,1.2-1.1,2.4-1.7,3.6c1.3,7,3.9,13.2,8.7,17.9C151.1,167.3,155.7,169.9,161.8,171.6z M177.6,159.4c0.3,0.2,0.5,0.4,0.8,0.6
					c2,1.6,3.3,3.9,3.3,6.5c0,2.6-1.3,4.9-3.3,6.5c-0.3,0.2-0.6,0.5-1,0.7c6.8,0,13-1.1,18.5-3.2c6.7-2.6,12.5-6.6,17.1-11.8
					l0.1-0.1l0,0c0.5-0.6,1-1.2,1.5-1.8c-0.1-1.1,0-2.2,0.1-3.4c0.1-1.1,0.3-2.3,0.5-3.6c-0.1-0.1-0.2-0.3-0.3-0.4
					c0,0-0.1,0.1-0.1,0.1c-5.9,3.8-12.5,6.5-19.6,8.1C189.5,158.9,183.7,159.5,177.6,159.4z M205.3,92.9c1.1,1.7-2.1,2.6-2.8,5.5
					c-0.3,1.3-0.2,2.8,0.5,3.9l0.1,0.1c1.4,2.2,2.7,3.4,4.2,3.9c1,0.3,2.1,0.3,3.6,0.2c0.2-0.1,0.3-0.1,0.5-0.1
					c0.7-0.1,1.5-0.3,2.4-0.5c4.5-1.4,8.5-3.2,12.2-5.4c3.6-2.1,6.9-4.6,9.7-7.4c0.4-0.4,1.1-0.6,1.7-0.4c2.2,0.9,4,1.4,5.5,1.4
					c0.7,0,1.3-0.1,1.8-0.2l0.1,0c0.5-0.2,1-0.4,1.4-0.7c0.1-0.1,0.1-0.1,0.2-0.2c0.7-0.4,1.3-2.5,1.5-5c0.1-1.4,0.1-2.8-0.1-4.1
					c-0.2-1.2-0.5-2.3-0.9-3c-0.2-0.4-0.5-0.7-0.8-0.7c-0.6,0-1.1,0-1.6,0c0.2,0.5,0.3,1,0.3,1.5c0,0.9-0.3,1.9-0.9,2.9
					c-1.1,1.8-3.4,3.8-6.7,5.3c-0.2,0.1-0.4,0.1-0.6,0.2c-0.2,0-0.5,0-0.7,0c-2-0.1-4.5-1.3-6.4-2.8c-2.1-1.5-3.7-3.5-3.8-4.9
					c0-0.1,0-0.2,0-0.3c0-0.4,0.2-0.8,0.6-1.1c1-0.7,2.4-1.4,4.2-2c-1.9-0.3-3.7-0.7-5.2-1.2c-3.5-0.4-6.4-1.3-8.9-2.6
					c-0.7-0.4-1-1.3-0.6-2c0.4-0.7,1.3-1,2-0.6c1,0.6,2.2,1,3.5,1.4c-1.8-1.9-3.7-3.6-6.7-4.4c-6.8-1.8-13.2-2.1-19.2-1
					c-6,1.1-11.5,3.7-16.7,7.7c-0.4,0.3-1,0.4-1.5,0.2c-3.1-1.4-8.7-1.1-14.1,1.2c-4.5,1.9-8.9,5.1-11.6,9.7
					c-2.4,4-3.4,8.5-3.5,12.9c-0.1,5,1,9.9,2.8,13.9c1.3,3,3,5.5,4.8,7.1c0,0,0.1,0.1,0.1,0.1c0.5,0.4,1,0.8,1.4,1.1
					c0.8,0.5,1.7,0.8,2.5,0.8c0.3,0,0.7,0,1.1,0c2.2-0.2,3.9-1,5-2.6c1.2-1.7,1.9-4.2,1.9-7.4c0-0.9,0-1.9-0.1-2.9
					c-0.6-6.1-0.1-11,1.3-14.9c1.5-4,4.1-6.9,7.8-8.5c0.8-0.3,1.6,0,2,0.8c0.3,0.7,0,1.6-0.8,2c-2.9,1.3-5,3.6-6.2,6.8
					c-1.3,3.4-1.7,8-1.1,13.6l0,0c0.1,1.1,0.1,2.1,0.1,3.2c-0.1,3.9-0.9,6.9-2.5,9.1c-1.7,2.3-4.1,3.6-7.3,3.8c-0.4,0-0.8,0-1.3,0
					c-1.3,0-2.6-0.5-3.9-1.2l-0.1-0.1c-0.9,3.3-1.9,6.2-3.1,8.8c-0.7,1.5-1.4,2.8-2.2,4.1c0,0.1-0.1,0.1-0.1,0.2
					c-0.7,1.1-1.4,2-2.1,2.9c2,4.5,5,8,8.9,10.6c4.1,2.7,9.3,4.3,15.5,4.8c8,0.6,15.3,0.1,22.1-1.5c6.7-1.5,12.7-4,18.2-7.4
					c0.4-1.8,1.4-3.5,3-5.2c1.2-1.2,2.6-2.5,4.4-3.7c-1.6-0.4-3.2-0.9-4.8-1.4c-4.3-1.4-8.2-3.1-9.8-4.5c-0.6-0.5-0.7-1.4-0.2-2.1
					c0.5-0.6,1.4-0.7,2.1-0.2c1.4,1.1,4.9,2.6,8.9,4c3.7,1.2,7.9,2.2,11.1,2.5c0.1,0,0.1,0,0.2,0c1.3,0.2,2.6,0.1,3.8-0.1
					c2.2-0.4,4.1-1.3,5.6-2.6c0.9-0.8,1.6-1.8,2.1-2.9l-0.1,0.1l0,0c-6.2,2.3-11.8,1.5-16.7-2.5c-4.5-3.7-8.4-10-11.7-19.1
					c0,0,0-0.1,0-0.1c-1.5,0.1-2.7,0-3.9-0.4c-6.5-2.1-10.3-7.2-7.6-12.2c1-1.6,3.1-3.2,4.7-4.1C204.1,92.3,204.8,92.2,205.3,92.9z
					 M236,87c2.6-1.3,4.4-2.7,5.2-4.1c0.3-0.5,0.5-1,0.5-1.3c0-0.2-0.1-0.4-0.2-0.6c-0.3-0.3-0.7-0.4-1.4-0.5
					c-2.3-0.1-4.8,0.2-7,0.7c-1.7,0.4-3.2,0.9-4.3,1.5c0.4,0.6,1.3,1.3,2.3,2.1C232.6,86,234.5,86.9,236,87L236,87z"/>
			</g>
		</g>
		<path class="st20" d="M236.7,83.8l-0.1,0c-1,0-2.1-0.5-2.9-0.8c-0.4-0.2-1-0.5-1.4-0.8l-0.2-0.2l0.3-0.1c0.8-0.2,1.7-0.4,2.5-0.5
			c1.3-0.2,2.7-0.3,4-0.3l0,0l0,0c0.3,0,0.7,0.1,1,0.2c0.1,0.1,0.2,0.2,0.2,0.3c0,0.2-0.2,0.4-0.3,0.6
			C239.2,82.9,237.9,83.4,236.7,83.8L236.7,83.8z"/>
		<g>
			<path class="st21" d="M202.3,85.6c-1.1,0.6-2.2,1.1-3.2,0.1c-0.7-0.7-1-1.9-1.2-2.8c-0.4-1.8,0.2-3.7,1.2-5.3
				c0.5-0.7,1.2-1.7,2.2-1.9c1-0.2,1.8,0.3,2.2,1.1c0.6,1,0.8,2.1,0.9,3.1c0.1,0.9,0.3,1.9,0.3,2.8c0,0,0,0,0,0.1
				c-0.5,1.1-1.2,2.2-2.2,3C202.6,85.6,202.5,85.5,202.3,85.6z"/>
			<path class="st22" d="M199.3,85.8c0.9,0.9,2,0.5,3-0.1c0.3-0.1,0.5,0.2,0.3,0.3c-0.8,0.8-2.3,1.5-3.5,1c-1.2-0.5-2-1.6-2.5-2.7
				c-1-2.3-0.4-4.9,1-7c0.7-1.1,1.7-2.1,3.1-2.5c1.3-0.4,2.9,0,3.8,0.9c2,2,1.4,5,0.6,7.3c-0.1,0.2-0.5,0.2-0.5-0.1
				c0-0.9-0.2-1.8-0.3-2.6c-0.1-1-0.3-2.1-0.9-3c-0.4-0.7-1.2-1.2-2.1-1c-1,0.2-1.6,1.1-2,1.8c-1,1.5-1.5,3.3-1.2,5
				C198.4,84.1,198.6,85.1,199.3,85.8z"/>
		</g>
		<g>
			<path class="st23" d="M202.6,82.6c0.4,0.1,1.2,0.3,1.5,0.7c-0.4,1-1.3,1.7-2.3,1.7c-1.1,0-2.1-0.8-2.4-2
				C200.4,82.5,201.5,82.2,202.6,82.6z"/>
			<path class="st24" d="M201.9,79.3c1.4,0,2.5,1.3,2.5,2.8c0,0.4-0.1,0.8-0.2,1.2c-0.4-0.4-1.2-0.6-1.5-0.7
				c-1.1-0.3-2.2-0.1-3.1,0.4c-0.1-0.3-0.1-0.6-0.1-0.8C199.4,80.5,200.5,79.3,201.9,79.3z"/>
			<path class="st25" d="M201.9,81.2c-0.5,0-0.8,0.4-0.8,0.9"/>
			<path class="st21" d="M202.1,80.5c0,0.4,0.3,0.7,0.7,0.7c0.4,0,0.7-0.3,0.7-0.7c0-0.4-0.3-0.7-0.7-0.7
				C202.4,79.8,202.1,80.1,202.1,80.5z"/>
		</g>
		<g>
			<path class="st26" d="M226.4,131.3c-1.7-0.7-2.6-2.8-3-4.9c-0.7-3.7-1.6-6.9-2.7-10.3c-0.4-1.1-0.1-2.9,1.1-2.6
				c0.8,0.1,1.5,0.4,2.2,0.8c0.9,1.2,1.6,2.6,2.2,4.1c1.2,2.9,2,6.2,2.4,9.4c0,0.1,0.1,0.1,0.1,0c0.4-3.5-0.4-7.2-1.7-10.2
				c-0.2-0.5-0.4-0.9-0.6-1.3c0.2-0.5,0.5-0.9,0.9-1.1c0.1-0.1,0.2-0.1,0.3-0.1c1.5,1.4,2.8,3.1,3.6,5.2c0.7,1.8,1.1,3.8,1.1,5.7
				c0.1,1.8,0,3.9-0.8,5.5c0,0,0,0.1-0.1,0.1C229.9,132.2,227.9,131.9,226.4,131.3z"/>
			<path class="st27" d="M219.3,111c0.7,0.2,1.4,0.4,2.1,0.6c0.3,0.2,0.6,0.4,0.9,0.7c0.5,0.5,1.1,1,1.5,1.6
				c0.1,0.1,0.1,0.2,0.2,0.3c-0.7-0.4-1.4-0.7-2.2-0.8c-1.2-0.2-1.4,1.5-1.1,2.6c1.1,3.4,2,6.7,2.7,10.3c0.4,2.2,1.3,4.2,3,4.9
				c1.5,0.6,3.5,0.9,5.1,0.2c-0.8,1.6-2.2,2.1-3.8,2c-1.4-0.1-2.8-0.7-3.8-2c-2-2.5-2.4-6.4-2.9-9.7c-0.6-3.3-1.3-7-3.8-9
				c-0.1-0.1-0.3,0.1-0.2,0.3c0.7,0.9,1.1,1.9,1.5,3c-0.2-0.2-0.4-0.4-0.6-0.6c-1.4-1.4-2.6-3-3.7-4.8
				C215.8,110.3,217.6,110.6,219.3,111z"/>
			<path class="st28" d="M213.5,109.6c2.4-0.8,5.1-0.1,7.5,0.6c1.5,0.4,3,1,4.5,1.7c0.5,0.4,1.1,0.7,1.7,0.9c0,0,0,0.1,0,0.1
				c0.1,0.1,0.2,0.1,0.2,0.2c1.9,1.5,3.6,3.5,4.6,5.9c0.8,1.9,1.2,3.9,1.4,6c0,0.2,0,0.3,0,0.5c0,1.1-0.1,2.2-0.1,3.4
				c-0.3,2.6-1.4,5-3.7,5.7c-1.6,0.5-3.5,0.1-5-0.7c-1.3-0.7-2.2-2.1-2.9-3.5c-0.8-1.8-1.3-3.9-1.7-6c0,0,0,0,0,0
				c-0.2-2.9-0.9-5.8-1.8-8.5c0,0,0.1,0.1,0.1,0.1c-0.3-1.1-0.8-2.2-1.5-3c-0.1-0.1,0-0.4,0.2-0.3c2.5,2,3.2,5.7,3.8,9
				c0.6,3.3,0.9,7.1,2.9,9.7c1,1.3,2.4,1.8,3.8,2c1.6,0.1,3-0.4,3.9-2.1c0.8-1.6,0.9-3.7,0.8-5.5c-0.1-2-0.4-3.9-1.1-5.7
				c-1.4-3.6-4.1-6-7.1-7.4c0.1,0.1,0.2,0.2,0.2,0.3c1.1,1.3,1.9,2.9,2.6,4.5c1.3,3.1,2.1,6.8,1.7,10.2c0,0.1-0.1,0.1-0.1,0
				c-0.4-3.2-1.2-6.4-2.4-9.4c-0.6-1.6-1.4-3-2.4-4.3c-0.5-0.6-1-1.1-1.5-1.6c-0.3-0.3-0.6-0.5-0.9-0.7c-0.7-0.2-1.4-0.4-2.1-0.6
				c-1.6-0.4-3.4-0.8-5.1-0.3c0.1,0.1,0.2,0.3,0.3,0.4C214.1,110.6,213.8,110.1,213.5,109.6z"/>
		</g>
	</g>
	<g>
		<g>
			<g>
				<path class="st29" d="M61.2,300.9l2-8.3c1.8-7.6,3.7-15.4,5.5-23.1c-2.1,0.5-4.8,0.6-7-1c-2.2-1.6-3.3-4.2-3.1-7.9
					c0.6-12.1,14.8-27.8,30.4-33.5c7.4-2.7,13.3-2.4,17.7,0.8c4.5,3.3,6.7,9.4,6.3,17.6c-0.9,17.4-11.5,40.5-24.5,45.4
					c-2.3,0.9-4.6,1.1-6.9,0.9l-0.2,0.9l-2.1,0.8c-3.4,1.3-6.8,2.7-10.2,4.1L61.2,300.9z M83.2,246.4c-3.2,13.3-6.4,26.7-9.6,40
					c0.1-0.1,0.3-0.1,0.4-0.2l1.4-6.3l0.1,0c2.7-11.3,5.4-22.6,8.2-33.8C83.5,246.3,83.4,246.4,83.2,246.4z M94.2,239.7
					c-2.8,11.6-5.6,23.2-8.4,34.8c4.4-5.9,8.2-18.3,8.8-29.8C94.7,242.2,94.5,240.7,94.2,239.7z M101.6,235
					c1.3,2.5,1.8,5.8,1.6,10.1c-0.3,5.4-1.3,11.9-3.1,18.2c2.3-5.9,3.9-12.3,4.2-18.2C104.6,240.2,103.6,236.6,101.6,235z"/>
			</g>
			<g>
				<path class="st29" d="M113.8,280.6c-2.5,0-4.6-0.7-6.3-2c-2.9-2.2-4.3-6-4-11.2c0.4-7.6,5.6-30.4,23.9-35.9
					c4.4-1.3,7.7-1,10.2,0.9c2.2,1.7,3.2,4.5,3.1,8.1c-0.1,2.4-0.7,4.7-1.6,6.9l-3.2,14.6c-2,8.9-7.5,15-16,17.8
					C117.6,280.3,115.6,280.6,113.8,280.6z M115.8,254c-2.3,5.2-3.5,10.5-3.6,13.8c-0.1,2.7,0.4,3.7,0.6,3.9
					c0.2,0.2,1.5,0.5,4.3-0.4c0.2-0.1,0.5-0.2,0.7-0.2c-0.3-0.2-0.5-0.3-0.8-0.5c-1.9-1.5-2.9-3.9-2.9-7.1l-0.9,0.3l2-8
					C115.4,255.4,115.6,254.8,115.8,254z"/>
			</g>
			<g>
				<path class="st29" d="M135.1,274.4l1.8-7.3c1.9-7.6,3.9-15.4,5.8-23.1c-2.3,0.3-4.8,0.1-6.9-1.6c-2.2-1.7-3.2-4.5-3-8.2
					c0.6-10.9,8.5-24.3,29-29.3c1.6-0.4,3.5-0.6,5.5-0.9c2.1-0.3,4.4-0.6,6.7-1.1c2.2-0.5,4-1.1,5.5-1.9l9.9-5.1l-3.8,10.5
					c-0.2,0.4-0.3,0.9-0.5,1.4c-1,3.3-2.6,8.4-9.3,11.3l-0.4,0.2l-0.4,0.1c-2.6,0.6-5.2,0.8-7.7,1c-0.4,1.7-0.8,3.3-1.2,5
					c1.2-0.3,2.5-0.6,3.7-0.9l6.9-1.6l-3.9,15.1l-2.6,0.6c-2.7,0.6-5.4,1.3-8,1.9c-2.2,8.7-4.4,17.4-6.6,26.1l-0.6,2.5l-2.5,0.6
					c-3.5,0.9-7,1.9-10.4,2.8L135.1,274.4z M159.1,214.8l-0.9,3.4c-3.7,14.6-7.4,29.3-11.1,43.8c0.3-0.1,0.6-0.2,0.9-0.2
					c2.2-8.7,4.4-17.5,6.6-26.2l1.4-5.6c1.3-5,2.5-10.1,3.8-15.1l0.1-0.5C159.7,214.6,159.4,214.7,159.1,214.8z"/>
			</g>
			<g>
				<path class="st29" d="M173.2,264.7c-2.9,0-4.9-1.1-6.2-2.1c-1.7-1.4-3.7-4.3-3.4-9.6c0.1-1.6,0.4-3.4,0.9-5.7
					c3.2-12.7,6.4-25.3,9.6-37.9l0.6-2.3l2.2-0.8c3.6-1.3,7.3-2.5,10.9-3.7l7.5-2.5l-2,7.7c-2.8,10.8-5.5,21.6-8.3,32.4l2.2-0.4
					c1-0.2,2.1-0.4,3.1-0.6l7.7-1.5l-2.8,7.3c-5.1,13.5-13.2,17.9-19.1,19.2C175.2,264.6,174.1,264.7,173.2,264.7z M182.1,213.9
					c-3,11.8-6,23.7-9.1,35.6c-0.4,1.6-0.6,3-0.7,4c-0.1,1.6,0.2,2.4,0.3,2.5c0.1,0,0.6,0.2,1.7-0.1c0.7-0.2,1.4-0.4,2.1-0.7
					c-0.1-0.1-0.2-0.1-0.3-0.2c-1-0.9-2.2-2.5-2-5.4c0.1-1,0.2-2.1,0.6-3.3c2.8-10.9,5.6-21.9,8.4-32.8
					C182.8,213.7,182.4,213.8,182.1,213.9z"/>
			</g>
			<g>
				<path class="st29" d="M196.3,277.4c-2.9,0-5.5-0.9-7.5-2.7c-2.3-2-3.5-4.9-3.3-8.2c0.1-2.8,1-5.2,2.3-7.2c-0.5-0.3-1-0.6-1.4-1
					c-1.7-1.5-3.6-4.3-3.4-9.6c0.1-1.6,0.4-3.4,0.9-5.6c2.1-8,4.1-16.1,6.1-24.1l0.7-2.7l2.7-0.5c3.5-0.7,7.1-1.3,10.6-1.9l6.6-1.1
					l0,0l1-0.2c3.5-0.6,7.1-1.1,10.7-1.6l6.4-0.9l-1.6,6.3c-3.7,14.3-7.4,28.6-11,43c-2.5,9.9-8.5,16.1-17.3,17.7
					C198,277.4,197.1,277.4,196.3,277.4z M206.8,256.3l-1.3,5.2c-0.3,1.1-0.6,2.1-1,2.9c1.3-1.6,2.4-3.9,3.2-7.1
					c3.1-12.2,6.3-24.5,9.4-36.7c-0.4,0.1-0.8,0.1-1.3,0.2c-1.8,7-3.6,14.1-5.4,21.1l-0.1,0.3c-1,3-2.3,5.2-3.6,6.7l2.1-1l-0.9,3.5
					l0.1,0L206.8,256.3z M197.9,223.9c-1.8,7.1-3.6,14.2-5.5,21.4c-0.4,1.6-0.6,3-0.7,3.9c-0.1,1.8,0.3,2.5,0.4,2.6
					c0.1,0.1,0.6,0.3,1.8,0c0.6-0.1,1.2-0.3,1.9-0.6c0,0-0.1,0-0.1-0.1c-1.1-0.9-2.3-2.7-2.1-6c0-0.9,0.2-1.9,0.5-2.8
					c1.6-6.3,3.2-12.5,4.8-18.8C198.7,223.8,198.3,223.9,197.9,223.9z"/>
			</g>
			<g>
				<path class="st29" d="M238.1,253.5l1.6-6.1c2-7.6,4-15.2,6-22.8c-3.5,0.1-6.1-0.7-8.1-2.5c-2-1.9-2.9-4.5-2.7-7.8
					c0.6-12.3,15.6-24.4,31.5-25.5c8.4-0.6,13.1,2.2,15.6,4.6c2.8,2.7,4.2,6.4,4,10.4c-0.2,3.7-1.7,7.3-4.3,10.4
					c3.1,2.8,4.7,7.1,4.5,12.4c-0.5,9.4-6.6,24.6-21,25.6c-2.8,0.2-5.2-0.2-7.1-1.2l-0.1,0.5l-3,0.3c-3.4,0.3-7,0.6-10.4,1
					L238.1,253.5z M259.6,205.7c-3.3,12.6-6.6,25.2-10,37.9c0.4,0,0.9-0.1,1.3-0.1c2.2-8.3,4.4-16.7,6.6-25l3.4-13.1
					C260.5,205.5,260.1,205.6,259.6,205.7z M274.6,219.9c1,2.1,1.5,4.8,1.3,8c-0.2,3.2-0.8,6.5-2,9.3c2.3-3.7,3.4-8.2,3.5-11.1
					C277.6,222,276,220.5,274.6,219.9z M261.9,235.8L261.9,235.8c1,1,1.3,1,1.4,1c1.7-0.1,3.6-4.6,3.8-9.2c0.2-3.2-0.6-3.9-0.6-3.9
					c-0.1-0.1-0.5-0.2-1.2-0.1c-0.1,0-0.1,0-0.2,0C264.1,227.6,263,231.7,261.9,235.8z"/>
			</g>
			<g>
				<path class="st29" d="M291.6,250.1c-3.8,0-7-1.3-9.3-3.7c-2.7-2.8-4-6.9-3.7-12.1c0.6-12.3,9.4-29.4,24.2-29.5
					c1.3,0,2.4,0.1,3.5,0.3l3.2,0c3.5,0,7,0.1,10.5,0.1l5.5,0.1l-1.4,5.3c-1.5,5.8-3.1,11.6-4.6,17.4l2.7,0.1c1,0,2,0.1,3,0.1
					l6.3,0.2l-2.4,5.8c-5.3,12.9-13.3,15.6-19.2,15.6c0,0,0,0,0,0c-3.4,0-6.2-1.2-8.1-3.2c-2.9,2.2-6.1,3.3-9.6,3.4
					C291.9,250.1,291.7,250.1,291.6,250.1z M293.1,219c-3.7,4.7-5.7,11.3-5.9,15.8c-0.1,2.6,0.3,4.6,1.3,5.6c0.9,0.9,2.3,1.1,3.3,1
					c0,0,0.1,0,0.1,0c-0.1-0.1-0.3-0.2-0.4-0.4c-1.7-1.8-2.4-4.4-2.2-8v0C289.5,229.6,290.7,223.9,293.1,219z M307.2,234.6l0.2,4.2
					c0.1,1.9,0.6,2.4,2.4,2.4c0.1,0,0.3,0,0.5,0c-0.9-1-1.8-2.7-1.7-5.4c0.1-1,0.2-2.1,0.6-3.2c1.7-6.2,3.3-12.5,5-18.7
					c-0.5,0-0.9,0-1.4,0l-0.1,0.5l-0.9-0.1c0.2,0.7,0.3,1.5,0.3,2.3l0,0.5l-4.4,16.6C307.4,233.9,307.3,234.3,307.2,234.6z
					 M298,233.5C298,233.5,298,233.5,298,233.5c0.4-0.5,0.9-1.2,1.1-2.2l2.7-10.1c-0.3,0.5-0.6,1-0.9,1.6
					C299.1,226.6,298.1,231,298,233.5L298,233.5z"/>
			</g>
			<g>
				<path class="st29" d="M328.9,250.3c-0.2,0-0.4,0-0.6,0c-3.5-0.1-6.4-1.4-8.4-3.6c-1.5-1.7-3.3-4.7-3-9.7c0.1-1.6,0.4-3.4,1-5.5
					c3.2-11.8,6.4-23.6,9.5-35.4l0.8-2.9l3-0.3c3.6-0.3,7.2-0.6,10.8-0.9l6.1-0.4l-1.6,5.9c-3.1,11.3-6.1,22.7-9.2,34.1l1-2.7
					l3.2,0.2c1,0.1,2,0.1,3,0.2l6.1,0.4l-2.3,5.6C342.8,248.2,334,250.3,328.9,250.3z M334.9,201.2c-2.9,10.8-5.8,21.6-8.7,32.4
					c-0.4,1.5-0.6,2.7-0.7,3.7c-0.1,1.6,0.2,2.8,0.8,3.4c0.6,0.6,1.6,0.8,2.3,0.8c0.2,0,0.3,0,0.5,0c-0.1-0.1-0.1-0.1-0.2-0.2
					c-1.2-1.3-1.7-3-1.6-5.1c0.1-1,0.2-2.1,0.6-3.2c2.9-10.7,5.7-21.3,8.6-32C335.9,201.2,335.4,201.2,334.9,201.2z"/>
			</g>
			<g>
				<path class="st29" d="M348.1,251.3c-0.3,0-0.6,0-1,0c-7.2-0.5-11.7-5.9-11.3-13.7c0.1-1.6,0.4-3.4,0.9-5.5
					c3.2-11.7,6.3-23.4,9.5-35.1l0.8-3l3.1-0.2c3.6-0.2,7.2-0.4,10.7-0.5l5.9-0.2l-1.5,5.7c-3.3,12.2-6.6,24.5-9.9,36.8l5.4-2.1
					l-0.8,7.2C359.2,247,354.4,251.3,348.1,251.3z M353.9,202.3c-2.9,10.7-5.8,21.3-8.6,32c-0.4,1.5-0.6,2.7-0.7,3.7
					c-0.2,3.8,1.4,4.5,3.2,4.6c0.2,0,0.4,0,0.5,0c-1.4-1.4-2.1-3.3-2-5.6c0.1-1.1,0.3-2,0.5-2.9l0-0.1c2.9-10.6,5.7-21.3,8.6-31.9
					C354.9,202.3,354.4,202.3,353.9,202.3z"/>
			</g>
		</g>
		<g>
			<path class="st1" d="M90.3,238.4c-3.6,14.6-7.1,29.3-10.6,44c1.3,0.5,2.7,0.4,4-0.1c8.5-3.3,14.7-22.3,15.4-37
				c0.5-9.9-3.6-12.2-9.8-9.9c-10.7,4-19.1,13.9-19.6,25c-0.2,3.7,0.7,3.9,0.8,4.5c-4.7,1.9-7.5,1.3-7.3-3.6
				c0.5-10,13-24.3,27.6-29.7c13.9-5.1,18.7,3.1,18.2,14.1c-0.8,16.7-11,37.5-21.7,41.5c-2.7,1-5.6,1-8.6-0.5
				c-0.2,1-0.5,2.1-0.7,3.1c-3.4,1.3-6.9,2.7-10.3,4.1c4-16.7,8-33.5,12-50.1C83.1,242.1,86.7,240.2,90.3,238.4z"/>
			<path class="st1" d="M122.9,267.7c2.8-0.9,6.3-3.7,8.7-6.4c-1.9,8.7-7.3,12.7-13.1,14.6c-6.7,2.1-11,0.4-10.6-7.8
				c0.4-8.3,6-27.5,20.8-32c6.5-1.9,7.8,1,7.6,4.6c-0.4,8.4-8.7,17-17.4,20.3c-0.1,0.7-0.2,1.6-0.3,2.2
				C118.5,267.7,120.4,268.5,122.9,267.7z M129.2,239.7c-3.6,1.1-7.6,10.2-9.5,17.6c5.7-2.1,10.9-9.1,11.2-15.2
				C130.9,240.3,130.6,239.3,129.2,239.7z"/>
			<path class="st1" d="M171.1,229c-0.5,1.9-1,3.7-1.4,5.6c-3.5,0.8-7.1,1.7-10.6,2.5c-2.4,9.5-4.8,19.1-7.3,28.6
				c-3.5,0.9-7,1.9-10.5,2.8c4.3-17.1,8.6-34.1,12.9-51.1c-5.6,1.7-9.6,5.9-10.2,17.5c-0.2,3.7,0.7,4,0.8,4.6
				c-5,1.4-7.7,0.4-7.4-4.8c0.5-9.6,7.8-20.9,25.7-25.3c2.9-0.7,7.5-0.9,12.1-1.9c2.3-0.5,4.5-1.2,6.6-2.3
				c-1.2,3.2-1.6,7.7-7.4,10.1c-3.4,0.7-6.8,0.9-10.1,1c-1.3,5-2.5,10.1-3.8,15.1C164,230.7,167.6,229.9,171.1,229z"/>
			<path class="st1" d="M189.4,207.3c-3.5,13.5-6.9,27-10.4,40.6c-0.3,1-0.4,1.7-0.4,2.4c-0.1,2,0.8,2.5,2.9,2
				c2.8-0.6,5.6-3.9,6.9-7.7c1-0.2,2-0.4,3.1-0.6c-4.8,12.5-12.1,15.6-16,16.5c-4.4,1-7.7-0.8-7.4-6.9c0.1-1.4,0.4-3,0.8-4.8
				c3.2-12.6,6.4-25.3,9.6-37.9C182.2,209.7,185.8,208.5,189.4,207.3z"/>
			<path class="st1" d="M205.1,218.7c-2.2,8.4-4.3,16.9-6.5,25.4c-0.2,0.6-0.3,1.3-0.3,1.8c-0.1,1.7,0.3,3.1,2,2.8
				c2.8-0.5,4.9-3.6,6.2-7.3c2-8,4.1-15.9,6.1-23.9c3.5-0.6,7.1-1.1,10.6-1.6c-3.7,14.3-7.4,28.6-11,43
				c-2.7,10.6-9.1,13.6-13.9,14.5c-4.5,0.8-8.5-1.5-8.2-6.1c0.3-6.7,6.1-9.9,13.2-13.1c0.3-1.1,0.6-2.2,0.9-3.3
				c-3.3,4.1-6.6,5.3-9.1,5.8c-4.4,0.8-7.7-1.1-7.4-7.1c0.1-1.4,0.4-3,0.8-4.8c2-8,4.1-16.1,6.1-24.1
				C198.1,219.9,201.6,219.3,205.1,218.7z M196.9,267.3c1.5-0.3,3.4-2,4.6-6.4c0.4-1.5,0.7-2.9,1.1-4.4c-4.7,2.3-8.3,5.1-8.5,9
				C194,266.4,195.3,267.6,196.9,267.3z"/>
			<path class="st1" d="M267.1,200.2c-1.4,5.4-2.8,10.7-4.2,16.1c0.1,0,0.3,0,0.4,0c5.8-0.4,10.8-6.9,11.1-12.3
				c0.2-4.1-2.3-7.6-9.2-7.1c-8.5,0.6-18.5,7.1-19.1,19c-0.2,3.7,0.7,4.1,0.8,4.8c-4.8,0.5-7.7-0.9-7.5-5.8
				c0.5-9.9,13.7-20.5,27.4-21.4c10.7-0.7,15.2,4.7,14.9,10.5c-0.2,4.2-3,8.8-7.8,11.7c6.1,0.9,8.3,5.7,8,11.1
				c-0.4,6.9-4.8,20.7-17,21.5c-3.1,0.2-7.2-0.4-6.9-4.7c0.1-1.1,0.4-2.5,1.2-4.2c1.7,1.7,3.1,2.3,4.7,2.2c5.3-0.4,7.6-7.9,7.9-13.3
				c0.3-5-1.1-9-6.4-8.6c-0.6,0-2,0.2-3.4,0.5c-2.5,9.3-4.9,18.6-7.4,27.9c-3.5,0.3-7,0.7-10.5,1c4.1-15.5,8.2-31,12.2-46.5
				C259.9,201.6,263.5,200.9,267.1,200.2z"/>
			<path class="st1" d="M320,210.1c-2.1,8-4.3,16.1-6.4,24.1c-0.3,0.9-0.4,1.6-0.4,2.3c-0.1,2,0.8,3.1,2.8,3.1c2.8,0,4.9-3,6.2-6.6
				c1,0,2,0.1,3,0.1c-4.7,11.5-11.3,12.9-15.2,12.9c-4,0-6.5-2.3-6.8-6.5c-2.4,3.3-6,6.6-11.1,6.7c-4.9,0.1-9.5-2.7-9.1-11.2
				c0.5-9.6,7.3-25.3,19.9-25.4c4.1,0,5.8,1.6,5.7,3.6c0,0.2,0,0.3,0,0.5c0.3-1.3,0.7-2.5,1-3.8C313,209.9,316.5,210,320,210.1z
				 M293.8,233.7c-0.3,5.5,2,5.5,3.3,5.5c2.1,0,5.3-2.2,6.3-6.3c1.4-5.4,2.9-10.7,4.3-16.1c0-0.9-0.5-2.7-2.8-2.7
				C298.8,214,294.1,227,293.8,233.7z"/>
			<path class="st1" d="M342.3,196.7c-3.4,12.6-6.8,25.3-10.2,38c-0.3,0.9-0.4,1.6-0.4,2.3c-0.1,2,0.8,2.7,2.8,2.8
				c2.8,0.1,5.5-2.4,6.8-5.9c1,0.1,2,0.1,3,0.2c-4.7,11.3-11.9,12.5-15.7,12.4c-4.3-0.2-7.6-2.8-7.3-8.8c0.1-1.4,0.4-2.9,0.8-4.6
				c3.2-11.8,6.3-23.6,9.5-35.4C335.2,197.3,338.8,197,342.3,196.7z"/>
			<path class="st1" d="M351.1,235.7c-0.2,0.7-0.4,1.4-0.4,2c-0.1,1.6,0.6,2.9,2.8,3.1c1.3,0.1,1.9-0.1,2.3-0.2
				c-0.6,5-4.4,7.1-8.2,6.8c-4.3-0.3-7.5-3.1-7.2-9.1c0.1-1.3,0.4-2.9,0.8-4.6c3.2-11.7,6.3-23.4,9.5-35.1c3.6-0.2,7.1-0.4,10.6-0.5
				C357.9,210.5,354.5,223.1,351.1,235.7z"/>
		</g>
	</g>
</g>
</svg>
