<?xml version="1.0" encoding="utf-8"?>
<!-- Generator: Adobe Illustrator 25.2.3, SVG Export Plug-In . SVG Version: 6.00 Build 0)  -->
<svg version="1.1" id="Слой_1" xmlns="http://www.w3.org/2000/svg" xmlns:xlink="http://www.w3.org/1999/xlink" x="0px" y="0px"
	 viewBox="0 0 128 128" style="enable-background:new 0 0 128 128;" xml:space="preserve">
<style type="text/css">
	.st0{display:none;fill:#D36666;}
	.st1{fill:#C48730;}
	.st2{fill:#FFFFFF;}
</style>
<g>
	<path class="st0" d="M0,89.6c0-17.1,0-34.1,0-51.2c42.7,0,85.3,0,128,0c0,17.1,0,34.1,0,51.2C85.3,89.6,42.7,89.6,0,89.6z
		 M87.4,44.7c-0.2,0.1-0.3,0.2-0.4,0.3c-0.5,0.5-1,0.9-1.5,1.4c-0.1,0.1-0.1,0.2-0.1,0.3c0.3,1.2,0.7,2.5,1,3.7
		c0,0.1,0.1,0.3,0.1,0.4c-0.2,0-0.4,0.1-0.5,0c-0.5-0.3-0.7,0-0.8,0.5c-0.9,3.1-1.8,6.2-2.7,9.4c-0.6,2.2-1.3,4.4-1.9,6.5
		c-0.1,0.3,0,0.7-0.1,0.9c-0.3,0.2-0.3,0.5-0.4,0.8c-0.9,3.2-1.8,6.3-2.7,9.5c-0.3,0.9-0.5,1.8-0.8,2.8c0.5-0.3,1-0.6,1.4-1
		c0.2-0.2,0.4-0.4,0.4-0.6c0.4-1.2,0.8-2.4,1.3-3.6c0-0.1,0.1-0.2,0.2-0.3c0,1.1,0,2.1,0,3.2c0.7-0.5,1.5-1,2.2-1.5
		c0.1-0.1,0.2-0.3,0.3-0.5c0.8-2.7,1.6-5.5,2.4-8.2c0.1-0.3,0.3-0.4,0.6-0.4c2,0,3.9,0,5.9,0.1c0.1,0,0.3,0.2,0.4,0.3
		c0.5,1.8,1.1,3.6,1.5,5.4c0.2,1,1,1.4,1.7,2.2c-0.4-2.6-0.8-5.1-1.2-7.5c0,0,0.1,0,0.1,0c0.1,0.2,0.2,0.4,0.3,0.7
		c0.9,2.5,1.8,4.9,2.7,7.4c0.4,1.1,0.9,2.2,1.8,3c1,0.9,1.9,2,2.8,3c0-0.4-0.1-0.6-0.2-0.9c-0.6-2.1-1.3-4.1-1.9-6.2
		c-0.7-2.3-1.4-4.6-2.2-7c-0.2-0.8-0.2-0.8,0.5-1.2c1.4-0.7,2.9-1.5,4.3-2.2c1.1-0.6,2.3-1.1,3.3-1.6c-1.1,0.1-2.2,0.1-3.3,0.2
		c-0.5,0-0.9,0.1-1.4,0.1c-1.5,0-3,0.1-4.5,0.1c-0.3,0-0.5-0.1-0.6-0.4c-0.3-1.2-0.6-2.4-0.9-3.6c-0.7-2.5-1.5-4.9-2.2-7.4
		c-0.6-1.9-0.9-4-2.1-5.7c-0.4-0.5-0.6-1.1-0.9-1.7c0,0.3,0,0.6,0.1,0.9c0.3,1.3,0.6,2.6,0.8,3.9c0,0.1,0,0.3,0,0.4
		c-0.1-0.1-0.3-0.2-0.4-0.3c-0.2-0.5-0.3-1-0.5-1.4c-0.2-0.5-0.5-1-0.7-1.4C88.1,46.5,87.8,45.6,87.4,44.7z M108.5,70.3
		c0.1,0,0.1,0,0.2,0c0.2,2,0.3,4,0.5,6c0.8-0.5,1.5-0.9,2.3-1.3c0.1-0.1,0.3-0.2,0.4-0.2c1,0,2,0,3,0c0.3,0,0.5-0.1,0.7-0.4
		c2.2-3.6,4.4-7.3,6.5-10.9c0.1-0.2,0.3-0.4,0.5-0.7c1.3,0.7,2.6,1.4,3.9,2c-0.2-0.4-0.5-0.7-0.8-1.1c-0.6-0.9-1.1-1.9-1.7-2.8
		c-0.2-0.3-0.2-0.5,0-0.8c0.8-1.3,1.5-2.5,2.2-3.8c0.1-0.1,0.1-0.2,0.1-0.2c-1,0.5-2,1.1-3.1,1.7c-0.8,0.4-0.9,0.4-1.4-0.4
		c-0.9-1.5-1.8-3.1-2.7-4.6c-1.2-2-2.5-4-3.7-6c-0.3-0.4-0.5-0.6-1-0.6c-1.2,0-2.4,0-3.5,0c0.1,0.4,0.2,0.9,0.2,1.3
		c-0.2,2-0.5,4-0.7,6.1c0,0.1-0.1,0.2-0.1,0.3c-0.1-0.1-0.2-0.2-0.2-0.3c-0.1-2.1-0.1-4.3-0.2-6.4c-0.1-1.4-0.1-2.9-1-4.1
		c-0.6-0.9-1-1.9-1.4-2.8c-0.1,0.2-0.1,0.4-0.1,0.5c0,10.2-0.1,20.5-0.1,30.7c0,1.3,0.3,2.6,0.4,3.9c0.1,0,0.1,0,0.2,0
		C108.1,73.7,108.3,72,108.5,70.3z M65,73.9c0,0,0.1,0,0.1,0c0.5-2.2,0.9-4.4,1.4-6.6c-0.6-0.2-0.3-0.5-0.2-0.8
		c1.2-2.1,2.4-4.3,3.5-6.4c0.2-0.3,0.3-0.7,0.3-1.1c0.1-2,0.1-3.9,0.2-5.9c0-1.2,0.1-2.4,0.2-3.5c-0.2,0.3-0.4,0.5-0.5,0.8
		c-0.5,0.9-1,1.7-1.5,2.6c-0.3,0.7-0.6,1.4-0.9,2.1c-0.8,1.7-1.7,3.4-2.6,5.1c-0.1,0.2-0.3,0.4-0.4,0.6c-0.1,0.3-0.2,0.7-0.3,1
		c-0.2,0.5-0.5,0.5-0.8,0.1c-0.2-0.3-0.2-0.8-0.4-1.1c-0.4-0.7-0.8-1.4-1.2-2.1c-0.8-1.5-1.6-3-2.3-4.5c-0.8-1.5-1.6-3.1-2.4-4.8
		c0,0.2,0,0.3,0,0.3c0.1,3.2,0.2,6.4,0.4,9.5c0,0.2,0.1,0.4,0.2,0.6c1.1,1.9,2.2,3.8,3.2,5.8c0.3,0.5,0.8,0.9,0.3,1.6
		c0,0.1,0,0.2,0,0.3c0.3,1.7,0.7,3.4,1,5.1c0.2,1.2,0.2,1.2,1.4,1.2c0.1,0,0.1,0,0.2,0c0.1-0.5,0.2-1.1,0.4-1.7c0.1,0,0.1,0,0.2,0
		C64.6,72.8,64.8,73.3,65,73.9z M21.6,40.1c0,0-0.1,0-0.1,0c0,0.3,0,0.7,0,1c-0.1,10-0.1,20.1-0.2,30.1c0,1.3,0.3,2.7,0.5,4
		c0.1,0,0.1,0,0.2,0c0.2-1.7,0.4-3.4,0.6-5c0,0,0.1,0,0.1,0c0.2,2,0.3,3.9,0.5,6c0.8-0.4,1.5-0.8,2.2-1.3c0.1-0.1,0.2-0.2,0.2-0.4
		c0.1-1.1,0.1-2.2,0.2-3.4c0.2-7.2,0.3-14.5,0.5-21.7c0-0.7,0-1.3-0.5-1.8c-0.1-0.1-0.2-0.3-0.3-0.5c-0.3,2.2-0.6,4.3-0.9,6.5
		c-0.2-0.1-0.2-0.2-0.2-0.3c-0.1-2.1-0.2-4.3-0.2-6.4c-0.1-1.5-0.2-3-1.1-4.4C22.3,41.9,22,40.9,21.6,40.1z M56.4,75.6
		c-0.1-10.5-0.3-20.9-0.4-31.1c-0.3,0.2-0.8,0.6-1.2,0.9c0,0-0.1,0.1-0.1,0.2c-0.1,1.3-0.1,2.7-0.2,4c0,0.1-0.1,0.3-0.1,0.4
		c-0.1-0.1-0.2-0.2-0.3-0.4c-0.2-0.8-0.4-1.6-0.6-2.4c-0.1-0.1-0.2-0.1-0.2-0.2c-0.1,0.2-0.2,0.4-0.3,0.5c-0.3,0.4-0.6,0.8-1,1.1
		c-0.4,0.3-0.4,0.6-0.4,1c0.1,7.9,0.2,15.7,0.3,23.6c0,0.7,0,1.5,0,2.2c0.6,0.1,0.9,0,0.9-0.6c0-0.5,0.1-1.1,0.2-1.6
		c0-0.3,0.1-0.6,0.1-1c0.3,0.4,0.4,0.8,0.5,1.2c0.2,0.6,0.2,1.5,0.7,1.8c0.5,0.3,1.3,0.1,2,0.1C56.2,75.7,56.3,75.7,56.4,75.6z
		 M5.9,74.7c-0.1-10.5-0.3-21-0.4-31.6c-0.3,0.3-0.4,0.5-0.6,0.7c-0.4,0.5-0.8,0.9-0.8,1.7c0.1,1.1,0,2.3-0.1,3.4
		c0,0.1-0.1,0.2-0.2,0.3c-0.1-0.1-0.2-0.2-0.2-0.4C3.4,48,3.2,47.1,3,46.1c-0.6,0.7-1,1.3-1.5,1.7c-0.4,0.3-0.4,0.6-0.4,1
		c0.1,7.8,0.2,15.7,0.3,23.5c0,0.8,0,1.5,0,2.3c0.8,0.1,0.8,0.1,0.9-0.6c0-0.2,0-0.4,0.1-0.5c0.1-0.7,0.2-1.3,0.3-2
		c0.1,0,0.1,0,0.2,0c0.3,1,0.6,2.1,0.9,3.1C4.4,74.7,5.1,74.7,5.9,74.7z M71.8,44.3c-0.1,10.4-0.3,20.8-0.4,31.3c0.8,0,1.5,0,2.2,0
		c0.3-1.1,0.6-2.1,0.9-3.1c0.1,0,0.1,0,0.2,0c0.1,1,0.3,2.1,0.4,3.1c0.3,0,0.5,0,0.8,0c0-0.3,0-0.6,0-0.9c0.1-8.2,0.2-16.4,0.4-24.6
		c0-0.6-0.1-1.1-0.5-1.5c-0.5-0.5-0.9-1-1.4-1.6c-0.2,1-0.4,1.8-0.6,2.6c0,0.1-0.2,0.2-0.3,0.3c-0.1-0.1-0.2-0.2-0.2-0.3
		c0-1.3-0.1-2.7-0.1-4c0-0.2,0-0.4-0.1-0.4C72.6,45,72.2,44.7,71.8,44.3z M41.3,65.1c-0.1,0.2-0.2,0.3-0.2,0.4
		c-0.6,0.8-1.3,1.5-1.9,2.3c-0.3,0.4-0.6,0.4-0.9,0.1c-0.9-1.1-1.9-2.2-2.8-3.3c-1.3-1.6-2.5-3.1-3.8-4.7c-0.3-0.3-0.3-0.6,0-0.9
		c0.9-1.1,1.8-2.2,2.7-3.2c0.5-0.6,0.9-1.1,1.3-1.7c-0.2-0.2-0.4-0.3-0.5-0.5c-0.2-0.3-0.4-0.3-0.6-0.1c-0.5,0.3-1,0.6-1.5,0.9
		c-0.2,0.1-0.4,0.1-0.6,0.2c0,0,0-0.1-0.1-0.1c0.6-1,1.1-2.1,1.7-3.2c-0.3-0.1-0.5-0.8-1-0.2c-1,1.2-1.9,2.5-2.9,3.7
		c-0.3,0.4-0.6,0.7-1,1.1c0,2.2,0,4.5,0,6.8c0,0.2,0.1,0.4,0.2,0.5c2.4,3.2,4.9,6.3,7.4,9.5c0.3,0.4,0.4,0.8,0.3,1.3
		c-0.5,1.7-0.8,3.3-1.3,5.2c1.1-1.3,2.1-2.6,3.1-3.8c1,1.3,2,2.5,3,3.8c-0.5-1.8-0.9-3.6-1.3-5.3c-0.1-0.4-0.1-0.7,0.2-1
		c0.7-0.8,1.3-1.6,2-2.5c0.4-0.6,0.8-1.1,1.3-1.7c-0.2-0.1-0.4-0.2-0.4-0.3c-0.3-0.4-0.6-0.3-0.9-0.1c-0.4,0.3-0.8,0.5-1.2,0.7
		c-0.1,0.1-0.3,0-0.4,0c0-0.1,0-0.3,0.1-0.4c0.4-0.7,0.8-1.4,1.1-2c0.1-0.1,0.1-0.3,0.1-0.4C41.9,65.7,41.6,65.5,41.3,65.1z
		 M36.5,49.5c0,0.3,0.1,0.4,0,0.5c-0.4,0.7-0.8,1.3-1.1,2c-0.1,0.1-0.2,0.4-0.1,0.5c0.2,0.4,0.5,0.8,0.8,1.2
		c0.9-1.1,1.8-2.1,2.6-3.2c1.2,1.4,2.3,2.7,3.4,4c1.2,1.5,2.5,3,3.7,4.5c0.2,0.3,0.2,0.5,0,0.8c-1.1,1.3-2.2,2.7-3.2,4
		c-0.2,0.2-0.4,0.4-0.7,0.6c0.2,0.3,0.4,0.7,0.7,1.1c0.4-0.3,0.8-0.5,1.2-0.8c0.4-0.2,0.8-0.5,1.2-0.7c0.3,0.5-0.6,2.5-1.4,3.1
		c0.2,0.3,0.4,0.6,0.6,1c1.4-1.8,2.8-3.5,4.2-5.3c0.1-0.1,0.1-0.3,0.1-0.4c0-2.2,0-4.4,0-6.6c0-0.1,0-0.3-0.1-0.4
		c-0.7-0.8-1.4-1.6-2-2.4c-1.8-2.3-3.6-4.6-5.4-6.9c-0.3-0.4-0.5-0.8-0.3-1.3c0.2-0.4,0.2-0.8,0.3-1.2c0.3-1.2,0.6-2.4,0.9-3.8
		c-0.8,1-1.4,1.8-2.1,2.7c-0.9,1-0.7,1.3-1.7,0c-0.7-0.9-1.3-1.7-2.1-2.7c0.4,1.7,0.8,3.4,1.2,5c0.2,0.5,0,0.9-0.3,1.3
		c-0.8,1-1.6,2-2.4,3c-0.2,0.2-0.5,0.5-0.7,0.7c0.2,0.3,0.4,0.6,0.7,0.9C34.9,50.4,35.6,50,36.5,49.5z M36.7,88.7c1,0,1.9,0,2.9,0
		c0-1.2,0-2.4,0-3.6c-0.7-0.2-1.3-0.4-1.9-0.7c-0.1,0-0.2-0.2-0.3-0.3c0.1-0.1,0.2-0.2,0.3-0.2c0.4-0.2,0.9-0.4,1.3-0.7
		c0.1-0.1,0.3-0.3,0.3-0.4c0-0.9,0-1.8,0-2.7c-1,0-2,0-2.9,0c0,1,0,2,0,2.9c0,0.1,0,0.3-0.1,0.3c-0.6,0.8-2.1,0.8-2.7,0
		c-0.1-0.1-0.1-0.3-0.1-0.4c0-1,0-1.9,0-2.8c-0.5,0-1,0-1.5,0c-0.5,0-0.9,0-1.4-0.1c0,0.5,0,1,0,1.4c0,1.7,0,1.7,1.5,2.4
		c0.1,0.1,0.2,0.2,0.3,0.3c-0.1,0.1-0.2,0.2-0.3,0.2c-0.6,0.2-1.1,0.4-1.7,0.6c-0.1,0-0.2,0.2-0.2,0.2c0,1.1,0,2.3,0,3.4
		c1,0,2,0,3,0c0-0.8,0-1.6,0-2.4c0-1.3,0.2-1.6,1.5-1.8c0.5-0.1,1,0.2,1.5,0.3c0.5,0.1,0.6,0.5,0.6,1C36.7,86.7,36.7,87.7,36.7,88.7
		z M103.9,85.9c0,0.4,0,0.7,0,1.1c0,0.9,0.2,1.2,1.1,1.5c0.2,0.1,0.5,0.1,0.7,0.1c1.5,0,3.1,0.1,4.6,0c0.6,0,1.1-0.2,1.7-0.4
		c0.4-0.2,0.6-0.5,0.6-1c0-0.8,0-1.5,0-2.3c0-0.3-0.1-0.4-0.4-0.5c-1.6-0.4-3.2-0.9-4.8-1.4c-0.2-0.1-0.4-0.3-0.4-0.4
		c0-0.5,0-1,0.1-1.5c0-0.1,0.2-0.3,0.3-0.3c0.7,0,1.5,0,2.3,0c0,0.5,0,0.8,0,1.2c1,0,1.9,0,2.8,0c0-0.4,0-0.7,0-1
		c0-0.1-0.1-0.3-0.2-0.4c-0.6-0.2-1.1-0.6-1.7-0.6c-1.5-0.1-3-0.1-4.6,0c-0.4,0-0.8,0.2-1.2,0.3c-0.5,0.2-0.8,0.5-0.7,1.2
		c0.1,0.4,0,0.9,0,1.3c0,0.5,0.2,0.8,0.7,0.9c1.5,0.4,3,0.9,4.5,1.3c0.4,0.1,0.5,0.3,0.5,0.6c0,0.6,0,1.2,0,1.8
		c0,0.1-0.2,0.4-0.4,0.4c-0.8,0-1.6,0-2.4,0c-0.2,0-0.4-0.1-0.3-0.4c0.1-0.5,0-1,0-1.5C105.8,85.9,104.9,85.9,103.9,85.9z
		 M19.5,87.8c-1.4,0-2.7,0-4.1,0c-0.2,0-0.5,0.1-0.5-0.3c0-0.9,0.1-1.8,0.1-2.7c0-0.4,0.1-0.6,0.6-0.6c0.7,0,1.3,0,2,0
		c0.5,0,1.1,0,1.7,0c0-0.3,0-0.5,0-0.7c-1.3,0-2.5,0-3.7,0c-0.2,0-0.5,0.1-0.5-0.3c0-0.6,0.1-1.2,0.1-1.8c0-0.4,0.1-0.5,0.5-0.5
		c1.2,0,2.4,0,3.6,0c0.2,0,0.4,0,0.6,0c0-0.3,0-0.6,0-0.8c-2.6,0-5,0-7.6,0c0,2.9,0,5.8,0,8.7c2.4,0,4.8,0,7.2,0
		c0.1,0,0.2-0.2,0.3-0.3C19.5,88.2,19.5,88,19.5,87.8z M92.7,84.2c0-0.3,0-0.5-0.1-0.7c-1.1,0-2.2,0-3.2,0c-0.9,0-0.9,0-0.9-0.9
		c0-0.5,0-1.1,0-1.7c1.6,0,3.1,0,4.7,0c0-0.3,0-0.6,0-0.8c-2.6,0-5.1,0-7.6,0c0,2.9,0,5.8,0,8.7c2.5,0,4.9,0,7.4,0
		c0-0.3,0-0.6,0-0.9c-1.4,0-2.7,0-4,0c-0.2,0-0.5,0.1-0.5-0.3c0-0.7,0.1-1.4,0.1-2.1c0-0.4,0-0.7,0-1.2
		C89.9,84.2,91.3,84.2,92.7,84.2z M14.8,60.1c-1.5-1.6-2.7-3.4-4.1-5c-1.3-1.6-2.6-3.3-4-5.1c0,0.1,0,0.2,0,0.3
		c0.7,3,1.4,5.9,2.1,8.9c0.1,0.3,0.3,0.7,0.5,1c0.7,1,1.5,1.9,2.3,2.8c0.2,0.3,0.4,0.5,0.7,0.8c0.3-0.4,0.5-0.8,0.8-1.2
		c0.1-0.1,0-0.3,0-0.4c-0.4-0.6-0.8-1.3-1.2-1.9c-0.1-0.1,0-0.4,0-0.7c0.8,0.5,1.5,0.9,2.3,1.4C14.4,60.6,14.6,60.3,14.8,60.1z
		 M50,88.7c2.5,0,4.9,0,7.4,0c0-0.3,0-0.6,0-0.8c-0.5,0-0.9,0-1.3,0c-0.9,0-0.9,0-0.9-0.9c0-1.8,0-3.6,0-5.4c0-0.2,0-0.4,0.1-0.7
		c0.7,0,1.4,0,2.1,0c0-0.3,0-0.6,0-0.8c-2.5,0-4.9,0-7.4,0c0,0.3,0,0.6,0,0.9c0.7,0,1.4,0,2.2,0c0,0.2,0,0.5,0,0.7
		c0,1.7,0,3.4,0,5.2c0,0.2,0,0.4,0,0.6c0.2,0.4,0,0.6-0.4,0.6c-0.6,0-1.2,0-1.9,0C50,88.1,50,88.4,50,88.7z M19.3,72.2
		c0-1.8,0-3.5,0-5.2c0-0.7,0.1-1.4-0.7-1.8c-0.1,0-0.1-0.2-0.2-0.2c-0.6-0.7-1.1-1.5-1.7-2.2c-0.5-0.7-1.1-1.3-1.6-2
		c-0.3,0.2-0.5,0.3-0.7,0.5c0.5,1,1,1.9,1.5,2.8c0.1,0.1,0.1,0.2,0.1,0.4c-0.1,0-0.3,0.1-0.4,0c-0.4-0.2-0.9-0.4-1.2-0.7
		c-0.5-0.4-0.9-0.6-1.3,0.1c0,0.1-0.2,0.1-0.3,0.2C14.9,66.8,17.1,69.5,19.3,72.2z M68.2,80c0,2.9,0,5.7,0,8.6c2.3,0,4.5,0,6.8,0
		c0-0.3,0-0.6,0-0.8c-1.1,0-2.2,0-3.2,0c-0.7,0-0.7,0-0.6-0.7c0-0.1,0-0.2,0-0.4c0-2.1,0-4.2,0-6.2c0-0.2,0-0.3,0-0.5
		C70.1,80,69.2,80,68.2,80z"/>
	<path class="st1" d="M87.4,44.7c0.4,0.9,0.7,1.8,1.1,2.7c0.2,0.5,0.5,1,0.7,1.4c0.2,0.5,0.3,1,0.5,1.4c0.1,0.1,0.2,0.2,0.4,0.3
		c0-0.1,0-0.3,0-0.4c-0.3-1.3-0.5-2.6-0.8-3.9c-0.1-0.3-0.1-0.6-0.1-0.9c0.3,0.6,0.6,1.1,0.9,1.7c1.2,1.7,1.5,3.7,2.1,5.7
		c0.7,2.5,1.6,4.9,2.2,7.4c0.3,1.2,0.6,2.4,0.9,3.6c0.1,0.4,0.3,0.4,0.6,0.4c1.5,0,3-0.1,4.5-0.1c0.5,0,0.9,0,1.4-0.1
		c1.1-0.1,2.2-0.1,3.3-0.2c-1.1,0.5-2.2,1.1-3.3,1.6c-1.4,0.7-2.9,1.5-4.3,2.2c-0.7,0.4-0.8,0.4-0.5,1.2c0.7,2.3,1.4,4.6,2.2,7
		c0.6,2.1,1.3,4.1,1.9,6.2c0.1,0.3,0.2,0.6,0.2,0.9c-0.9-1-1.8-2-2.8-3c-0.9-0.9-1.4-1.9-1.8-3c-0.9-2.5-1.8-4.9-2.7-7.4
		c-0.1-0.2-0.2-0.4-0.3-0.7c0,0-0.1,0-0.1,0c0.4,2.5,0.8,4.9,1.2,7.5c-0.6-0.7-1.4-1.2-1.7-2.2c-0.4-1.8-1-3.6-1.5-5.4
		c0-0.1-0.2-0.3-0.4-0.3c-2,0-3.9,0-5.9-0.1c-0.3,0-0.5,0.1-0.6,0.4c-0.8,2.7-1.6,5.5-2.4,8.2c-0.1,0.2-0.1,0.4-0.3,0.5
		c-0.7,0.5-1.5,1-2.2,1.5c0-1.1,0-2.1,0-3.2c-0.1,0.1-0.2,0.2-0.2,0.3c-0.4,1.2-0.8,2.4-1.3,3.6c-0.1,0.2-0.3,0.5-0.4,0.6
		c-0.4,0.3-0.9,0.6-1.4,1c0.3-1,0.5-1.9,0.8-2.8c0.9-3.2,1.8-6.3,2.7-9.5c0.1-0.3,0.1-0.6,0.4-0.8c0.2-0.1,0.1-0.6,0.1-0.9
		c0.6-2.2,1.3-4.4,1.9-6.5c0.9-3.1,1.8-6.2,2.7-9.4c0.1-0.5,0.3-0.7,0.8-0.5c0.1,0.1,0.3,0,0.5,0c0-0.1-0.1-0.3-0.1-0.4
		c-0.3-1.2-0.7-2.5-1-3.7c0-0.1,0-0.3,0.1-0.3c0.5-0.5,1-1,1.5-1.4C87.1,44.9,87.2,44.8,87.4,44.7z M88.3,57.1c0,0-0.1,0-0.1,0
		c-0.1,0.4-0.3,0.8-0.4,1.2c-0.5,1.8-1,3.5-1.6,5.3c-0.2,0.7-0.2,0.8,0.6,0.7c0.9,0,1.8-0.1,2.7-0.1c1,0,1,0,0.7-0.9
		c0-0.1,0-0.2-0.1-0.3c-0.5-1.7-1-3.4-1.5-5.2C88.5,57.7,88.4,57.4,88.3,57.1z"/>
	<path class="st1" d="M108.5,70.3c-0.2,1.7-0.4,3.4-0.6,5c-0.1,0-0.1,0-0.2,0c-0.1-1.3-0.4-2.6-0.4-3.9c0-10.2,0-20.5,0.1-30.7
		c0-0.2,0-0.3,0.1-0.5c0.5,1,0.8,2,1.4,2.8c0.9,1.3,0.9,2.7,1,4.1c0.1,2.1,0.1,4.3,0.2,6.4c0,0.1,0.1,0.2,0.2,0.3
		c0-0.1,0.1-0.2,0.1-0.3c0.3-2,0.5-4,0.7-6.1c0-0.5-0.1-0.9-0.2-1.3c1.1,0,2.3,0,3.5,0c0.5,0,0.8,0.2,1,0.6c1.2,2,2.5,4,3.7,6
		c0.9,1.5,1.8,3.1,2.7,4.6c0.5,0.8,0.6,0.9,1.4,0.4c1.1-0.6,2.1-1.1,3.1-1.7c0,0,0,0.1-0.1,0.2c-0.7,1.3-1.5,2.5-2.2,3.8
		c-0.2,0.3-0.2,0.5,0,0.8c0.6,0.9,1.1,1.9,1.7,2.8c0.2,0.4,0.6,0.7,0.8,1.1c-1.3-0.7-2.6-1.3-3.9-2c-0.2,0.2-0.3,0.4-0.5,0.7
		c-2.2,3.6-4.4,7.3-6.5,10.9c-0.2,0.3-0.4,0.4-0.7,0.4c-1,0-2,0-3,0c-0.1,0-0.3,0.1-0.4,0.2c-0.7,0.4-1.5,0.9-2.3,1.3
		c-0.2-2.1-0.3-4-0.5-6C108.6,70.3,108.6,70.3,108.5,70.3z M112.3,48.5C112.3,48.5,112.2,48.5,112.3,48.5c-0.1,0.5-0.2,1-0.2,1.5
		c-0.2,7-0.3,14.1-0.5,21.1c0,0.7-0.1,1.3-0.1,2c0,0.1,0.1,0.2,0.1,0.4c0.1-0.1,0.3-0.1,0.4-0.2c0.3-0.4,0.5-0.8,0.8-1.3
		c0.9-1.6,1.9-3.2,2.8-4.9c0.4-0.7,0.6-1.4,1-2.1c0.1-0.3,0.2-0.5,0.4-0.8c0.7-1.1,1.4-2.2,2-3.4c0.1-0.2,0.1-0.6,0-0.8
		c-0.7-1.4-1.5-2.7-2.3-4.1c-1.1-2-2.3-4.1-3.5-6.1C112.8,49.4,112.6,49,112.3,48.5z"/>
	<path class="st1" d="M65,73.9c-0.2-0.5-0.4-1.1-0.6-1.6c-0.1,0-0.1,0-0.2,0c-0.1,0.6-0.2,1.1-0.4,1.7c-0.1,0-0.1,0-0.2,0
		c-1.2,0-1.2,0-1.4-1.2c-0.3-1.7-0.7-3.4-1-5.1c0-0.1-0.1-0.2,0-0.3c0.5-0.6,0-1.1-0.3-1.6c-1.1-1.9-2.1-3.9-3.2-5.8
		c-0.1-0.2-0.2-0.4-0.2-0.6c-0.1-3.2-0.2-6.4-0.4-9.5c0-0.1,0-0.1,0-0.3c0.8,1.7,1.6,3.2,2.4,4.8c0.8,1.5,1.5,3,2.3,4.5
		c0.4,0.7,0.8,1.4,1.2,2.1c0.2,0.3,0.2,0.8,0.4,1.1c0.2,0.4,0.6,0.4,0.8-0.1c0.1-0.3,0.2-0.7,0.3-1c0.1-0.2,0.3-0.4,0.4-0.6
		c0.9-1.7,1.8-3.4,2.6-5.1c0.3-0.7,0.6-1.4,0.9-2.1c0.5-0.9,1-1.7,1.5-2.6c0.2-0.3,0.3-0.6,0.5-0.8c-0.1,1.2-0.1,2.4-0.2,3.5
		c-0.1,2-0.1,3.9-0.2,5.9c0,0.4-0.1,0.7-0.3,1.1c-1.2,2.2-2.3,4.3-3.5,6.4c-0.2,0.3-0.4,0.6,0.2,0.8c-0.5,2.2-0.9,4.4-1.4,6.6
		C65.1,73.9,65.1,73.9,65,73.9z"/>
	<path class="st1" d="M21.6,40.1c0.4,0.9,0.8,1.8,1.3,2.6c0.9,1.4,1,2.9,1.1,4.4c0.1,2.1,0.1,4.3,0.2,6.4c0,0.1,0.1,0.2,0.2,0.3
		c0.3-2.1,0.6-4.3,0.9-6.5c0.1,0.2,0.2,0.4,0.3,0.5c0.6,0.5,0.6,1.1,0.5,1.8C26,56.8,25.8,64,25.7,71.2c0,1.1-0.1,2.2-0.2,3.4
		c0,0.1-0.1,0.3-0.2,0.4c-0.7,0.4-1.4,0.8-2.2,1.3c-0.2-2.1-0.3-4-0.5-6c0,0-0.1,0-0.1,0c-0.2,1.7-0.4,3.4-0.6,5c-0.1,0-0.1,0-0.2,0
		c-0.2-1.3-0.5-2.7-0.5-4c0-10,0.1-20.1,0.2-30.1c0-0.3,0-0.7,0-1C21.5,40.1,21.5,40.1,21.6,40.1z"/>
	<path class="st1" d="M56.4,75.6c-0.1,0-0.1,0.1-0.1,0.1c-0.7,0-1.5,0.2-2-0.1c-0.4-0.3-0.5-1.2-0.7-1.8c-0.1-0.4-0.3-0.8-0.5-1.2
		c0,0.3-0.1,0.6-0.1,1c-0.1,0.5-0.2,1.1-0.2,1.6c0,0.6-0.3,0.7-0.9,0.6c0-0.7,0-1.5,0-2.2c-0.1-7.9-0.2-15.7-0.3-23.6
		c0-0.4,0-0.7,0.4-1c0.4-0.3,0.7-0.7,1-1.1c0.1-0.2,0.2-0.4,0.3-0.5c0.1,0.1,0.2,0.1,0.2,0.2c0.2,0.8,0.4,1.6,0.6,2.4
		c0,0.1,0.2,0.3,0.3,0.4c0-0.1,0.1-0.3,0.1-0.4c0.1-1.3,0.1-2.7,0.2-4c0-0.1,0-0.2,0.1-0.2c0.5-0.3,0.9-0.7,1.2-0.9
		C56.1,54.7,56.2,65.2,56.4,75.6z"/>
	<path class="st1" d="M5.9,74.7c-0.8,0-1.5,0-2.2,0c-0.3-1-0.6-2.1-0.9-3.1c-0.1,0-0.1,0-0.2,0c-0.1,0.7-0.2,1.3-0.3,2
		c0,0.2,0,0.4-0.1,0.5c-0.1,0.7-0.1,0.7-0.9,0.6c0-0.8,0-1.5,0-2.3c-0.1-7.8-0.2-15.7-0.3-23.5c0-0.4,0-0.7,0.4-1
		c0.5-0.4,0.9-1.1,1.5-1.7c0.2,1,0.4,1.8,0.6,2.7c0,0.1,0.1,0.2,0.2,0.4C3.9,49.1,4,49,4,48.9c0-1.1,0.1-2.3,0.1-3.4
		c0-0.8,0.3-1.2,0.8-1.7c0.2-0.2,0.3-0.4,0.6-0.7C5.6,53.7,5.8,64.2,5.9,74.7z"/>
	<path class="st1" d="M71.8,44.3c0.4,0.3,0.8,0.7,1.2,1.1c0.1,0.1,0.1,0.3,0.1,0.4c0,1.3,0.1,2.7,0.1,4c0,0.1,0.1,0.2,0.2,0.3
		c0.1-0.1,0.2-0.2,0.3-0.3c0.2-0.8,0.4-1.6,0.6-2.6c0.5,0.6,0.9,1.2,1.4,1.6c0.5,0.4,0.5,0.9,0.5,1.5c-0.1,8.2-0.2,16.4-0.4,24.6
		c0,0.3,0,0.6,0,0.9c-0.3,0-0.5,0-0.8,0c-0.1-1.1-0.3-2.1-0.4-3.1c-0.1,0-0.1,0-0.2,0c-0.3,1-0.6,2.1-0.9,3.1c-0.7,0-1.5,0-2.2,0
		C71.5,65.2,71.6,54.7,71.8,44.3z"/>
	<path class="st1" d="M41.3,65.1c0.4,0.4,0.6,0.7,0.8,1c0.1,0.1,0,0.3-0.1,0.4c-0.4,0.7-0.8,1.4-1.1,2c-0.1,0.1-0.1,0.3-0.1,0.4
		c0.2,0,0.3,0.1,0.4,0c0.4-0.2,0.8-0.5,1.2-0.7c0.3-0.2,0.6-0.4,0.9,0.1c0.1,0.1,0.3,0.2,0.4,0.3c-0.4,0.6-0.8,1.1-1.3,1.7
		c-0.6,0.8-1.3,1.7-2,2.5c-0.3,0.3-0.3,0.6-0.2,1c0.4,1.7,0.9,3.4,1.3,5.3c-1.1-1.3-2-2.5-3-3.8c-1,1.2-2,2.5-3.1,3.8
		c0.5-1.8,0.8-3.5,1.3-5.2c0.1-0.5,0-0.9-0.3-1.3c-2.5-3.1-4.9-6.3-7.4-9.5C29.2,63,29,62.8,29,62.6c0-2.3,0-4.7,0-6.8
		c0.4-0.4,0.7-0.7,1-1.1c1-1.2,1.9-2.4,2.9-3.7c0.5-0.6,0.6,0.1,1,0.2c-0.6,1.1-1.1,2.1-1.7,3.2c0,0,0,0.1,0.1,0.1
		c0.2-0.1,0.4-0.1,0.6-0.2c0.5-0.3,1-0.6,1.5-0.9c0.3-0.2,0.5-0.2,0.6,0.1c0.1,0.2,0.3,0.3,0.5,0.5c-0.4,0.5-0.8,1.1-1.3,1.7
		c-0.9,1.1-1.8,2.2-2.7,3.2c-0.3,0.3-0.3,0.6,0,0.9c1.3,1.6,2.5,3.1,3.8,4.7c0.9,1.1,1.9,2.2,2.8,3.3c0.3,0.3,0.6,0.3,0.9-0.1
		c0.6-0.8,1.3-1.5,1.9-2.3C41.1,65.4,41.1,65.3,41.3,65.1z"/>
	<path class="st1" d="M36.5,49.5c-0.8,0.5-1.5,0.9-2.3,1.4c-0.2-0.3-0.5-0.7-0.7-0.9c0.3-0.3,0.5-0.5,0.7-0.7c0.8-1,1.6-2,2.4-3
		c0.3-0.4,0.5-0.8,0.3-1.3c-0.4-1.6-0.8-3.3-1.2-5c0.8,0.9,1.4,1.8,2.1,2.7c1,1.3,0.9,1,1.7,0c0.7-0.8,1.3-1.7,2.1-2.7
		c-0.3,1.4-0.6,2.6-0.9,3.8c-0.1,0.4-0.1,0.9-0.3,1.2c-0.2,0.6,0,0.9,0.3,1.3c1.8,2.3,3.6,4.6,5.4,6.9c0.7,0.8,1.4,1.6,2,2.4
		c0.1,0.1,0.1,0.2,0.1,0.4c0,2.2,0,4.4,0,6.6c0,0.1,0,0.3-0.1,0.4c-1.4,1.7-2.7,3.5-4.2,5.3c-0.2-0.4-0.4-0.7-0.6-1
		c0.8-0.6,1.7-2.6,1.4-3.1c-0.4,0.2-0.8,0.5-1.2,0.7c-0.4,0.2-0.8,0.5-1.2,0.8c-0.2-0.4-0.5-0.8-0.7-1.1c0.3-0.2,0.5-0.4,0.7-0.6
		c1.1-1.3,2.2-2.7,3.2-4c0.2-0.3,0.3-0.5,0-0.8c-1.2-1.5-2.5-3-3.7-4.5c-1.1-1.3-2.3-2.6-3.4-4c-0.9,1-1.7,2.1-2.6,3.2
		c-0.3-0.4-0.6-0.8-0.8-1.2c-0.1-0.1,0-0.3,0.1-0.5c0.4-0.7,0.8-1.3,1.1-2C36.5,49.9,36.5,49.7,36.5,49.5z"/>
	<path class="st1" d="M36.7,88.7c0-1,0-2,0-2.9c0-0.5-0.1-0.9-0.6-1c-0.5-0.1-1-0.4-1.5-0.3c-1.3,0.2-1.5,0.5-1.5,1.8
		c0,0.8,0,1.6,0,2.4c-1,0-2,0-3,0c0-1.2,0-2.3,0-3.4c0-0.1,0.1-0.2,0.2-0.2c0.6-0.2,1.1-0.4,1.7-0.6c0.1,0,0.2-0.2,0.3-0.2
		c-0.1-0.1-0.2-0.2-0.3-0.3c-1.5-0.7-1.5-0.7-1.5-2.4c0-0.5,0-0.9,0-1.4c0.5,0,1,0.1,1.4,0.1c0.5,0,1,0,1.5,0c0,0.9,0,1.9,0,2.8
		c0,0.1,0,0.3,0.1,0.4c0.6,0.8,2.2,0.8,2.7,0c0.1-0.1,0.1-0.2,0.1-0.3c0-1,0-2,0-2.9c0.9,0,1.9,0,2.9,0c0,0.9,0,1.8,0,2.7
		c0,0.1-0.1,0.3-0.3,0.4c-0.4,0.2-0.8,0.4-1.3,0.7c-0.1,0.1-0.2,0.2-0.3,0.2c0.1,0.1,0.2,0.2,0.3,0.3c0.6,0.2,1.3,0.5,1.9,0.7
		c0,1.2,0,2.4,0,3.6C38.6,88.7,37.7,88.7,36.7,88.7z"/>
	<path class="st1" d="M103.9,85.9c1,0,1.9,0,2.8,0c0,0.5,0.1,1,0,1.5c-0.1,0.3,0.1,0.4,0.3,0.4c0.8,0,1.6,0,2.4,0
		c0.1,0,0.4-0.2,0.4-0.4c0-0.6,0-1.2,0-1.8c0-0.4-0.1-0.5-0.5-0.6c-1.5-0.4-3-0.9-4.5-1.3c-0.5-0.1-0.7-0.4-0.7-0.9
		c0-0.4,0.1-0.9,0-1.3c-0.1-0.6,0.2-1,0.7-1.2c0.4-0.1,0.8-0.3,1.2-0.3c1.5,0,3.1-0.1,4.6,0c0.6,0,1.1,0.4,1.7,0.6
		c0.1,0,0.2,0.2,0.2,0.4c0,0.3,0,0.6,0,1c-0.9,0-1.8,0-2.8,0c0-0.4,0-0.8,0-1.2c-0.8,0-1.5,0-2.3,0c-0.1,0-0.3,0.2-0.3,0.3
		c-0.1,0.5-0.1,1-0.1,1.5c0,0.2,0.3,0.4,0.4,0.4c1.6,0.5,3.2,0.9,4.8,1.4c0.3,0.1,0.4,0.2,0.4,0.5c0,0.8,0,1.5,0,2.3
		c0,0.5-0.2,0.9-0.6,1c-0.5,0.2-1.1,0.4-1.7,0.4c-1.5,0-3.1,0-4.6,0c-0.2,0-0.5-0.1-0.7-0.1c-0.9-0.3-1.1-0.6-1.1-1.5
		C103.9,86.7,103.9,86.3,103.9,85.9z"/>
	<path class="st1" d="M19.5,87.8c0,0.2,0,0.4,0,0.6c0,0.1-0.2,0.3-0.3,0.3c-2.4,0-4.8,0-7.2,0c0-2.9,0-5.8,0-8.7c2.5,0,5,0,7.6,0
		c0,0.2,0,0.5,0,0.8c-0.2,0-0.4,0-0.6,0c-1.2,0-2.4,0-3.6,0c-0.4,0-0.5,0.1-0.5,0.5c0,0.6,0,1.2-0.1,1.8c0,0.4,0.3,0.3,0.5,0.3
		c1.2,0,2.4,0,3.7,0c0,0.2,0,0.4,0,0.7c-0.6,0-1.1,0-1.7,0c-0.7,0-1.3,0-2,0c-0.4,0-0.6,0.2-0.6,0.6c0,0.9,0,1.8-0.1,2.7
		c0,0.4,0.3,0.3,0.5,0.3C16.7,87.8,18.1,87.8,19.5,87.8z"/>
	<path class="st1" d="M92.7,84.2c-1.4,0-2.7,0-4.2,0c0,0.4,0,0.8,0,1.2c0,0.7-0.1,1.4-0.1,2.1c0,0.4,0.3,0.3,0.5,0.3
		c1.3,0,2.7,0,4,0c0,0.3,0,0.5,0,0.9c-2.4,0-4.9,0-7.4,0c0-2.9,0-5.7,0-8.7c2.5,0,5,0,7.6,0c0,0.2,0,0.5,0,0.8c-1.6,0-3.1,0-4.7,0
		c0,0.6,0,1.1,0,1.7c0,0.9,0,0.9,0.9,0.9c1,0,2.1,0,3.2,0C92.6,83.7,92.6,83.9,92.7,84.2z"/>
	<path class="st1" d="M14.8,60.1c-0.2,0.2-0.4,0.5-0.6,0.9c-0.7-0.4-1.5-0.9-2.3-1.4c0,0.3-0.1,0.5,0,0.7c0.4,0.7,0.8,1.3,1.2,1.9
		c0.1,0.1,0.1,0.3,0,0.4c-0.2,0.4-0.5,0.7-0.8,1.2c-0.2-0.3-0.5-0.6-0.7-0.8c-0.8-0.9-1.5-1.9-2.3-2.8c-0.2-0.3-0.4-0.6-0.5-1
		c-0.7-3-1.4-5.9-2.1-8.9c0-0.1,0-0.2,0-0.3c1.3,1.7,2.6,3.4,4,5.1C12,56.7,13.3,58.4,14.8,60.1z"/>
	<path class="st1" d="M50,88.7c0-0.3,0-0.6,0-0.8c0.6,0,1.3,0,1.9,0c0.4,0,0.6-0.1,0.4-0.6c-0.1-0.2,0-0.4,0-0.6c0-1.7,0-3.4,0-5.2
		c0-0.2,0-0.4,0-0.7c-0.7,0-1.5,0-2.2,0c0-0.3,0-0.6,0-0.9c2.5,0,4.9,0,7.4,0c0,0.3,0,0.5,0,0.8c-0.7,0-1.4,0-2.1,0
		c0,0.3-0.1,0.5-0.1,0.7c0,1.8,0,3.6,0,5.4c0,0.9,0,0.9,0.9,0.9c0.4,0,0.8,0,1.3,0c0,0.3,0,0.5,0,0.8C54.9,88.7,52.4,88.7,50,88.7z"
		/>
	<path class="st1" d="M19.3,72.2c-2.2-2.8-4.4-5.4-6.6-8.1C12.8,64,13,64,13,63.9c0.4-0.7,0.8-0.5,1.3-0.1c0.4,0.3,0.8,0.5,1.2,0.7
		c0.1,0.1,0.3,0,0.4,0c0-0.1,0-0.3-0.1-0.4c-0.5-0.9-1-1.9-1.5-2.8c0.2-0.1,0.4-0.3,0.7-0.5c0.5,0.7,1.1,1.3,1.6,2
		c0.6,0.7,1.1,1.5,1.7,2.2c0.1,0.1,0.1,0.2,0.2,0.2c0.8,0.4,0.7,1.1,0.7,1.8C19.3,68.7,19.3,70.4,19.3,72.2z"/>
	<path class="st1" d="M68.2,80c1,0,1.9,0,2.9,0c0,0.2,0,0.3,0,0.5c0,2.1,0,4.2,0,6.2c0,0.1,0,0.2,0,0.4c-0.1,0.7-0.1,0.7,0.6,0.7
		c1.1,0,2.1,0,3.2,0c0,0.3,0,0.5,0,0.8c-2.2,0-4.5,0-6.8,0C68.2,85.8,68.2,82.9,68.2,80z"/>
	<path class="st0" d="M88.3,57.1c0.1,0.3,0.2,0.6,0.3,0.9c0.5,1.7,1,3.4,1.5,5.2c0,0.1,0,0.2,0.1,0.3c0.3,0.9,0.3,0.9-0.7,0.9
		c-0.9,0-1.8,0.1-2.7,0.1c-0.8,0-0.8,0-0.6-0.7c0.5-1.8,1-3.5,1.6-5.3c0.1-0.4,0.3-0.8,0.4-1.2C88.3,57.2,88.3,57.2,88.3,57.1z"/>
	<path class="st2" d="M112.3,48.5c0.3,0.5,0.5,0.9,0.8,1.4c1.2,2,2.3,4.1,3.5,6.1c0.8,1.4,1.5,2.7,2.3,4.1c0.1,0.2,0.1,0.6,0,0.8
		c-0.6,1.1-1.3,2.2-2,3.4c-0.1,0.2-0.3,0.5-0.4,0.8c-0.3,0.7-0.6,1.4-1,2.1c-0.9,1.6-1.8,3.2-2.8,4.9c-0.2,0.4-0.5,0.9-0.8,1.3
		c-0.1,0.1-0.2,0.1-0.4,0.2c0-0.1-0.1-0.2-0.1-0.4c0-0.7,0.1-1.3,0.1-2c0.2-7,0.3-14.1,0.5-21.1C112.1,49.5,112.2,49,112.3,48.5
		C112.2,48.5,112.3,48.5,112.3,48.5z"/>
</g>
</svg>
