<?xml version="1.0" encoding="utf-8"?>
<!-- Generator: Adobe Illustrator 25.4.1, SVG Export Plug-In . SVG Version: 6.00 Build 0)  -->
<svg version="1.1" id="Layer_1" xmlns="http://www.w3.org/2000/svg" xmlns:xlink="http://www.w3.org/1999/xlink" x="0px" y="0px"
	 viewBox="0 0 1133.9 1133.9" style="enable-background:new 0 0 1133.9 1133.9;" xml:space="preserve">
<style type="text/css">
	.st0{fill:url(#SVGID_1_);}
	.st1{fill:#FFFFFF;}
	.st2{fill:#9C8AC1;}
	.st3{fill:#102548;}
	.st4{fill:url(#SVGID_00000155864445702966441710000010051354565280213895_);}
</style>
<g>
	<g>
		
			<linearGradient id="SVGID_1_" gradientUnits="userSpaceOnUse" x1="-3542.592" y1="-10328.1025" x2="-3240.7991" y2="-10328.1025" gradientTransform="matrix(0.7071 -0.7071 0.7071 0.7071 10221.958 5400.4868)">
			<stop  offset="0" style="stop-color:#5786C5"/>
			<stop  offset="1" style="stop-color:#3869B2"/>
		</linearGradient>
		<path class="st0" d="M679.8,441.5c-58.9-58.9-154.5-58.9-213.4,0c-58.9,58.9-58.9,154.5,0,213.4c0.6,0.6,1.1,1.1,1.7,1.6
			l213.3-213.3C680.9,442.7,680.4,442.1,679.8,441.5z"/>
	</g>
	<g>
		<path class="st1" d="M640.1,490.2c-34.5-34.5-90.5-34.5-125.1,0c-34.5,34.5-34.5,90.5,0,125.1c0.3,0.3,0.7,0.6,1,0.9l125-125
			C640.8,490.9,640.5,490.5,640.1,490.2z"/>
	</g>
	<g>
		<path class="st2" d="M482.4,637.8c49.8,49.8,130.5,49.8,180.3,0c49.8-49.8,49.8-130.5,0-180.3c-0.5-0.5-1-0.9-1.4-1.4L481.1,636.4
			C481.5,636.8,482,637.3,482.4,637.8z"/>
	</g>
	<g>
		<path class="st3" d="M528.1,590.7c24.2,24.2,63.3,24.2,87.5,0c24.2-24.2,24.2-63.3,0-87.5c-0.2-0.2-0.5-0.4-0.7-0.7L527.4,590
			C527.7,590.3,527.9,590.5,528.1,590.7z"/>
	</g>
	
		<linearGradient id="SVGID_00000178198020629131658900000006522128729936209067_" gradientUnits="userSpaceOnUse" x1="11013.8252" y1="-3853.6028" x2="11061.2559" y2="-3853.6028" gradientTransform="matrix(-0.7071 -0.7071 0.7071 -0.7071 11102.793 5628.0859)">
		<stop  offset="0" style="stop-color:#5786C5"/>
		<stop  offset="1" style="stop-color:#3869B2"/>
	</linearGradient>
	<circle style="fill:url(#SVGID_00000178198020629131658900000006522128729936209067_);" cx="573.2" cy="548.3" r="23.7"/>
</g>
<g>
	<g>
		<g>
			<path class="st3" d="M402.9,694.1l20.5,0c5.5,0,9.8,1,13,3.1c3.2,2.1,5.1,5,5.7,8.8c0.7,4.3-0.2,8.2-2.5,11.8
				c-1.3,2.8-3.5,5-6.4,6.8c-3,1.8-6.5,3-10.7,3.6l11.7,22.7l-7.4,0l-11.3-22.1l-15.4,0l-5.9,22.1l-6.4,0L402.9,694.1z M417,723.2
				c4.2,0,7.7-0.6,10.6-1.9c2.9-1.2,5-2.9,6.2-4.9c1.7-2.3,2.5-5,2.3-8c-0.3-2.6-1.5-4.7-3.6-6.2c-2.1-1.5-5.3-2.2-9.4-2.2l-15.3,0
				l-6.2,23.2L417,723.2z"/>
			<path class="st3" d="M453.6,733c0,0.3,0,0.5,0,0.8c0,3.8,1.2,6.9,3.4,9.2c2.3,2.3,5.4,3.4,9.3,3.4c2.7,0,5.1-0.4,7.1-1.3
				c2-0.9,3.9-2.1,5.8-3.7l3.3,4.1c-2.1,1.7-4.4,3.2-7,4.4c-2.6,1.2-5.8,1.8-9.5,1.8c-2.8,0-5.3-0.4-7.6-1.3s-4.3-2.1-5.9-3.6
				c-1.6-1.6-2.9-3.4-3.8-5.6c-0.9-2.2-1.3-4.6-1.4-7.3c0-3.2,0.6-6.4,1.8-9.5c1.2-3.1,2.9-5.9,5.1-8.3c2.2-2.4,4.8-4.4,7.8-5.9
				c3-1.5,6.2-2.3,9.7-2.3c2.7,0,5,0.4,7,1.3c2,0.9,3.7,2,5.1,3.5c1.4,1.5,2.4,3.2,3.1,5.1c0.7,2,1.1,4,1.1,6.2
				c0,1.4-0.1,2.8-0.4,4.1c-0.3,1.3-0.6,2.6-1,3.9l-32.9,0.1C453.7,732.4,453.6,732.6,453.6,733z M481.6,727.4
				c0.3-0.8,0.4-1.9,0.4-3.3c0-1.5-0.2-2.9-0.6-4.2c-0.4-1.3-1-2.5-1.9-3.4c-0.9-1-2-1.8-3.3-2.4c-1.3-0.6-2.9-0.9-4.7-0.9
				c-2.1,0-4,0.4-5.8,1.1c-1.8,0.7-3.4,1.8-4.9,3s-2.7,2.8-3.8,4.5c-1.1,1.7-1.8,3.6-2.4,5.5L481.6,727.4z"/>
			<path class="st3" d="M509.1,693.9l21.3,0c5.6,0,9.9,1.2,13,3.6c3.1,2.4,4.6,5.6,4.6,9.7c0,2.1-0.4,3.9-1.1,5.6
				c-0.7,1.7-1.7,3.1-3,4.4c-1.3,1.2-2.8,2.3-4.5,3.2c-1.7,0.9-3.6,1.5-5.6,1.9c2.8,0.9,5.2,2.2,7.2,4.1c2,1.9,2.9,4.4,2.9,7.6
				c0,2.4-0.5,4.7-1.6,6.8c-1.1,2.1-2.6,3.9-4.7,5.4c-2.1,1.5-4.6,2.7-7.5,3.5c-3,0.8-6.3,1.3-10,1.3l-26.2,0L509.1,693.9z
				 M520.7,745.1c5.1,0,9.2-1,12.2-3c3-2,4.5-4.8,4.5-8.4c0-1.5-0.3-2.7-1-3.8c-0.7-1.1-1.6-2-2.7-2.7c-1.2-0.7-2.6-1.3-4.1-1.6
				c-1.6-0.4-3.3-0.5-5.2-0.5l-17.2,0l-5.3,20.2L520.7,745.1z M524.7,719.3c5.1,0,9.1-1,12.1-3.1c3-2.1,4.5-4.8,4.5-8.3
				c0-2.7-1-4.8-3-6.2c-2-1.4-4.9-2.1-8.6-2.1l-16,0l-5.2,19.7L524.7,719.3z"/>
			<path class="st3" d="M559.4,750.9c-1.6-0.5-3-1.3-4.2-2.2s-2.2-2.2-2.9-3.6c-0.7-1.4-1.1-3.1-1.1-5c0-2.3,0.5-4.4,1.4-6.3
				c0.9-1.9,2.2-3.5,3.9-4.8c1.7-1.3,3.7-2.3,5.9-3c2.3-0.7,4.8-1.1,7.5-1.1c2.8,0,5.5,0.2,8,0.7c2.5,0.5,4.8,1,6.9,1.6l0.2-1
				c0.2-0.6,0.3-1.2,0.4-2c0.1-0.7,0.2-1.4,0.2-2c0-2.8-0.9-4.9-2.8-6.3c-1.9-1.5-4.7-2.2-8.6-2.2c-2.3,0-4.3,0.2-6.2,0.6
				c-1.9,0.4-3.8,0.9-5.6,1.6l-1.1-5.2c2.1-0.8,4.2-1.4,6.4-1.8c2.2-0.5,4.7-0.7,7.5-0.7c5.3,0,9.4,1.1,12.2,3.4
				c2.8,2.3,4.3,5.5,4.3,9.5c0,0.9-0.1,1.9-0.2,2.8c-0.2,1-0.4,2-0.6,2.9l-6.3,23.8l-6.1,0l1.8-6.6c-1.9,2.3-4.2,4.1-6.8,5.5
				c-2.6,1.4-5.5,2-8.9,2C562.7,751.6,561,751.4,559.4,750.9z M571.7,745.8c1.7-0.6,3.3-1.5,4.8-2.6c1.5-1.1,2.8-2.4,3.9-3.9
				s1.9-3.2,2.4-5.1l0.8-2.9c-1.8-0.5-3.9-1-6.3-1.3c-2.3-0.3-4.8-0.5-7.4-0.5c-1.9,0-3.6,0.2-5.2,0.7s-2.9,1.2-3.9,2
				c-1.1,0.9-1.9,1.9-2.6,3.1c-0.6,1.2-0.9,2.5-0.9,4c0,2.3,0.8,4.1,2.4,5.4c1.6,1.4,3.8,2,6.5,2C568.2,746.7,570,746.4,571.7,745.8
				z"/>
			<path class="st3" d="M613.7,691.3l6.3,0l-10.7,40.4l28.2-23.1l8.5,0l-22.5,18.2l11.6,23.9l-7.1,0l-9.8-19.9l-11.2,9l-2.9,11
				l-6.3,0L613.7,691.3z"/>
			<path class="st3" d="M652.7,732.6c0,0.3,0,0.5,0,0.8c0,3.8,1.2,6.9,3.4,9.2c2.3,2.3,5.4,3.4,9.3,3.4c2.7,0,5.1-0.4,7.1-1.3
				c2-0.9,4-2.1,5.8-3.7l3.3,4.1c-2.1,1.7-4.4,3.2-7,4.4c-2.6,1.2-5.8,1.8-9.5,1.8c-2.8,0-5.3-0.4-7.6-1.3c-2.3-0.9-4.3-2.1-5.9-3.6
				c-1.6-1.6-2.9-3.4-3.8-5.6s-1.3-4.6-1.4-7.3c0-3.2,0.6-6.4,1.8-9.5s2.9-5.9,5.1-8.3c2.2-2.4,4.8-4.4,7.8-5.9
				c3-1.5,6.2-2.3,9.7-2.3c2.7,0,5,0.4,7,1.3c2,0.9,3.7,2,5.1,3.5c1.4,1.5,2.4,3.2,3.1,5.1c0.7,2,1.1,4,1.1,6.2
				c0,1.4-0.1,2.8-0.4,4.1c-0.3,1.3-0.6,2.6-1.1,3.9l-32.9,0.1C652.8,732,652.7,732.3,652.7,732.6z M680.7,727
				c0.3-0.8,0.4-1.9,0.4-3.3c0-1.5-0.2-2.9-0.6-4.2c-0.4-1.3-1-2.5-1.9-3.4c-0.9-1-2-1.8-3.3-2.4c-1.3-0.6-2.9-0.9-4.7-0.9
				c-2.1,0-4,0.4-5.8,1.1c-1.8,0.7-3.5,1.8-4.9,3c-1.5,1.3-2.7,2.8-3.8,4.5s-1.8,3.6-2.4,5.5L680.7,727z"/>
			<path class="st3" d="M704.6,750.2c-2-0.9-3.8-2.1-5.3-3.6c-1.5-1.5-2.7-3.4-3.5-5.6s-1.3-4.6-1.3-7.3c0-3.7,0.6-7.2,1.9-10.4
				c1.3-3.2,3-5.9,5.2-8.3c2.2-2.3,4.7-4.2,7.5-5.5c2.8-1.3,5.8-2,8.9-2c2.2,0,4.1,0.3,5.8,0.8c1.7,0.6,3.2,1.3,4.5,2.3
				s2.4,2.1,3.3,3.3s1.6,2.6,2.2,3.9l7.1-26.8l6.3,0l-15.7,59.4l-6.3,0l1.9-7.2c-2,2.3-4.3,4.2-6.9,5.8c-2.6,1.6-5.6,2.4-9,2.4
				C708.8,751.4,706.6,751,704.6,750.2z M719.8,744.2c2.2-1.1,4.2-2.6,6-4.4c1.7-1.8,3.1-3.9,4.2-6.3c1.1-2.4,1.6-4.9,1.6-7.5
				c0-1.8-0.3-3.5-0.9-5.1c-0.6-1.6-1.5-2.9-2.6-4.1c-1.1-1.2-2.5-2.1-4.1-2.8c-1.6-0.7-3.4-1-5.3-1c-2.5,0-4.8,0.6-6.9,1.6
				c-2.1,1.1-4,2.5-5.6,4.4c-1.6,1.8-2.8,3.9-3.7,6.4c-0.9,2.4-1.3,5-1.3,7.6c0,2,0.3,3.7,0.9,5.3c0.6,1.6,1.4,2.9,2.4,4.1
				s2.3,2,3.8,2.6c1.5,0.6,3.1,0.9,4.8,0.9C715.3,745.9,717.6,745.4,719.8,744.2z"/>
		</g>
	</g>
</g>
</svg>
