<?xml version="1.0" encoding="UTF-8"?>
<svg width="300px" height="300px" viewBox="0 0 300 300" version="1.1" xmlns="http://www.w3.org/2000/svg" xmlns:xlink="http://www.w3.org/1999/xlink">
    <title>Sirius Logo-7</title>
    <defs>
        <linearGradient x1="50.3333341%" y1="1.33333333%" x2="50.3333341%" y2="98.3333333%" id="linearGradient-1">
            <stop stop-color="#FFCDEC" offset="0%"></stop>
            <stop stop-color="#6C7DFF" offset="100%"></stop>
        </linearGradient>
    </defs>
    <g id="页面-1" stroke="none" stroke-width="1" fill="none" fill-rule="evenodd">
        <g id="Logo-Sirius-Finance-" transform="translate(-266.000000, -1886.000000)" fill="url(#linearGradient-1)">
            <path d="M494.900023,1969.53 C513.763953,1969.5353 531.853012,1977.03474 545.187136,1990.37824 C558.521261,2003.72174 566.00798,2021.81607 566.000029,2040.68 L566.000029,2114.86 C566.005328,2133.7222 558.517436,2151.81395 545.1836,2165.15529 C531.849763,2178.49663 513.762219,2185.9947 494.900023,2186 L328.610023,2186 C297.537565,2185.99314 272.212247,2161.0684 271.710023,2130 L271.710023,2129.06 L469.360023,2129.06 C497.415683,2128.6683 519.95373,2105.81339 519.95373,2077.755 C519.95373,2049.69661 497.415683,2026.8417 469.360023,2026.45 L376.230023,2026.45 C369.438747,2026.45 362.925771,2023.75149 358.124552,2018.9484 C353.323334,2014.1453 350.62737,2007.63127 350.630023,2000.84 L350.630023,1969.53 L494.900023,1969.53 Z M502.680023,1886 C533.750281,1886.01223 559.072466,1910.93389 559.580023,1942 L559.580023,1942.94 L362.640023,1942.94 C334.584362,1943.3317 312.046315,1966.18661 312.046315,1994.245 C312.046315,2022.30339 334.584362,2045.1583 362.640023,2045.55 L450.800023,2045.55 C458.910343,2045.55265 466.687432,2048.77701 472.420419,2054.51375 C478.153407,2060.25048 481.372675,2068.02968 481.370023,2076.14 L481.370023,2102.48 L337.100023,2102.48 C318.234359,2102.4747 300.143783,2094.97389 286.809371,2081.62822 C273.474959,2068.28256 265.989411,2050.18566 266.000011,2031.32 L266.000011,1957.14 C265.994717,1938.2778 273.482609,1920.18605 286.816445,1906.84471 C300.150282,1893.50337 318.237826,1886.0053 337.100023,1886 L502.680023,1886 Z" id="Sirius-Logo-7"></path>
        </g>
    </g>
</svg>